<?xml version="1.0" encoding="UTF-8"?> <svg xmlns="http://www.w3.org/2000/svg" width="220" height="76" viewBox="0 0 220 76" fill="none"><g filter="url(#filter0_dd_2096_227)"><rect x="1.32037" y="1.32031" width="217" height="73" rx="36.5" fill="#CBD13F"></rect><path d="M31.3152 21.8199H34.966V52.3203H28.1727V30.2306L25.2613 31.6632L23.3666 25.7018L31.3152 21.8199ZM52.7579 52.8749C46.0108 52.8749 42.6373 47.6066 42.6373 37.0701C42.6373 26.5336 46.0108 21.2654 52.7579 21.2654C55.4382 21.2654 57.5332 22.0048 59.0428 23.4836C60.5524 24.9624 61.5691 27.3038 62.0928 30.5079L55.8079 32.1254C55.5614 30.6157 55.2072 29.5374 54.745 28.8905C54.2829 28.2127 53.6513 27.8738 52.8503 27.8738C51.772 27.8738 51.0018 28.567 50.5397 29.9534C50.1083 31.3089 49.8927 33.6812 49.8927 37.0701C49.8927 40.459 50.1083 42.8467 50.5397 44.2331C51.0018 45.5887 51.772 46.2664 52.8503 46.2664C53.6513 46.2664 54.2829 45.943 54.745 45.296C55.2072 44.6182 55.5614 43.5245 55.8079 42.0149L62.0928 43.6323C61.5691 46.8364 60.5524 49.1778 59.0428 50.6567C57.5332 52.1355 55.4382 52.8749 52.7579 52.8749ZM62.1448 52.3203V21.8199H77.5799V28.2435H69.3078V33.4193H75.4079V39.427H69.3078V45.8505H78.042V52.3203H62.1448ZM78.7886 52.3203V21.8199H85.9516V33.1882H91.6358V21.8199H98.7987V52.3203H91.6358V39.7042H85.9516V52.3203H78.7886ZM104.429 52.3203V28.3359H98.5601V21.8199H117.461V28.3359H111.592V52.3203H104.429ZM126.802 21.8199H135.952V52.3203H128.789V43.0778H127.079L123.29 52.3203H115.804L120.471 41.2755C119.146 40.3204 118.099 39.0727 117.329 37.5322C116.589 35.9918 116.22 34.2974 116.22 32.4488C116.22 29.1215 117.144 26.5182 118.992 24.6389C120.872 22.7596 123.475 21.8199 126.802 21.8199ZM128.789 36.6542V28.2435H126.756C124.599 28.2435 123.521 29.6453 123.521 32.4488C123.521 35.2524 124.599 36.6542 126.756 36.6542H128.789ZM137.069 52.3203V21.8199H154.029V28.2435H144.232V34.0201H147.744C150.394 34.0201 152.504 34.8365 154.075 36.4693C155.647 38.1022 156.432 40.2896 156.432 43.0316C156.432 45.8043 155.616 48.0533 153.983 49.7786C152.381 51.4731 150.301 52.3203 147.744 52.3203H137.069ZM144.232 46.3127H146.727C147.59 46.3127 148.252 46.0354 148.715 45.4808C149.177 44.8955 149.408 44.079 149.408 43.0316C149.408 41.9841 149.177 41.183 148.715 40.6285C148.252 40.0431 147.59 39.7505 146.727 39.7505H144.232V46.3127ZM156.285 52.3203V21.8199H165.435C168.793 21.8199 171.397 22.7288 173.245 24.5465C175.094 26.3642 176.018 28.9213 176.018 32.2178C176.018 35.4835 175.078 38.0406 173.199 39.8891C171.351 41.7068 168.763 42.6156 165.435 42.6156H163.448V52.3203H156.285ZM163.448 36.1921H165.482C167.638 36.1921 168.716 34.8673 168.716 32.2178C168.716 29.5682 167.638 28.2435 165.482 28.2435H163.448V36.1921ZM185.444 21.8199H194.594V52.3203H187.431V43.0778H185.721L181.931 52.3203H174.445L179.112 41.2755C177.788 40.3204 176.74 39.0727 175.97 37.5322C175.231 35.9918 174.861 34.2974 174.861 32.4488C174.861 29.1215 175.785 26.5182 177.634 24.6389C179.513 22.7596 182.116 21.8199 185.444 21.8199ZM187.431 36.6542V28.2435H185.397C183.241 28.2435 182.163 29.6453 182.163 32.4488C182.163 35.2524 183.241 36.6542 185.397 36.6542H187.431Z" fill="black"></path></g><defs><filter id="filter0_dd_2096_227" x="1.00136e-05" y="-5.10216e-05" width="219.641" height="75.6407" filterUnits="userSpaceOnUse" color-interpolation-filters="sRGB"><feFlood flood-opacity="0" result="BackgroundImageFix"></feFlood><feColorMatrix in="SourceAlpha" type="matrix" values="0 0 0 0 0 0 0 0 0 0 0 0 0 0 0 0 0 0 127 0" result="hardAlpha"></feColorMatrix><feMorphology radius="0.660182" operator="dilate" in="SourceAlpha" result="effect1_dropShadow_2096_227"></feMorphology><feOffset></feOffset><feGaussianBlur stdDeviation="0.330091"></feGaussianBlur><feColorMatrix type="matrix" values="0 0 0 0 0.0352941 0 0 0 0 0.117647 0 0 0 0 0.258824 0 0 0 0.13 0"></feColorMatrix><feBlend mode="normal" in2="BackgroundImageFix" result="effect1_dropShadow_2096_227"></feBlend><feColorMatrix in="SourceAlpha" type="matrix" values="0 0 0 0 0 0 0 0 0 0 0 0 0 0 0 0 0 0 127 0" result="hardAlpha"></feColorMatrix><feOffset dy="0.660182"></feOffset><feGaussianBlur stdDeviation="0.330091"></feGaussianBlur><feColorMatrix type="matrix" values="0 0 0 0 0.0352941 0 0 0 0 0.117647 0 0 0 0 0.258824 0 0 0 0.25 0"></feColorMatrix><feBlend mode="normal" in2="effect1_dropShadow_2096_227" result="effect2_dropShadow_2096_227"></feBlend><feBlend mode="normal" in="SourceGraphic" in2="effect2_dropShadow_2096_227" result="shape"></feBlend></filter></defs></svg> 