<?xml version="1.0" encoding="UTF-8"?> <svg xmlns="http://www.w3.org/2000/svg" id="_Слой_2" data-name="Слой 2" viewBox="0 0 766.92 766.32"><defs><style> .cls-1 { fill: #fff; } </style></defs><g id="_Слой_1-2" data-name="Слой 1"><g><path d="M310,651.79c-8.98,3.65-14.4,5.43-23.11,8.88L22.93,765.12c-6.4,2.53-13.41.84-17.51-2.93-3.82-3.51-7.18-11.34-4.38-17.65l202.56-455.71c6.91-15.55,19.27-25.68,33.06-29,17.29-4.16,34.42-.28,47.04,12.3l225.44,224.69c12.8,12.76,16.84,29.74,12.58,47.87-3.46,14.75-15.09,27.07-31.83,33.88l-179.9,73.23ZM277.44,628.2v-315.92s-17.31-17.47-17.31-17.47c-2.85-2.87-12.01-4.52-16.35-3.07-3.4,1.13-8.09,5.65-9.93,9.79l-12.92,29.17v319.89s56.52-22.39,56.52-22.39ZM366.07,592.4l-.07-192.05-55.52-54.57-.08,269.06,55.67-22.44ZM124.24,689.27l63.9-25.35-.27-258.42-64.03,143.66.39,140.11ZM479.75,547.29c4.93-1.96,9.68-7.55,10.5-11.58,1.02-5.01-1.2-12.73-4.96-16.47l-86.15-85.57-.23,145.79,80.85-32.17ZM91.45,702.57l-.92-77.07-42.07,93.92,42.99-16.85Z"></path><path d="M488.82,296.67c-14.58,3.33-22.37,22.47-37.97,10.01-5.48-4.38-8.48-14.92-2.41-22.15,22.9-27.25,52.37-12.71,60.83-47.39,6.11-25.06,25.49-44,50.38-50.05,13.51-3.28,23.59-13.4,26.85-26.84,6.19-25.49,25.56-44.66,51.28-50.93,15.99-3.9,24.32-23.04,39.12-10.15,6.79,5.91,7.72,16.57,1.01,23.59-24.22,25.32-51.47,12.58-59.48,45.25-6.24,25.47-25.59,44.84-51.21,51.05-12.52,3.04-22.82,12.66-25.85,25.25-6.36,26.4-25.72,46.22-52.56,52.36Z"></path><path d="M534.77,436.42c-15.58-2.54-31.3,13.87-40.45-5.1-3.52-7.3-.89-17.01,7.76-21.56,30.43-15.99,53.82,7.41,66.3-21.5,10.87-25.18,37.05-39.08,64.08-34.48,12.81,2.18,24-4.46,29.12-16.06,11.04-25.02,36.64-38.78,64.04-34.23,14.11,2.34,31.06-13.45,39.55,4.27,3.93,8.21,1.19,17.79-7.54,22.33-30.46,15.84-53.99-7.04-66.23,21.23-10.94,25.28-37.11,39.56-64.41,34.85-12.7-2.19-23.81,4.33-28.87,15.8-10.9,24.75-36.14,38.9-63.36,34.46Z"></path><path d="M351.92,237.44c-12.94,7.91-11.24,27.97-30.77,22.3-6.7-1.94-13-10.25-10.75-19.07,8.44-33.04,43.78-30.33,32.82-56.95-10.22-24.82-1.65-52.77,21.57-66.8,8.81-5.32,13.8-15.69,9.64-25.87-10.36-25.35-2.25-53.42,21.67-67.88,12.51-7.56,10.92-27.91,30.57-22.16,7.52,2.2,13.33,11.21,10.36,20.62-10.21,32.42-43.38,29.14-32.53,55.76,10.3,25.25,1.16,53.21-22.24,67.19-9.67,5.77-12.73,16.68-8.6,26.96,9.96,24.78,1.06,51.96-21.74,65.9Z"></path><path d="M499.95,184.63c0,27.14-22,49.14-49.14,49.14s-49.14-22-49.14-49.14,22-49.14,49.14-49.14,49.14,22,49.14,49.14ZM467.09,184.64c0-8.99-7.29-16.29-16.29-16.29s-16.29,7.29-16.29,16.29,7.29,16.29,16.29,16.29,16.29-7.29,16.29-16.29Z"></path><path d="M696.75,250.23c0,27.14-22,49.14-49.14,49.14s-49.14-22-49.14-49.14,22-49.14,49.14-49.14,49.14,22,49.14,49.14ZM663.88,250.24c0-8.99-7.29-16.29-16.29-16.29s-16.29,7.29-16.29,16.29,7.29,16.29,16.29,16.29,16.29-7.29,16.29-16.29Z"></path><path d="M663.95,479.83c0,27.14-22,49.14-49.14,49.14s-49.14-22-49.14-49.14,22-49.14,49.14-49.14,49.14,22,49.14,49.14ZM631.08,479.84c0-8.99-7.29-16.29-16.29-16.29s-16.29,7.29-16.29,16.29,7.29,16.29,16.29,16.29,16.29-7.29,16.29-16.29Z"></path><circle cx="484.18" cy="381.39" r="16.33"></circle><path class="cls-1" d="M277.44,628.2l-56.51,22.39v-319.89s12.92-29.17,12.92-29.17c1.84-4.15,6.53-8.66,9.93-9.79,4.34-1.44,13.51.2,16.35,3.07l17.31,17.47v315.92Z"></path><polygon class="cls-1" points="366.07 592.4 310.4 614.84 310.48 345.78 366 400.35 366.07 592.4"></polygon><polygon class="cls-1" points="124.24 689.27 123.85 549.16 187.88 405.5 188.15 663.92 124.24 689.27"></polygon><path class="cls-1" d="M479.75,547.29l-80.85,32.17.23-145.79,86.15,85.57c3.77,3.74,5.98,11.46,4.96,16.47-.82,4.02-5.57,9.62-10.5,11.58Z"></path><polygon class="cls-1" points="91.45 702.57 48.47 719.42 90.53 625.5 91.45 702.57"></polygon><circle class="cls-1" cx="450.8" cy="184.64" r="16.29"></circle><circle class="cls-1" cx="647.6" cy="250.24" r="16.29"></circle><circle class="cls-1" cx="614.8" cy="479.84" r="16.29"></circle></g></g></svg> 