<?xml version="1.0" encoding="UTF-8"?> <svg xmlns="http://www.w3.org/2000/svg" width="232" height="76" viewBox="0 0 232 76" fill="none"><g filter="url(#filter0_dd_2090_196)"><rect x="1.32037" y="1.32031" width="229" height="73" rx="36.5" fill="#EFB23F"></rect><path d="M29.5591 52.3203V28.3359H23.6901V21.8199H42.5911V28.3359H36.7221V52.3203H29.5591ZM61.7141 43.6323C61.7141 46.1586 60.8515 48.2382 59.1262 49.871C57.4009 51.5039 55.2289 52.3203 52.6102 52.3203H42.351V21.8199H50.7617C53.7193 21.8199 56.0454 22.5901 57.7398 24.1306C59.4651 25.671 60.3277 27.7968 60.3277 30.5079C60.3277 33.0958 59.4959 35.0984 57.8323 36.5156C60.4202 38.0868 61.7141 40.459 61.7141 43.6323ZM50.6693 27.6889H49.0518V34.0201H50.6231C52.564 34.0201 53.5345 32.9726 53.5345 30.8776C53.5345 28.7518 52.5794 27.6889 50.6693 27.6889ZM54.9209 43.0778C54.9209 40.7979 53.858 39.658 51.7322 39.658H49.0518V46.4513H51.7322C53.858 46.4513 54.9209 45.3268 54.9209 43.0778ZM60.6891 36.9777C60.6891 31.6478 61.5364 27.7043 63.2308 25.1472C64.9253 22.5593 67.5132 21.2654 70.9946 21.2654C74.5375 21.2654 77.1563 22.5439 78.8507 25.101C80.5452 27.6581 81.3924 31.6016 81.3924 36.9315C81.3924 47.5604 77.9265 52.8749 70.9946 52.8749C67.5132 52.8749 64.9253 51.5809 63.2308 48.993C61.5364 46.3743 60.6891 42.3692 60.6891 36.9777ZM74.137 37.0701C74.137 33.6196 73.906 31.2319 73.4438 29.9071C72.9817 28.5516 72.1653 27.8738 70.9946 27.8738C69.8239 27.8738 69.0228 28.5208 68.5915 29.8147C68.1602 31.1087 67.9445 33.4963 67.9445 36.9777C67.9445 40.459 68.1602 42.8775 68.5915 44.2331C69.0536 45.5887 69.8547 46.2664 70.9946 46.2664C72.1653 46.2664 72.9817 45.5887 73.4438 44.2331C73.906 42.8775 74.137 40.4899 74.137 37.0701ZM97.9539 21.8199H101.651V52.3203H94.488V38.5027L85.3841 52.3203H81.6408V21.8199H88.85V35.4065L97.9539 21.8199ZM85.1068 12.2077V10.2667H90.3288V12.2539C90.3288 13.1781 90.8218 13.6403 91.8076 13.6403C92.7319 13.6403 93.194 13.1781 93.194 12.2539V10.2667H98.4623V12.2077C98.4623 14.2718 97.8769 15.8739 96.7062 17.0138C95.5663 18.1229 93.9334 18.6774 91.8076 18.6774C89.6818 18.6774 88.0336 18.1229 86.8629 17.0138C85.6921 15.8739 85.1068 14.2718 85.1068 12.2077ZM109.693 52.3203V21.8199H126.653V28.2435H116.856V34.0201H120.369C123.018 34.0201 125.128 34.8365 126.7 36.4693C128.271 38.1022 129.057 40.2896 129.057 43.0316C129.057 45.8043 128.24 48.0533 126.607 49.7786C125.005 51.4731 122.926 52.3203 120.369 52.3203H109.693ZM116.856 46.3127H119.352C120.214 46.3127 120.877 46.0354 121.339 45.4808C121.801 44.8955 122.032 44.079 122.032 43.0316C122.032 41.9841 121.801 41.183 121.339 40.6285C120.877 40.0431 120.214 39.7505 119.352 39.7505H116.856V46.3127ZM128.032 36.9777C128.032 31.6478 128.879 27.7043 130.573 25.1472C132.268 22.5593 134.856 21.2654 138.337 21.2654C141.88 21.2654 144.499 22.5439 146.193 25.101C147.888 27.6581 148.735 31.6016 148.735 36.9315C148.735 47.5604 145.269 52.8749 138.337 52.8749C134.856 52.8749 132.268 51.5809 130.573 48.993C128.879 46.3743 128.032 42.3692 128.032 36.9777ZM141.479 37.0701C141.479 33.6196 141.248 31.2319 140.786 29.9071C140.324 28.5516 139.508 27.8738 138.337 27.8738C137.166 27.8738 136.365 28.5208 135.934 29.8147C135.503 31.1087 135.287 33.4963 135.287 36.9777C135.287 40.459 135.503 42.8775 135.934 44.2331C136.396 45.5887 137.197 46.2664 138.337 46.2664C139.508 46.2664 140.324 45.5887 140.786 44.2331C141.248 42.8775 141.479 40.4899 141.479 37.0701ZM148.983 52.3203V21.8199H156.146V33.1882H161.83V21.8199H168.993V52.3203H161.83V39.7042H156.146V52.3203H148.983ZM182.526 21.8199H189.92L182.988 44.6952C182.095 47.6836 181.001 49.794 179.707 51.0264C178.444 52.2279 176.703 52.8287 174.485 52.8287C173.314 52.8287 172.174 52.6746 171.065 52.3665V46.2664C172.236 46.3281 172.852 46.3589 172.914 46.3589C174.239 46.3589 175.194 45.8351 175.779 44.7876L167.83 21.8199H175.502L179.199 34.2973L182.526 21.8199ZM197.516 52.8749C190.769 52.8749 187.395 47.6066 187.395 37.0701C187.395 26.5336 190.769 21.2654 197.516 21.2654C200.196 21.2654 202.291 22.0048 203.801 23.4836C205.31 24.9624 206.327 27.3038 206.851 30.5079L200.566 32.1254C200.319 30.6157 199.965 29.5374 199.503 28.8905C199.041 28.2127 198.409 27.8738 197.608 27.8738C196.53 27.8738 195.76 28.567 195.297 29.9534C194.866 31.3089 194.65 33.6812 194.65 37.0701C194.65 40.459 194.866 42.8467 195.297 44.2331C195.76 45.5887 196.53 46.2664 197.608 46.2664C198.409 46.2664 199.041 45.943 199.503 45.296C199.965 44.6182 200.319 43.5245 200.566 42.0149L206.851 43.6323C206.327 46.8364 205.31 49.1778 203.801 50.6567C202.291 52.1355 200.196 52.8749 197.516 52.8749Z" fill="black"></path></g><defs><filter id="filter0_dd_2090_196" x="1.00136e-05" y="-5.10216e-05" width="231.641" height="75.6407" filterUnits="userSpaceOnUse" color-interpolation-filters="sRGB"><feFlood flood-opacity="0" result="BackgroundImageFix"></feFlood><feColorMatrix in="SourceAlpha" type="matrix" values="0 0 0 0 0 0 0 0 0 0 0 0 0 0 0 0 0 0 127 0" result="hardAlpha"></feColorMatrix><feMorphology radius="0.660182" operator="dilate" in="SourceAlpha" result="effect1_dropShadow_2090_196"></feMorphology><feOffset></feOffset><feGaussianBlur stdDeviation="0.330091"></feGaussianBlur><feColorMatrix type="matrix" values="0 0 0 0 0.0352941 0 0 0 0 0.117647 0 0 0 0 0.258824 0 0 0 0.13 0"></feColorMatrix><feBlend mode="normal" in2="BackgroundImageFix" result="effect1_dropShadow_2090_196"></feBlend><feColorMatrix in="SourceAlpha" type="matrix" values="0 0 0 0 0 0 0 0 0 0 0 0 0 0 0 0 0 0 127 0" result="hardAlpha"></feColorMatrix><feOffset dy="0.660182"></feOffset><feGaussianBlur stdDeviation="0.330091"></feGaussianBlur><feColorMatrix type="matrix" values="0 0 0 0 0.0352941 0 0 0 0 0.117647 0 0 0 0 0.258824 0 0 0 0.25 0"></feColorMatrix><feBlend mode="normal" in2="effect1_dropShadow_2090_196" result="effect2_dropShadow_2090_196"></feBlend><feBlend mode="normal" in="SourceGraphic" in2="effect2_dropShadow_2090_196" result="shape"></feBlend></filter></defs></svg> 