<?xml version="1.0" encoding="UTF-8"?> <svg xmlns="http://www.w3.org/2000/svg" id="_Слой_2" data-name="Слой 2" viewBox="0 0 988.2 522.51"><defs><style> .cls-1 { fill: #fff; } .cls-1, .cls-2 { stroke: #000; stroke-linecap: round; stroke-linejoin: round; stroke-width: 13.25px; } </style></defs><g id="_Слой_1-2" data-name="Слой 1"><g><path class="cls-1" d="M356.03,464.74l47.87,29.66c25.11,15.56,52.4,22.23,82.37,21.41,129.84-3.56,330.44-19.61,436.64-99.35,23.12-17.36,40.65-38.59,52.18-64.56,13.25-29.85,5.93-60.93-19.75-81.14-24.04-18.92-52.2-27.35-82.77-32.04-84.68-13.01-207.59-69.34-285.87-108.65-70.74-35.52-138.32-73.41-206.29-113.36-15.17-8.92-31.13-12.73-48.24-8.09-23.97,6.5-43.19,21.51-56.11,42.84-24.21,39.96-60.09,70.77-104.89,85.79-30.44,10.21-63.98-3.38-80.06-30.45l-25.82-43.46c-3.96-6.66-12.92-9.8-19.36-8.14-7.55,1.95-12.38,7.57-14.05,15.64C6.15,194.78-4.03,327.41,21.09,452.26c3.66,18.21,15.58,32.59,34.01,36.72,50.34,11.28,101.14,14.62,152.66,8.87,19.32-2.16,37.65-7.35,55.36-14.63l53.96-22.18c12.64-5.19,26.63-3.94,38.96,3.7Z"></path><path class="cls-2" d="M356.03,464.74c-12.33-7.64-26.32-8.89-38.96-3.7l-53.96,22.18c-17.71,7.28-36.04,12.47-55.36,14.63-51.51,5.75-102.31,2.41-152.66-8.87-18.43-4.13-30.34-18.51-34.01-36.72C-4.03,327.41,6.15,194.78,31.88,70.84c1.67-8.07,6.5-13.69,14.05-15.64,6.44-1.66,15.4,1.48,19.36,8.14l25.82,43.46c16.09,27.07,49.63,40.66,80.06,30.45,44.8-15.02,80.68-45.84,104.89-85.79,12.93-21.33,32.14-36.34,56.11-42.84,17.11-4.64,33.07-.82,48.24,8.09,67.97,39.95,135.55,77.84,206.29,113.36,78.28,39.31,201.19,95.64,285.87,108.65,30.56,4.69,58.73,13.12,82.77,32.04,25.68,20.22,33,51.3,19.75,81.14-11.53,25.98-29.06,47.2-52.18,64.56-106.2,79.74-306.8,95.79-436.64,99.35-29.97.82-57.26-5.85-82.37-21.41l-47.87-29.66ZM40.25,195.6c91.67,32.79,181.1,36.71,254.85-31.42,35.48-32.46,61.39-71.96,81.71-116.47-9.01-6.33-18.92-13.65-29.64-13.05-19.1,1.08-36.01,13.07-45.99,29.47-27.95,45.91-68.65,81.48-119.93,99.14-44.69,15.39-92.78-4.58-115.79-44.94-3.47-6.09-6.36-10.48-10.94-17.08-6.23,31.86-10.48,61.2-14.27,94.34ZM684.94,206.93l-19.38,40.24c-3.62,7.51-11.32,10.43-18.93,7.27-4.89-2.03-10.02-10.59-6.99-17.08l19.48-41.73-66.37-31.27-23.57,40.93c-4.17,7.24-12.65,9.44-19.46,5.49-5.45-3.16-8.81-11.58-5.19-18.07l22.82-40.97-67.57-35.39-28.55,55.56c-4.19,8.15-12.69,11.67-20.67,6.84-6.1-3.69-8.24-12.58-3.96-19.7l28.46-56.11-73.65-41.49c-21.54,46.09-48.57,87.76-85.69,121.77-42.46,39.73-95.31,62.38-153.72,63.11-43.28-.17-83.67-7.79-124.37-21.68-3.28,42.37-3.9,82.38-1.85,124.47l148.48,17.24,249.5,16.33c137.31,4.22,277.57.13,411.91-27.87,37.33-7.78,72.31-17.43,107.91-30.95,3.95-31.25-45.54-50.5-68.86-54.46-78.79-13.39-125.4-31.97-199.77-62.49ZM308.34,434.58c20.19-8.26,43.17-5.34,60.9,5.61l49.9,30.83c21.04,13,43.5,17.62,68.35,16.9,109.02-3.16,238.37-14.98,341.07-53.24,36.99-13.78,88.93-39.35,110.46-75.49-151.87,47.44-335.51,56.79-493.1,51.54-90.99-3.03-179.56-7.11-269.59-17.28l-138.17-15.6c2.49,24.2,6.08,47.22,10.67,70.77,1.43,7.31,7.25,12.34,14.52,13.85,46.06,9.68,91.78,12.97,138.82,8.04,17.89-1.88,34.61-6.64,50.85-13.29l55.31-22.63Z"></path><path class="cls-1" d="M684.94,206.93c74.37,30.52,120.98,49.1,199.77,62.49,23.32,3.96,72.81,23.21,68.86,54.46-35.59,13.52-70.58,23.17-107.91,30.95-134.34,27.99-274.6,32.09-411.91,27.87l-249.5-16.33-148.48-17.24c-2.05-42.09-1.43-82.1,1.85-124.47,40.7,13.89,81.09,21.52,124.37,21.68,58.41-.73,111.26-23.38,153.72-63.11,37.12-34.01,64.14-75.68,85.69-121.77l73.65,41.49-28.46,56.11c-4.29,7.12-2.15,16.01,3.96,19.7,7.98,4.83,16.48,1.31,20.67-6.84l28.55-55.56,67.57,35.39-22.82,40.97c-3.62,6.5-.25,14.91,5.19,18.07,6.81,3.95,15.29,1.75,19.46-5.49l23.57-40.93,66.37,31.27-19.48,41.73c-3.03,6.49,2.1,15.05,6.99,17.08,7.62,3.16,15.32.24,18.93-7.27l19.38-40.24Z"></path><path class="cls-1" d="M308.34,434.58l-55.31,22.63c-16.24,6.65-32.97,11.41-50.85,13.29-47.04,4.94-92.76,1.64-138.82-8.04-7.28-1.5-13.1-6.54-14.52-13.85-4.59-23.56-8.19-46.58-10.67-70.77l138.17,15.6c90.03,10.17,178.6,14.24,269.59,17.28,157.59,5.25,341.22-4.1,493.1-51.54-21.53,36.14-73.47,61.71-110.46,75.49-102.7,38.26-232.05,50.08-341.07,53.24-24.85.72-47.31-3.9-68.35-16.9l-49.9-30.83c-17.73-10.96-40.71-13.87-60.9-5.61Z"></path><path class="cls-1" d="M40.25,195.6c3.8-33.14,8.04-62.49,14.27-94.34,4.57,6.6,7.47,10.99,10.94,17.08,23.01,40.36,71.09,60.33,115.79,44.94,51.28-17.66,91.97-53.23,119.93-99.14,9.98-16.4,26.89-28.39,45.99-29.47,10.72-.6,20.63,6.72,29.64,13.05-20.33,44.51-46.23,84.01-81.71,116.47-73.75,68.13-163.17,64.2-254.85,31.42Z"></path></g></g></svg> 