<?xml version="1.0" encoding="UTF-8"?> <svg xmlns="http://www.w3.org/2000/svg" width="226" height="76" viewBox="0 0 226 76" fill="none"><g filter="url(#filter0_dd_2096_225)"><rect x="1.32037" y="1.32031" width="223" height="73" rx="36.5" fill="#76BEE9"></rect><path d="M25.0302 52.3203V21.8199H32.1932V33.1882H37.8774V21.8199H45.0404V52.3203H37.8774V39.7042H32.1932V52.3203H25.0302ZM45.2638 36.9777C45.2638 31.6478 46.1111 27.7043 47.8055 25.1472C49.5 22.5593 52.0879 21.2654 55.5693 21.2654C59.1122 21.2654 61.731 22.5439 63.4254 25.101C65.1199 27.6581 65.9671 31.6016 65.9671 36.9315C65.9671 47.5604 62.5012 52.8749 55.5693 52.8749C52.0879 52.8749 49.5 51.5809 47.8055 48.993C46.1111 46.3743 45.2638 42.3692 45.2638 36.9777ZM58.7117 37.0701C58.7117 33.6196 58.4807 31.2319 58.0185 29.9071C57.5564 28.5516 56.74 27.8738 55.5693 27.8738C54.3985 27.8738 53.5975 28.5208 53.1662 29.8147C52.7349 31.1087 52.5192 33.4963 52.5192 36.9777C52.5192 40.459 52.7349 42.8775 53.1662 44.2331C53.6283 45.5887 54.4294 46.2664 55.5693 46.2664C56.74 46.2664 57.5564 45.5887 58.0185 44.2331C58.4807 42.8775 58.7117 40.4899 58.7117 37.0701ZM85.5787 43.6323C85.5787 46.1586 84.716 48.2382 82.9907 49.871C81.2655 51.5039 79.0935 52.3203 76.4748 52.3203H66.2155V21.8199H74.6262C77.5839 21.8199 79.9099 22.5901 81.6044 24.1306C83.3296 25.671 84.1923 27.7968 84.1923 30.5079C84.1923 33.0958 83.3604 35.0984 81.6968 36.5156C84.2847 38.0868 85.5787 40.459 85.5787 43.6323ZM74.5338 27.6889H72.9164V34.0201H74.4876C76.4285 34.0201 77.399 32.9726 77.399 30.8776C77.399 28.7518 76.4439 27.6889 74.5338 27.6889ZM78.7854 43.0778C78.7854 40.7979 77.7225 39.658 75.5967 39.658H72.9164V46.4513H75.5967C77.7225 46.4513 78.7854 45.3268 78.7854 43.0778ZM85.4317 52.3203V21.8199H92.5947V31.5246H94.5818C97.9092 31.5246 100.497 32.4488 102.346 34.2973C104.225 36.115 105.165 38.6567 105.165 41.9224C105.165 45.219 104.24 47.7761 102.392 49.5938C100.543 51.4115 97.94 52.3203 94.5818 52.3203H85.4317ZM92.5947 45.8967H94.628C96.7846 45.8967 97.8629 44.572 97.8629 41.9224C97.8629 39.2729 96.7846 37.9482 94.628 37.9482H92.5947V45.8967ZM107.059 52.3203V21.8199H114.222V52.3203H107.059ZM131.657 21.8199H135.354V52.3203H128.191V38.5027L119.087 52.3203H115.344V21.8199H122.553V35.4065L131.657 21.8199ZM118.81 12.2077V10.2667H124.032V12.2539C124.032 13.1781 124.525 13.6403 125.51 13.6403C126.435 13.6403 126.897 13.1781 126.897 12.2539V10.2667H132.165V12.2077C132.165 14.2718 131.58 15.8739 130.409 17.0138C129.269 18.1229 127.636 18.6774 125.51 18.6774C123.385 18.6774 121.736 18.1229 120.566 17.0138C119.395 15.8739 118.81 14.2718 118.81 12.2077ZM143.396 52.3203V21.8199H158.323V28.2897H150.559V52.3203H143.396ZM156.815 36.9777C156.815 31.6478 157.662 27.7043 159.357 25.1472C161.051 22.5593 163.639 21.2654 167.121 21.2654C170.664 21.2654 173.282 22.5439 174.977 25.101C176.671 27.6581 177.519 31.6016 177.519 36.9315C177.519 47.5604 174.053 52.8749 167.121 52.8749C163.639 52.8749 161.051 51.5809 159.357 48.993C157.662 46.3743 156.815 42.3692 156.815 36.9777ZM170.263 37.0701C170.263 33.6196 170.032 31.2319 169.57 29.9071C169.108 28.5516 168.291 27.8738 167.121 27.8738C165.95 27.8738 165.149 28.5208 164.718 29.8147C164.286 31.1087 164.071 33.4963 164.071 36.9777C164.071 40.459 164.286 42.8775 164.718 44.2331C165.18 45.5887 165.981 46.2664 167.121 46.2664C168.291 46.2664 169.108 45.5887 169.57 44.2331C170.032 42.8775 170.263 40.4899 170.263 37.0701ZM198.112 45.8043H200.839V58.8363H193.676V52.3203H183.278V58.8363H176.115V45.8043H177.964C178.795 44.4487 179.273 40.1818 179.396 33.0034L179.535 21.8199H198.112V45.8043ZM184.572 45.8043H190.949V28.3359H186.236L186.19 33.0496C186.159 38.8416 185.62 43.0932 184.572 45.8043Z" fill="black"></path></g><defs><filter id="filter0_dd_2096_225" x="1.00136e-05" y="-5.10216e-05" width="225.641" height="75.6407" filterUnits="userSpaceOnUse" color-interpolation-filters="sRGB"><feFlood flood-opacity="0" result="BackgroundImageFix"></feFlood><feColorMatrix in="SourceAlpha" type="matrix" values="0 0 0 0 0 0 0 0 0 0 0 0 0 0 0 0 0 0 127 0" result="hardAlpha"></feColorMatrix><feMorphology radius="0.660182" operator="dilate" in="SourceAlpha" result="effect1_dropShadow_2096_225"></feMorphology><feOffset></feOffset><feGaussianBlur stdDeviation="0.330091"></feGaussianBlur><feColorMatrix type="matrix" values="0 0 0 0 0.0352941 0 0 0 0 0.117647 0 0 0 0 0.258824 0 0 0 0.13 0"></feColorMatrix><feBlend mode="normal" in2="BackgroundImageFix" result="effect1_dropShadow_2096_225"></feBlend><feColorMatrix in="SourceAlpha" type="matrix" values="0 0 0 0 0 0 0 0 0 0 0 0 0 0 0 0 0 0 127 0" result="hardAlpha"></feColorMatrix><feOffset dy="0.660182"></feOffset><feGaussianBlur stdDeviation="0.330091"></feGaussianBlur><feColorMatrix type="matrix" values="0 0 0 0 0.0352941 0 0 0 0 0.117647 0 0 0 0 0.258824 0 0 0 0.25 0"></feColorMatrix><feBlend mode="normal" in2="effect1_dropShadow_2096_225" result="effect2_dropShadow_2096_225"></feBlend><feBlend mode="normal" in="SourceGraphic" in2="effect2_dropShadow_2096_225" result="shape"></feBlend></filter></defs></svg> 