<?xml version="1.0" encoding="UTF-8"?> <svg xmlns="http://www.w3.org/2000/svg" width="176" height="76" viewBox="0 0 176 76" fill="none"><g filter="url(#filter0_dd_2092_211)"><rect x="1.32036" y="1.32031" width="173" height="73" rx="36.5" fill="#CBD13F"></rect><path d="M34.2728 52.8749C27.5257 52.8749 24.1522 47.6066 24.1522 37.0701C24.1522 26.5336 27.5257 21.2654 34.2728 21.2654C36.9531 21.2654 39.0481 22.0048 40.5577 23.4836C42.0673 24.9624 43.084 27.3038 43.6077 30.5079L37.3228 32.1254C37.0764 30.6157 36.7221 29.5374 36.2599 28.8905C35.7978 28.2127 35.1662 27.8738 34.3652 27.8738C33.2869 27.8738 32.5167 28.567 32.0546 29.9534C31.6233 31.3089 31.4076 33.6812 31.4076 37.0701C31.4076 40.459 31.6233 42.8467 32.0546 44.2331C32.5167 45.5887 33.2869 46.2664 34.3652 46.2664C35.1662 46.2664 35.7978 45.943 36.2599 45.296C36.7221 44.6182 37.0764 43.5245 37.3228 42.0149L43.6077 43.6323C43.084 46.8364 42.0673 49.1778 40.5577 50.6567C39.0481 52.1355 36.9531 52.8749 34.2728 52.8749ZM65.2873 52.3203H57.4311L50.8227 37.8095V52.3203H43.6597V21.8199H50.8227V34.8057L56.969 21.8199H64.8252L57.8933 36.2845L65.2873 52.3203ZM80.9039 21.8199H84.601V52.3203H77.438V38.5027L68.3341 52.3203H64.5909V21.8199H71.8V35.4065L80.9039 21.8199ZM106.544 45.8043H109.271V58.8363H102.108V52.3203H91.7101V58.8363H84.5472V45.8043H86.3957C87.2275 44.4487 87.705 40.1818 87.8283 33.0034L87.9669 21.8199H106.544V45.8043ZM93.0041 45.8043H99.3814V28.3359H94.6678L94.6215 33.0496C94.5907 38.8416 94.0516 43.0932 93.0041 45.8043ZM130.834 52.3203H122.977L116.369 37.8095V52.3203H109.206V21.8199H116.369V34.8057L122.515 21.8199H130.371L123.44 36.2845L130.834 52.3203ZM146.45 21.8199H150.147V52.3203H142.984V38.5027L133.88 52.3203H130.137V21.8199H137.346V35.4065L146.45 21.8199Z" fill="black"></path></g><defs><filter id="filter0_dd_2092_211" x="4.76837e-07" y="-5.10216e-05" width="175.641" height="75.6407" filterUnits="userSpaceOnUse" color-interpolation-filters="sRGB"><feFlood flood-opacity="0" result="BackgroundImageFix"></feFlood><feColorMatrix in="SourceAlpha" type="matrix" values="0 0 0 0 0 0 0 0 0 0 0 0 0 0 0 0 0 0 127 0" result="hardAlpha"></feColorMatrix><feMorphology radius="0.660182" operator="dilate" in="SourceAlpha" result="effect1_dropShadow_2092_211"></feMorphology><feOffset></feOffset><feGaussianBlur stdDeviation="0.330091"></feGaussianBlur><feColorMatrix type="matrix" values="0 0 0 0 0.0352941 0 0 0 0 0.117647 0 0 0 0 0.258824 0 0 0 0.13 0"></feColorMatrix><feBlend mode="normal" in2="BackgroundImageFix" result="effect1_dropShadow_2092_211"></feBlend><feColorMatrix in="SourceAlpha" type="matrix" values="0 0 0 0 0 0 0 0 0 0 0 0 0 0 0 0 0 0 127 0" result="hardAlpha"></feColorMatrix><feOffset dy="0.660182"></feOffset><feGaussianBlur stdDeviation="0.330091"></feGaussianBlur><feColorMatrix type="matrix" values="0 0 0 0 0.0352941 0 0 0 0 0.117647 0 0 0 0 0.258824 0 0 0 0.25 0"></feColorMatrix><feBlend mode="normal" in2="effect1_dropShadow_2092_211" result="effect2_dropShadow_2092_211"></feBlend><feBlend mode="normal" in="SourceGraphic" in2="effect2_dropShadow_2092_211" result="shape"></feBlend></filter></defs></svg> 