<?xml version="1.0" encoding="UTF-8"?> <svg xmlns="http://www.w3.org/2000/svg" width="357" height="76" viewBox="0 0 357 76" fill="none"><g filter="url(#filter0_dd_2092_213)"><rect x="1.32037" y="1.32031" width="354" height="73" rx="36.5" fill="#ED1C29"></rect><path d="M29.5591 52.3203V28.3359H23.6901V21.8199H42.5911V28.3359H36.7221V52.3203H29.5591ZM52.7149 52.3203L52.1141 49.3627H45.6906L45.0436 52.3203H37.7882L47.077 21.8199H50.774L60.0165 52.3203H52.7149ZM48.9255 34.8981L46.8921 43.771H50.9126L48.9255 34.8981ZM58.9948 52.3203V21.8199H68.1449C71.503 21.8199 74.1064 22.7288 75.9549 24.5465C77.8034 26.3642 78.7276 28.9213 78.7276 32.2178C78.7276 35.4835 77.788 38.0406 75.9086 39.8891C74.0601 41.7068 71.4722 42.6156 68.1449 42.6156H66.1578V52.3203H58.9948ZM66.1578 36.1921H68.1911C70.3477 36.1921 71.426 34.8673 71.426 32.2178C71.426 29.5682 70.3477 28.2435 68.1911 28.2435H66.1578V36.1921ZM95.0656 21.8199H98.7626V52.3203H91.5997V38.5027L82.4958 52.3203H78.7525V21.8199H85.9617V35.4065L95.0656 21.8199ZM115.808 49.3627V53.2446H108.645V49.3627C105.595 49.0854 103.222 47.8531 101.528 45.6657C99.8334 43.4783 98.9861 40.5669 98.9861 36.9315C98.9861 33.1728 99.8334 30.1998 101.528 28.0124C103.222 25.7942 105.595 24.5465 108.645 24.2692V20.8957H115.808V24.2692C118.858 24.5465 121.23 25.7942 122.924 28.0124C124.619 30.1998 125.466 33.1728 125.466 36.9315C125.466 40.5669 124.619 43.4783 122.924 45.6657C121.23 47.8531 118.858 49.0854 115.808 49.3627ZM109.107 43.1702V30.4617C107.782 30.5849 106.842 31.1241 106.288 32.0791C105.764 33.0342 105.502 34.6208 105.502 36.839C105.502 38.9956 105.779 40.5669 106.334 41.5527C106.889 42.5078 107.813 43.047 109.107 43.1702ZM118.95 36.839C118.95 34.6208 118.673 33.0342 118.118 32.0791C117.594 31.1241 116.67 30.5849 115.345 30.4617V43.1702C116.639 43.047 117.564 42.5078 118.118 41.5527C118.673 40.5669 118.95 38.9956 118.95 36.839ZM153.497 45.8043H156.224V58.8363H149.061V52.3203H138.663V58.8363H131.5V45.8043H133.349C134.18 44.4487 134.658 40.1818 134.781 33.0034L134.92 21.8199H153.497V45.8043ZM139.957 45.8043H146.334V28.3359H141.621L141.574 33.0496C141.544 38.8416 141.004 43.0932 139.957 45.8043ZM158.007 21.8199H176.215V52.3203H169.052V28.3359H164.754L164.662 33.0496C164.57 38.4719 164.354 42.554 164.015 45.296C163.676 47.9147 162.937 49.794 161.797 50.9339C160.688 52.043 158.947 52.5976 156.575 52.5976C155.928 52.5976 155.219 52.5206 154.449 52.3665V46.2664H155.142C155.912 46.2664 156.467 45.9584 156.806 45.3422C157.145 44.726 157.391 43.5091 157.545 41.6914C157.73 39.4116 157.838 36.5156 157.869 33.0034L158.007 21.8199ZM187.529 21.8199H196.679V52.3203H189.516V43.0778H187.806L184.016 52.3203H176.53L181.197 41.2755C179.873 40.3204 178.825 39.0727 178.055 37.5322C177.316 35.9918 176.946 34.2974 176.946 32.4488C176.946 29.1215 177.87 26.5182 179.719 24.6389C181.598 22.7596 184.201 21.8199 187.529 21.8199ZM189.516 36.6542V28.2435H187.482C185.326 28.2435 184.248 29.6453 184.248 32.4488C184.248 35.2524 185.326 36.6542 187.482 36.6542H189.516ZM217.537 52.3203L216.937 49.3627H210.513L209.866 52.3203H202.611L211.899 21.8199H215.596L224.839 52.3203H217.537ZM213.748 34.8981L211.714 43.771H215.735L213.748 34.8981ZM223.817 52.3203V21.8199H232.967C236.325 21.8199 238.929 22.7288 240.777 24.5465C242.626 26.3642 243.55 28.9213 243.55 32.2178C243.55 35.4835 242.61 38.0406 240.731 39.8891C238.883 41.7068 236.295 42.6156 232.967 42.6156H230.98V52.3203H223.817ZM230.98 36.1921H233.013C235.17 36.1921 236.248 34.8673 236.248 32.2178C236.248 29.5682 235.17 28.2435 233.013 28.2435H230.98V36.1921ZM248.104 52.3203V28.3359H242.235V21.8199H261.136V28.3359H255.267V52.3203H248.104ZM260.896 52.3203V21.8199H270.046C273.404 21.8199 276.007 22.7288 277.856 24.5465C279.704 26.3642 280.628 28.9213 280.628 32.2178C280.628 35.4835 279.689 38.0406 277.81 39.8891C275.961 41.7068 273.373 42.6156 270.046 42.6156H268.059V52.3203H260.896ZM268.059 36.1921H270.092C272.249 36.1921 273.327 34.8673 273.327 32.2178C273.327 29.5682 272.249 28.2435 270.092 28.2435H268.059V36.1921ZM280.653 52.3203V21.8199H296.088V28.2435H287.816V33.4193H293.916V39.427H287.816V45.8505H296.551V52.3203H280.653ZM305.908 52.8749C299.161 52.8749 295.787 47.6066 295.787 37.0701C295.787 26.5336 299.161 21.2654 305.908 21.2654C308.588 21.2654 310.683 22.0048 312.193 23.4836C313.702 24.9624 314.719 27.3038 315.243 30.5079L308.958 32.1254C308.711 30.6157 308.357 29.5374 307.895 28.8905C307.433 28.2127 306.801 27.8738 306 27.8738C304.922 27.8738 304.152 28.567 303.69 29.9534C303.258 31.3089 303.043 33.6812 303.043 37.0701C303.043 40.459 303.258 42.8467 303.69 44.2331C304.152 45.5887 304.922 46.2664 306 46.2664C306.801 46.2664 307.433 45.943 307.895 45.296C308.357 44.6182 308.711 43.5245 308.958 42.0149L315.243 43.6323C314.719 46.8364 313.702 49.1778 312.193 50.6567C310.683 52.1355 308.588 52.8749 305.908 52.8749ZM319.824 52.3203V28.3359H313.955V21.8199H332.856V28.3359H326.987V52.3203H319.824Z" fill="white"></path></g><defs><filter id="filter0_dd_2092_213" x="1.00136e-05" y="-5.10216e-05" width="356.641" height="75.6407" filterUnits="userSpaceOnUse" color-interpolation-filters="sRGB"><feFlood flood-opacity="0" result="BackgroundImageFix"></feFlood><feColorMatrix in="SourceAlpha" type="matrix" values="0 0 0 0 0 0 0 0 0 0 0 0 0 0 0 0 0 0 127 0" result="hardAlpha"></feColorMatrix><feMorphology radius="0.660182" operator="dilate" in="SourceAlpha" result="effect1_dropShadow_2092_213"></feMorphology><feOffset></feOffset><feGaussianBlur stdDeviation="0.330091"></feGaussianBlur><feColorMatrix type="matrix" values="0 0 0 0 0.0352941 0 0 0 0 0.117647 0 0 0 0 0.258824 0 0 0 0.13 0"></feColorMatrix><feBlend mode="normal" in2="BackgroundImageFix" result="effect1_dropShadow_2092_213"></feBlend><feColorMatrix in="SourceAlpha" type="matrix" values="0 0 0 0 0 0 0 0 0 0 0 0 0 0 0 0 0 0 127 0" result="hardAlpha"></feColorMatrix><feOffset dy="0.660182"></feOffset><feGaussianBlur stdDeviation="0.330091"></feGaussianBlur><feColorMatrix type="matrix" values="0 0 0 0 0.0352941 0 0 0 0 0.117647 0 0 0 0 0.258824 0 0 0 0.25 0"></feColorMatrix><feBlend mode="normal" in2="effect1_dropShadow_2092_213" result="effect2_dropShadow_2092_213"></feBlend><feBlend mode="normal" in="SourceGraphic" in2="effect2_dropShadow_2092_213" result="shape"></feBlend></filter></defs></svg> 