<?xml version="1.0" encoding="UTF-8"?> <svg xmlns="http://www.w3.org/2000/svg" id="_Слой_2" data-name="Слой 2" viewBox="0 0 835.33 822.11"><defs><style> .cls-1, .cls-2 { stroke: #000; stroke-linecap: round; stroke-linejoin: round; stroke-width: 12.07px; } .cls-2 { fill: #fff; } </style></defs><g id="_Слой_1-2" data-name="Слой 1"><g><path class="cls-1" d="M829.29,570.31v46.55l-5.6,4.68-345.37,194.53h-121.57S6.19,618.56,6.19,618.56c-.47-17.25.23-32.73.51-48.99l1.33-76.83L15.84,85.05c.04-1.87,2.06-4.99,3.35-5.54s4.75-.68,6.03-.02l29.73,15.29,50.24-49.89c26.25,5.88,49.13,13.49,73.81,22.51l.12-53.73c0-2.11,1.75-6.38,3.53-6.95,1.49-.47,4.93-.25,6.83.44,111.24,40.34,187.13,119.11,228.03,231.13,32.73-87.76,84.2-155,164.38-201.58,21.69-12.23,42.83-21.97,66.3-30.47,3.12-1.13,7.85,2.77,7.86,5.87l.11,55.18c24.42-8.89,47.55-16.62,73.87-22.5l50.31,50.02,29.45-15.22c1.51-.78,4.93-.72,6.24-.15,1.31.57,3.29,3.79,3.32,5.59l6.19,320.92,1.41,79.8,2.32,84.56ZM398.42,226.27c-15.86-40.95-38.28-77.36-67.09-110.03-38.27-42.37-85.01-73.62-139.18-94.02l-.07,50.88c82.25,35.63,146.84,87.91,206.34,153.17ZM643.07,73.05l-.02-50.93c-97.83,36.71-169.42,109.32-206.12,203.87,60.1-65.61,124.1-117.42,206.15-152.94ZM403.3,252.23c-36.07-43.53-74.6-79.77-118.67-111.83-53.12-38.1-111.54-66.1-175.35-81.55l-42,42.28,292.95,151.55,43.06-.44ZM475.67,252.6l292.42-151.45-42.1-42.39c-118.33,28.3-217.81,101.23-294.48,193.76l44.17.08ZM351.95,798.25l.17-535.36L28.64,95.81l-9.76,515.07,333.06,187.37ZM483.07,798.61l333.24-187.51-9.69-515.33-323.63,167.37.09,535.46ZM470.24,265.66h-105.15v56.88h105.15v-56.88ZM470.24,335.43h-105.15v38.93h105.15v-38.93ZM470.24,387.22h-105.15v294.48h105.15v-294.48ZM470.24,694.56h-105.15v38.8h105.15v-38.8ZM470.24,746.23h-105.15v57.06h105.15v-57.06Z"></path><polygon class="cls-2" points="351.95 798.25 18.89 610.88 28.64 95.81 352.12 262.88 351.95 798.25"></polygon><path class="cls-2" d="M483.07,798.61l-.09-535.46,323.63-167.37,9.69,515.33-333.24,187.51ZM531.69,438.59l228.58-129.31.4-83.26c0-1.87-1.39-5.47-2.54-6.62s-5.47-1.26-7.15-.37l-229.99,122.59-.15,88.89c0,2.39,1.12,6.26,2.24,7.75,1.12,1.49,5.73,1.95,8.63.32ZM757.24,430.81l-238.3,111.86,5.55,11.83,238.3-111.86-5.55-11.83ZM530.54,646.52l227.62-106.81c1.64-2.63,2.74-6.36,1.99-8.45-.68-1.91-4.89-3.03-8.11-3.03l-227.65,106.9c-3.08,1.45-3.86,6.76-2.7,8.8,1.09,1.92,5.33,4.24,8.85,2.6Z"></path><rect class="cls-2" x="365.09" y="387.22" width="105.15" height="294.48"></rect><path class="cls-2" d="M475.67,252.6l-44.17-.08c76.68-92.53,176.16-165.46,294.48-193.76l42.1,42.39-292.42,151.45Z"></path><path class="cls-2" d="M403.3,252.23l-43.06.44L67.28,101.13l42-42.28c63.81,15.45,122.23,43.44,175.35,81.55,44.07,32.06,82.6,68.3,118.67,111.83Z"></path><path class="cls-2" d="M643.07,73.05c-82.05,35.52-146.04,87.33-206.15,152.94,36.71-94.55,108.29-167.16,206.12-203.87l.02,50.93Z"></path><path class="cls-2" d="M398.42,226.27c-59.5-65.26-124.08-117.54-206.34-153.17l.07-50.88c54.17,20.4,100.91,51.65,139.18,94.02,28.81,32.67,51.22,69.08,67.09,110.03Z"></path><rect class="cls-2" x="365.09" y="746.23" width="105.15" height="57.06"></rect><rect class="cls-2" x="365.09" y="265.66" width="105.15" height="56.88"></rect><rect class="cls-2" x="365.09" y="335.43" width="105.15" height="38.93"></rect><rect class="cls-2" x="365.09" y="694.56" width="105.15" height="38.8"></rect><path class="cls-1" d="M531.69,438.59c-2.89,1.64-7.51,1.18-8.63-.32-1.12-1.49-2.24-5.36-2.24-7.75l.15-88.89,229.99-122.59c1.68-.9,6-.78,7.15.37s2.55,4.74,2.54,6.62l-.4,83.26-228.58,129.31ZM533.98,422.42l213.73-120.79-.14-66.04-213.91,113.86.33,72.97Z"></path><path class="cls-1" d="M530.54,646.52c-3.51,1.65-7.76-.67-8.85-2.6-1.16-2.04-.37-7.36,2.7-8.8l227.65-106.9c3.23,0,7.44,1.12,8.11,3.03.74,2.1-.35,5.83-1.99,8.45l-227.62,106.81Z"></path><rect class="cls-1" x="509.25" y="486.12" width="263.25" height="13.07" transform="translate(-148.61 319.02) rotate(-25.15)"></rect><polygon class="cls-2" points="533.98 422.42 533.65 349.45 747.56 235.59 747.7 301.63 533.98 422.42"></polygon></g></g></svg> 