<?xml version="1.0" encoding="UTF-8"?> <svg xmlns="http://www.w3.org/2000/svg" id="_Слой_2" data-name="Слой 2" viewBox="0 0 488.39 142.2"><defs><style> .cls-1 { fill: #dc3331; } .cls-2 { fill: #fff; } .cls-3 { fill: #151515; } </style></defs><g id="Layer_1" data-name="Layer 1"><g><g><polygon class="cls-2" points="233.01 142.17 249.78 99.79 233.01 57.74 266.69 57.74 283.46 99.79 266.76 142.17 233.01 142.17"></polygon><path class="cls-2" d="M118.66,119.82v18.58h-10.18v-61.51h9.53v3.69s3.17-3.3,3.17-3.3c20.86-8.76,20.6,30.42,14.18,40.64-2.76,4.39-8.71,6.45-13.48,4.16-1.31-.63-1.91-1.84-3.21-2.26ZM122.51,85.68c-.72.17-1.96,1.34-2.35,1.96-2.2,3.49-1.86,17.71-.67,21.78,1.6,5.51,6.79,4.87,8.22-.33,1.23-4.44,1.43-17.63-.94-21.52-.91-1.49-2.47-2.31-4.25-1.89Z"></path><path class="cls-2" d="M170.62,103.26h-19.24c.41,4.75,1.75,11.8,8.23,10.05,2.44-.66,3.14-2.79,4.86-4.1.48,0,6.48,4.99,6.48,5.48-4.63,9.99-20.23,11.3-26.15,1.94-6.56-10.38-6.3-39.49,10.37-40.56,16.05-1.03,16.85,15.24,15.44,27.2ZM161.33,95.64v-4.81c0-.37-.77-2.81-.99-3.32-.56-1.3-1.37-2.23-2.85-2.46-5.8-.89-6,6.56-6.12,10.58h9.95Z"></path><path class="cls-2" d="M186.12,112.1c1.72,1.67,4.89,1.28,6.12-.76.5-.83.92-3.53,1.58-3.72l8.71,1.96c-1.03,9.95-8.3,15.29-18.24,12.78-13.65-3.44-13.55-30.66-7.54-40.06,5.53-8.67,19.77-8.47,24.2,1.27.44.97,1.94,4.82,1.45,5.52-.43.62-7.32,1.87-8.58,2.27-.97-.29-.89-5.99-5.29-5.57-2.3.21-3.07,1.63-3.68,3.62-1.31,4.28-1.32,16.15.07,20.41.22.67.71,1.8,1.2,2.27Z"></path><polygon class="cls-2" points="234.06 76.72 234.06 85.93 224.29 85.93 224.29 122.77 213.12 122.77 213.12 85.93 203.34 85.93 203.34 76.72 234.06 76.72"></polygon><polygon class="cls-2" points="50.46 .17 33.68 42.54 50.46 84.6 16.78 84.6 0 42.54 16.71 .17 50.46 .17"></polygon><g><path class="cls-2" d="M103.3,66.02v18.58h-10.18V23.09h9.53v3.69s3.17-3.3,3.17-3.3c20.86-8.76,20.6,30.42,14.18,40.64-2.76,4.39-8.71,6.45-13.48,4.16-1.31-.63-1.91-1.84-3.21-2.26ZM107.15,31.88c-.72.17-1.96,1.34-2.35,1.96-2.2,3.49-1.86,17.71-.67,21.78,1.6,5.51,6.79,4.87,8.22-.33,1.23-4.44,1.43-17.63-.94-21.52-.91-1.49-2.47-2.31-4.25-1.89Z"></path><path class="cls-2" d="M91.2,69.25h-11.43l-2.04-7.61-15.26-.18-1.75,7.8h-11.77l18.34-61.17c1.33-.1,5.53-.67,6.19.42l17.71,60.75ZM75.62,51.68l-5.37-22.05-5.37,22.05h10.73Z"></path><path class="cls-2" d="M155.52,23.09v9.28h-9.36s-.53.48-.53.52v36.26h-10.95v-36.26c0-.38-.86-.49-1.22-.53-2.74-.31-5.92.23-8.67.36v-9.28l30.72-.34Z"></path></g></g><rect class="cls-2" x="314.18" y=".17" width="1.75" height="141.87"></rect><g><path class="cls-2" d="M350.69,0h133.19c2.49,0,4.51,2.02,4.51,4.51v133.19c0,2.49-2.02,4.51-4.51,4.51h-133.19c-2.49,0-4.51-2.02-4.51-4.51V4.51c0-2.49,2.02-4.51,4.51-4.51Z"></path><path class="cls-1" d="M356.64,57.61l19.6-53.86h-24.6c-.94,0-1.71.77-1.71,1.71v106.01h26.31l-19.6-53.86Z"></path><path class="cls-1" d="M458.33,3.75l19.6,53.86-19.6,53.86h26.31V5.46c0-.94-.77-1.71-1.71-1.71h-24.6Z"></path><g><path class="cls-3" d="M381.32,119.55c-5.17,0-8.7,2.96-8.7,8.27s3.3,8.3,8.7,8.3,8.76-2.98,8.76-8.3-3.32-8.27-8.76-8.27M381.32,133.36c-1.62,0-2.38-1.83-2.38-5.54s.77-5.61,2.38-5.61,2.43,1.88,2.43,5.61-.79,5.54-2.43,5.54"></path><polygon class="cls-3" points="459.09 126.8 462.94 126.8 464.17 119.89 459.07 119.89 459.09 126.8"></polygon><path class="cls-3" d="M449.32,133.36c-1.85,0-2.79-2.49-2.79-5.54s1.21-5.54,3.04-5.54c1.5,0,2.04,1.82,2.19,2.75h4.77v-3.77c-1.83-1.2-4.19-1.74-7.7-1.74-6.23,0-8.64,3.71-8.64,8.3s2.4,8.25,8.64,8.25c5.46,0,7.57-2.92,8.1-6.05h-5.05c-.24,1.62-.87,3.34-2.56,3.34"></path><path class="cls-3" d="M403.71,125.94l-3.66-.84c-1.74-.41-2.76-.59-2.76-1.45s1.02-1.47,2.76-1.47c1.86,0,3.05,1.09,4.1,2.64h3.25v-3.66c-1.28-.97-4.87-1.65-7.36-1.65-4.79,0-7.72,1.94-7.72,4.9s1.72,4.55,5.51,5.33l2.21.43c2.28.45,3.34.84,3.34,1.7s-1.08,1.38-3.34,1.38c-2.03,0-3.39-.94-4.32-2.64h-3.3v3.47c1.45.93,3.72,1.92,7.62,1.92,5.17,0,8.66-1.9,8.66-5.18,0-2.53-1.62-4.14-5-4.9"></path><path class="cls-3" d="M410.4,125.26h2.76c.14-1.36,1.24-2.79,2.66-2.68h0l.04,8.68c0,.93-.87,1.76-1.83,1.76h-.06v2.69h9.38v-2.69h-.06c-.96,0-1.83-.84-1.83-1.76l-.04-8.68c1.3.07,2.42,1.18,2.47,2.44v.24h2.77v-5.37h-16.25v5.37Z"></path><path class="cls-3" d="M429.12,122.58h.55c.76,0,1.34.59,1.34,1.38v7.3c0,.93-.87,1.76-1.83,1.76h-.06v2.69h9.38v-2.69h-.06c-.96,0-1.83-.84-1.83-1.76v-7.3c0-.79.53-1.38,1.3-1.38h.6v-2.69h-9.38v2.69Z"></path><path class="cls-3" d="M370.06,132.34l-4.04-4.63c2.49-1.11,3.83-2.37,3.83-4.09,0-2.62-2.55-3.73-4.83-3.73h-12.44v2.69c.96,0,1.81.84,1.81,1.76v6.92c0,.93-.85,1.76-1.81,1.76v2.69h9.38v-2.69h-.09c-.96,0-1.83-.84-1.83-1.76v-1.65l.98-.27,3.17,3.66c1.47,1.69,3.62,2.84,5.7,2.84.35,0,.79-.02,1.36-.11v-2.7c-.65,0-1.08-.54-1.2-.68M360.04,128.23l-.02-3.73c0-1.47,1.23-2.24,2.38-2.24.98,0,1.89.56,1.89,1.74,0,1.85-2.98,3.57-4.25,4.23"></path><path class="cls-3" d="M477,125.94l-3.66-.84c-1.74-.41-2.77-.59-2.77-1.45s1.02-1.47,2.77-1.47c1.86,0,3.05,1.09,4.1,2.64h3.25v-3.66c-1.28-.97-4.87-1.65-7.36-1.65-4.79,0-7.72,1.94-7.72,4.9s1.72,4.55,5.51,5.33l2.21.43c2.28.45,3.34.84,3.34,1.7s-1.08,1.38-3.34,1.38c-2.03,0-3.39-.94-4.32-2.64h-3.3v3.47c1.45.93,3.72,1.92,7.62,1.92,5.17,0,8.66-1.9,8.66-5.18,0-2.53-1.62-4.14-5-4.9"></path></g><g><path class="cls-3" d="M402.3,42.59c-1.41,8.02-3.87,21.96-4.74,26.9-.81,4.57-1.94,8.23-5.44,11.39h12.85s-4.07-3.09-2.47-12.15c1.64-9.31,4.09-23.44,4.96-28.13,1.18-6.35,4.82-9.12,4.82-9.12h-12.68s4.13,3.04,2.71,11.1"></path><path class="cls-3" d="M451.56,36.99c0-1.91-1.96-5.81-9.26-5.81,5.72,8-.71,15.26-.71,15.26,5.66-2.4,9.97-6.14,9.97-9.45"></path><path class="cls-3" d="M427.07,60.15s6.51,8.78,10.32,13.93c5.04,6.81,11.5,7.18,11.5,7.18l-18-23.5-3.83,2.39Z"></path><path class="cls-3" d="M452.99,76.55l-14.48-19.29c11.82-4.61,18.68-9.88,19.94-17.03,1.42-8.05-3.53-13.13-10.61-14.72-2.49-.56-5.37-.8-8.01-.8h-55.51l-1.97,11.2h2.07c4.23,0,7.38,3.48,6.7,7.34l-5.08,28.79c-.68,3.86-5.06,7.34-9.29,7.34h-2.07l-1.97,11.2h44.04l1.97-11.2h-2.46c-4.23,0-7.48-3.48-6.8-7.34l1.21-6.87,4.53-1.13,11.33,15.24c5.25,7.06,13.57,11.97,22.79,11.97,4.71,0,7.48-1.15,7.48-1.15l1.89-10.73c-2.16,0-4.35-.94-5.71-2.82M411.69,59.42l2.64-15.53c1.08-6.12,7.1-9.31,12.18-9.31,4.33,0,7.96,2.35,7.1,7.25-1.36,7.71-15.8,14.87-21.92,17.6M455.38,84.93s-1.39.78-4.94.78c-8.93,0-13.95-4.84-18.67-10.34l-11.86-15.96c2.79-1.41,5.9-3.14,8.8-5.11,6.52-4.44,10.07-8.79,10.87-13.29.71-4.01-.67-6.67-1.96-8.2-2.03-2.43-5.26-3.76-9.09-3.76-3.48,0-6.99,1.09-9.87,3.07-3.36,2.31-5.59,5.71-6.27,9.56h0s0,.02,0,.02l-5.04,29.83c-.96,6.48,3.08,10.22,9.27,10.22l-.58,3.28h-36.53l.57-3.23c5.69-.63,10.99-5.22,11.93-10.59l5.08-28.79c.52-2.92-.29-5.91-2.22-8.2-1.49-1.77-3.52-3-5.78-3.54l.61-3.47h52.14c5.84,0,10.93,1.73,13.27,4.53,1.39,1.66,1.84,3.71,1.39,6.28-.93,5.26-6.47,9.71-17.44,13.98l-4.93,1.92,17.63,23.5c1.11,1.52,3.05,2.54,4.44,2.9l-.82,4.6Z"></path></g></g></g></g></svg> 