<?xml version="1.0" encoding="UTF-8"?> <svg xmlns="http://www.w3.org/2000/svg" id="_Слой_2" data-name="Слой 2" viewBox="0 0 870.73 871.73"><defs><style> .cls-1 { fill: #fff; } </style></defs><g id="Layer_1" data-name="Layer 1"><g><path d="M781.88.86c18.18-.71,39.71-1.35,57.75-.34,13.29.75,23.48,1.42,27,16,6.94,28.82,3.69,75.58.34,105.41-19.05,169.23-116.8,324.18-248.65,428.35l-36.54,204.46-3.65,12.35c-33.47,34.64-67.35,69.69-102.8,102.2-11.27,4.96-22.58,2.36-29.43-8.03l-83.8-173.24c-5.6-.44-9.34,2.04-15.4,1.44-4.9-.49-10.28-2.82-14.08-5.92l-143.05-142.95c-7.39-9.6-6.19-18.67-2.76-29.58L10.78,426.37c-13.85-8.61-13.54-23.42-3.72-35.33,24.11-29.23,59.39-55.42,84.5-84.5l5.29-3.71,210.17-43.83C413.09,105.34,594.96,8.17,781.88.86ZM827.09,43.56c-29.11.07-58.49.4-87.36,4.15-33.32,4.33-66.18,13.14-98.64,21.35l159.98,157.5c16.56-49.53,24.82-101.27,25.97-153.54.06-2.94,1.1-5.65,1.1-8.96,0-6.54-2.04-13.67-1.06-20.51ZM228.15,517.47l125.96,125.63c10.38-2.62,21.03-6.84,31.22-10.79,163.86-63.44,314.5-179.92,388.61-342.39,1.57-3.44,8.63-18.34,8-20.64l-183.89-184.28c-11.23,3.36-22.79,8.4-33.65,13.38-73.32,33.64-144.05,87.47-195.3,149.7-64.96,78.88-106.01,174.13-140.96,269.38ZM275.09,310.58l-159.24,32.25-56.77,56.23-.98,2.5,141.5,67.99c22.38-54.3,45.04-108.64,75.49-158.97ZM471.1,814.57l68.46-68.03,29.52-160.97c-44.21,29.71-91.42,54.98-140.31,76.18-3.48,1.51-26.47,9.86-26.58,11.31l68.92,141.51Z"></path><path d="M161.09,721.56c27.68-2.73,55.41-9.28,80.02-22.47,14.64-7.85,26.14-22.04,44.32-12.36,18.52,9.87,9.82,52.9,3.42,69.1-28.01,70.97-117.35,95.03-185.43,105.57-17.98,2.78-46.64,7.98-63.99,8.09-2.94.02-7.89-1.06-10.64-2.13-16.16-6.27-12.78-24.41-11.7-38.29,6.82-87.85,35.11-254.66,154.48-246.49,21.86,1.5,30.73,17.23,21.03,37-8.04,16.39-16.15,27.73-21.79,46.21-5.54,18.18-7.52,36.95-9.74,55.75ZM139.09,632.58c-35.95,15.6-51.19,55.38-60.72,90.77-8.79,32.65-13.88,66.57-17.28,100.21,32.55-4.39,65.28-9.18,96.76-18.73,35.22-10.68,71.53-27.39,90.23-60.77l-32,12c-19.98,5.01-41.9,9.45-62.51,10.49-16.72.85-35.84,1.4-36.56-20.48-.29-8.86,1.99-25.53,3.07-35,3.01-26.33,8.02-54.39,18.99-78.5Z"></path><path class="cls-1" d="M228.15,517.47c34.95-95.25,76-190.5,140.96-269.38,51.24-62.23,121.98-116.06,195.3-149.7,10.86-4.98,22.42-10.01,33.65-13.38l183.89,184.28c.63,2.3-6.43,17.19-8,20.64-74.11,162.47-224.75,278.95-388.61,342.39-10.19,3.95-20.84,8.17-31.22,10.79l-125.96-125.63ZM568.89,179.87c-84.94,6.93-123.89,107-67.77,171.17,45.36,51.88,126.75,43.59,162.39-14.56,43.44-70.9-10.68-163.46-94.62-156.62Z"></path><path class="cls-1" d="M471.1,814.57l-68.92-141.51c.11-1.45,23.11-9.8,26.58-11.31,48.89-21.2,96.11-46.46,140.31-76.18l-29.52,160.97-68.46,68.03Z"></path><path class="cls-1" d="M827.09,43.56c-.98,6.84,1.06,13.96,1.06,20.51,0,3.3-1.04,6.02-1.1,8.96-1.15,52.26-9.41,104-25.97,153.54l-159.98-157.5c32.45-8.21,65.31-17.02,98.64-21.35,28.87-3.75,58.25-4.07,87.36-4.15Z"></path><path class="cls-1" d="M275.09,310.58c-30.45,50.33-53.11,104.67-75.49,158.97l-141.5-67.99.98-2.5,56.77-56.23,159.24-32.25Z"></path><path class="cls-1" d="M139.09,632.58c-10.97,24.1-15.99,52.16-18.99,78.5-1.08,9.47-3.36,26.14-3.07,35,.72,21.88,19.84,21.33,36.56,20.48,20.61-1.04,42.53-5.48,62.51-10.49l32-12c-18.7,33.38-55.01,50.09-90.23,60.77-31.48,9.55-64.21,14.34-96.76,18.73,3.4-33.64,8.49-67.56,17.28-100.21,9.53-35.39,24.76-75.17,60.72-90.77Z"></path><path d="M568.89,179.87c83.94-6.84,138.06,85.72,94.62,156.62-35.64,58.15-117.02,66.44-162.39,14.56-56.12-64.18-17.17-164.25,67.77-171.17ZM571.89,222.87c-41.57,2.58-65.54,47.88-48.65,85.05,20.48,45.08,86.42,45.21,107.23.52,19.58-42.03-12.63-88.43-58.58-85.57Z"></path><path class="cls-1" d="M571.89,222.87c45.95-2.85,78.15,43.54,58.58,85.57-20.82,44.69-86.76,44.56-107.23-.52-16.88-37.18,7.09-82.47,48.65-85.05Z"></path></g></g></svg> 