<?xml version="1.0" encoding="UTF-8"?> <svg xmlns="http://www.w3.org/2000/svg" id="_Слой_2" data-name="Слой 2" viewBox="0 0 901.03 637.08"><defs><style> .cls-1 { fill: #fff; } </style></defs><g id="Layer_1" data-name="Layer 1"><g><path d="M79.77.32l736.77-.32c44.86,3.58,80.81,40.96,84.5,85.5v463.08c-3.58,45.85-40.87,83.63-86.5,88.5H90.45c-48.68-3.7-88.76-44.52-90.45-93.55V87.55C2.79,43.65,36.23,6.75,79.77.32ZM864.99,119.04v-26.5c0-24.99-28.43-58.8-55.51-56.49l-720.03-.05c-43.44,3.78-57.16,44.7-53.46,83.04h829ZM864.99,156.04l-829,1v66c194.52.03,389.13.32,583.54-.96,68.74-.45,137.21-.13,205.92,1,13.17.22,26.38-.25,39.54-.04v-67ZM865,258.04l-829.01,1-.04,276.55c1.84,30.79,17.01,57.53,48.82,64.18,243.23,2.13,487.21,2.1,730.47.02,32.37-6.58,47.63-30.47,49.75-62.25l.02-279.49Z"></path><path class="cls-1" d="M865,258.04l-.02,279.49c-2.12,31.78-17.38,55.67-49.75,62.25-243.26,2.09-487.23,2.12-730.47-.02-31.8-6.65-46.98-33.39-48.82-64.18l.04-276.55,829.01-1ZM617.79,296.34c-24.47,2.63-43.44,22.99-45.67,47.33-3.32,36.32,2.2,77.07-.11,113.86,2.31,27.76,23.37,50.45,51.45,52.55,48.03,3.6,100.53-2.76,149.02-.06,23.36-2.72,41.17-21.5,46.07-43.93.34-37.42,4.47-80.36,1.43-117.54-2.29-27.97-22.73-49.23-50.5-52.5-48.52,3.49-103.97-4.84-151.69.28ZM108.77,396.32c-24.51,1.94-25.83,36.38-.26,37.7h217.97c25.61-3.22,25.49-36.59-1-37.97l-216.71.26ZM109.78,478.34c-10.92,1.01-20.17,7.04-19.87,19.2.31,12.83,10.64,16.63,21.59,17.49,54.36,4.25,114.06-3.15,168.98,0,22.09-.77,23.94-30.02,3.95-35.93-53.66-.35-107.32.23-160.98-.02-4.86-.02-8.08-1.27-13.66-.75Z"></path><path class="cls-1" d="M864.99,119.04H35.99c-3.7-38.34,10.02-79.26,53.46-83.04l720.03.05c27.08-2.31,55.51,31.5,55.51,56.49v26.5Z"></path><path class="cls-1" d="M864.99,156.04v67c-13.16-.2-26.37.26-39.54.04-68.71-1.13-137.18-1.45-205.92-1-194.41,1.28-389.02.99-583.54.96v-66l829-1Z"></path><path d="M617.79,296.34c47.72-5.12,103.17,3.21,151.69-.28,27.77,3.27,48.21,24.53,50.5,52.5,3.04,37.17-1.09,80.12-1.43,117.54-4.89,22.44-22.71,41.21-46.07,43.93-48.5-2.71-101,3.66-149.02.06-28.07-2.11-49.14-24.79-51.45-52.55,2.32-36.79-3.21-77.54.11-113.86,2.23-24.34,21.19-44.71,45.67-47.33ZM682.99,331.04h-60.5c-5.01,0-14.55,10.11-14.41,15.59,2.35,35.61-3.43,75.89-.13,110.95.59,6.26,3.55,10.93,9.14,13.86.85.45,6.06,2.6,6.4,2.6h59.5v-143ZM783.99,376.04v-28.5c0-1.25-4.26-9.14-5.47-10.53-1.57-1.81-8.02-5.97-10.03-5.97h-48.5v45h64ZM783.99,410.04h-64v64h47.5c5.89,0,16.5-9.73,16.5-15.5v-48.5Z"></path><path d="M108.77,396.32l216.71-.26c26.49,1.38,26.62,34.75,1,37.97H108.51c-25.56-1.33-24.25-35.77.26-37.71Z"></path><path d="M109.78,478.34c5.58-.52,8.8.73,13.66.75,53.66.24,107.33-.33,160.98.02,20,5.91,18.15,35.16-3.95,35.93-54.92-3.15-114.62,4.25-168.98,0-10.95-.86-21.28-4.65-21.59-17.49-.3-12.16,8.95-18.19,19.87-19.2Z"></path><path class="cls-1" d="M682.99,331.04v143h-59.5c-.35,0-5.55-2.15-6.4-2.6-5.59-2.93-8.55-7.61-9.14-13.86-3.3-35.06,2.47-75.34.13-110.95-.14-5.47,9.4-15.59,14.41-15.59h60.5Z"></path><path class="cls-1" d="M783.99,410.04v48.5c0,5.77-10.61,15.5-16.5,15.5h-47.5v-64h64Z"></path><path class="cls-1" d="M783.99,376.04h-64v-45h48.5c2.01,0,8.46,4.16,10.03,5.97,1.21,1.39,5.47,9.28,5.47,10.53v28.5Z"></path></g></g></svg> 