<?xml version="1.0" encoding="UTF-8"?> <svg xmlns="http://www.w3.org/2000/svg" id="_Слой_2" data-name="Слой 2" viewBox="0 0 167.48 252.08"><defs><style> .cls-1 { fill: #efb23f; } .cls-2 { fill-rule: evenodd; } .cls-2, .cls-3 { fill: #1d1d1b; } .cls-4 { fill: #fff; } </style></defs><g id="_Слой_1-2" data-name="Слой 1"><g><path class="cls-4" d="M161.54,173.63c-.17-.14-3.23-2.61-7.68-7.21,1.15-12.4-2.08-24.89-9.26-35.81,6.1-9.12,9.22-19.63,8.76-30.05-.48-10.68-3.76-20.79-9.41-29.28,1.26-3.1,1.51-6.57.67-9.83-.25-.97-.6-1.91-1.04-2.81l5.96-2.49c6.3-2.63,10.23-8.97,9.79-15.78-.44-6.81-5.16-12.59-11.74-14.39-.26-.07-.52-.13-.78-.18,2.44-4.31,2.68-9.51.51-14.11-2.55-5.39-8.02-8.87-13.93-8.87-2.2,0-4.34.46-6.37,1.38-2.71,1.22-5,3.19-6.61,5.69l-1.66,2.58c-3.23-4.25-7.79-7.24-13.06-8.49-1.77-.42-3.58-.64-5.4-.64-7.64,0-14.65,3.81-18.91,9.83C77.57,5.26,69.45,0,60.47,0h0S60.47,0,60.47,0c-1.63,0-3.27.17-4.87.52l-1.04.22c-6.06,1.3-11.24,4.88-14.6,10.08-.43.66-.82,1.34-1.17,2.03l-3.28-3.67c-2.22-2.48-5.11-4.17-8.36-4.89-1.14-.25-2.31-.38-3.47-.38-6.49,0-12.24,3.92-14.66,9.99-1.54,3.87-1.47,8.05.02,11.74-3.96,1.81-7.06,5.25-8.38,9.68-1.97,6.62.6,13.61,6.38,17.38l12.99,8.48c-4.07,5.29-5.86,12.25-4.35,19.26l.11.52c.41,5.19,2.61,18.75,13.77,40.83-2.06,22.97,6.35,42.41,17.26,58.45h-.41c-1.02,0-2.01.13-2.96.35-1.7-.46-3.49-.71-5.35-.71-1.55,0-3.06.17-4.5.5-.6-.09-1.22-.15-1.85-.15h-5.05c-.67,0-1.32.05-1.97.15-.65-.1-1.31-.15-1.98-.15h-4.6c-7.18,0-13,5.82-13,13v19.6c0,7.18,5.82,13,13,13h4.6c.72,0,1.44-.06,2.13-.17.69.11,1.4.17,2.12.17h5.05c.2,0,.39-.03.58-.04v12.91c0,7.18,5.82,13,13,13h4.6c1.14,0,2.25-.15,3.3-.43,1.05.27,2.15.43,3.26.43h4.66c.84,0,1.66-.08,2.46-.23.8.15,1.62.23,2.46.23h4.69c.13,0,.26-.02.38-.02.15,0,.3.02.45.02h6.86c2.06,0,4.04-.33,5.91-.94,2.2.85,4.6,1.3,7.12,1.3,2.18,0,4.45-.36,6.64-1.13,1.37.49,2.84.77,4.38.77h4.6c.39,0,.78-.02,1.17-.06.33.03.66.06,1,.06h4.66c.84,0,1.66-.08,2.46-.23.8.15,1.62.23,2.46.23h4.69c4.12,0,7.99-1.95,10.44-5.25,2.45-3.31,3.19-7.58,2-11.52l-2.76-9.11h3.16c.06,0,.11,0,.17,0,.05,0,.11,0,.16,0h4.81c.6,0,1.18-.04,1.76-.12.58.08,1.17.12,1.77.12h4.6c7.18,0,13-5.82,13-13v-15.99c.44-.44.85-.91,1.24-1.41,5.25-6.76,4.05-16.53-2.67-21.81Z"></path><g><g><path class="cls-1" d="M129.43,132.11c-.5-.56-.99-1.13-1.48-1.7,7.88-7.71,12.91-18.33,12.42-29.27-1.03-23.01-18.08-40.26-41.15-41.15-16.74-.65-32.15,7.82-42.16,20.78-8.9,11.52-12.32,25.1-14.22,39.25-3.75,27.91,10.79,50.27,28.4,70.29,14.26,16.21,43.82,15.66,58.19,0,15.87-17.29,15.22-40.9,0-58.19Z"></path><g><path class="cls-2" d="M51.75,46.83l-25.94-28.96c-.39-.44-.91-.74-1.49-.87h0c-2.79-.62-4.62,2.83-2.54,4.79l19.73,18.65c.12.11.25.21.39.3l9.84,6.09h0Z"></path><path class="cls-2" d="M38.78,55.58l-21.7-17.76c-.4-.33-.9-.52-1.42-.56h0c-2.55-.16-3.66,3.17-1.52,4.57l14.38,9.38c.12.08.25.15.38.2l9.88,4.17h0Z"></path><path class="cls-2" d="M115.23,41.84l16.09-24.9c.25-.39.61-.7,1.04-.89h0c2.34-1.06,4.5,1.77,2.87,3.75l-11.33,13.79c-.06.08-.13.15-.2.22l-8.47,8.03h0Z"></path><path class="cls-2" d="M120.33,53.68l21.35-14.73c.72-.5,1.63-.65,2.48-.42h0c2.74.75,2.98,4.54.36,5.63l-13.91,5.81-10.29,3.72h0Z"></path><path class="cls-3" d="M106.56,109.11l25.19-42.42c.35-.59.45-1.3.28-1.97s-.61-1.23-1.2-1.58c-.34-.2-8.46-4.79-16.41,1.43-5.29,4.14-10.71,10.77-13.05,13.78-.76-.23-1.72-.44-2.83-.56l11.67-48.93c.63-2.64.19-5.38-1.23-7.69-1.42-2.32-3.66-3.94-6.31-4.57-5.33-1.27-10.67,1.86-12.15,7.13l-9.62,34.06-10.63-37.42c-1.46-5.14-6.71-8.3-11.93-7.17l-1.05.23c-2.66.57-4.93,2.14-6.41,4.43-1.48,2.28-1.97,5-1.4,7.66l7.17,33.35c-1.92-.64-3.99-.72-6-.18-3.73,1-6.46,3.9-7.4,7.4-2.27-1.12-4.84-1.38-7.32-.71-5.4,1.45-8.71,6.86-7.53,12.32l.32,1.47c.12,3.54,2.69,35.3,54.14,98.78.51.63,1.25.96,2,.96.57,0,1.14-.19,1.62-.58,1.11-.9,1.28-2.52.38-3.63-3.44-4.25-6.65-8.34-9.66-12.3-25.2-33.16-35.75-56.25-40.16-69.63.69.22,1.4.36,2.14.44.36.04.71.09,1.07.09.65,0,1.31-.06,1.97-.19,2.79-.54,5.19-2.14,6.75-4.51.64-.97,1.09-2.01,1.38-3.1,1.42.7,2.99,1.12,4.62,1.12.65,0,1.31-.06,1.97-.19,2.79-.54,5.18-2.14,6.75-4.51,1.56-2.37,2.1-5.2,1.5-7.98l-.21-.99-1.37-6.35h0s-.03-.08-.04-.12l-9.05-42.05c-.28-1.31-.04-2.65.69-3.78.73-1.13,1.85-1.9,3.16-2.18l1.05-.23c2.58-.55,5.16,1,5.89,3.54l13.11,46.17c.31,1.11,1.33,1.87,2.48,1.87h0c1.15,0,2.17-.77,2.48-1.88l12.1-42.82c.74-2.6,3.37-4.15,6-3.52,1.3.31,2.41,1.11,3.11,2.25s.92,2.49.61,3.79l-12,50.34c-.66.12-1.34.26-2.05.47-.49.14-.97.31-1.46.48-9.04,3.24-17.66,12.38-25.62,27.22-.67,1.26-.2,2.82,1.05,3.49,1.06.57,2.34.31,3.11-.54.14-.16.27-.32.38-.52,9.5-17.72,18.15-23.44,23.73-25.12,5.25-1.58,8.52.13,8.63.19,1.14.65,2.58.35,3.36-.71.07-.09,6.97-9.42,13.27-14.35,3.02-2.36,6.08-2.35,8.14-1.92l-24.16,40.68c-.35.59-.45,1.3-.28,1.97,6.05,22.97,16.5,41.08,26.2,54.11,11.55,15.51,22.04,23.81,22.83,24.42.47.37,1.03.54,1.58.54.77,0,1.53-.34,2.04-1,.87-1.12.67-2.74-.45-3.62-.34-.26-33.93-26.85-46.93-74.74ZM49.73,77.29l-1.58-7.34c-.6-2.77,1.08-5.52,3.82-6.26.46-.12.93-.18,1.39-.18.96,0,1.91.27,2.76.78,1.26.77,2.12,1.98,2.43,3.42l1.58,7.34c.3,1.41.03,2.85-.76,4.05-.79,1.2-2.01,2.02-3.43,2.29-2.82.54-5.61-1.29-6.21-4.1ZM44.65,85.78c-.79,1.2-2.01,2.02-3.43,2.29-2.83.54-5.61-1.3-6.21-4.1l-1.58-7.34c-.6-2.77,1.08-5.52,3.82-6.26.46-.12.93-.18,1.39-.18.96,0,1.91.27,2.76.78,1.26.77,2.12,1.98,2.43,3.42l1.58,7.34c.3,1.41.03,2.85-.76,4.05Z"></path></g></g><g><path class="cls-3" d="M32.03,212.84h-5.05l-4.25-9.32v9.32h-4.6v-19.6h4.6v8.34l3.95-8.34h5.05l-4.45,9.29,4.75,10.3Z"></path><path class="cls-3" d="M31.47,202.99c0-3.42.54-5.96,1.63-7.62,1.09-1.65,2.75-2.48,4.99-2.48s3.96.82,5.05,2.46c1.09,1.64,1.63,4.18,1.63,7.6,0,6.83-2.23,10.24-6.68,10.24-2.24,0-3.9-.84-4.99-2.51s-1.63-4.24-1.63-7.71ZM40.11,203.05c0-2.22-.15-3.76-.45-4.62-.3-.86-.82-1.29-1.57-1.29s-1.27.42-1.54,1.25c-.28.83-.42,2.37-.42,4.6s.14,3.79.43,4.66.8,1.31,1.53,1.31,1.28-.44,1.57-1.31.45-2.41.45-4.6Z"></path><path class="cls-3" d="M58.76,193.25h2.38v19.6h-4.6v-7.36l-1.96,3.5h-1.6l-1.96-3.5v7.36h-4.6v-19.6h2.38l4.99,9.23,4.99-9.23Z"></path><path class="cls-3" d="M71.55,212.84l-.39-1.9h-4.13l-.42,1.9h-4.66l5.97-19.6h2.38l5.94,19.6h-4.69ZM69.12,201.65l-1.31,5.7h2.58l-1.28-5.7Z"></path><path class="cls-3" d="M77.08,212.84v-19.6h4.6v7.3h3.65v-7.3h4.6v19.6h-4.6v-8.11h-3.65v8.11h-4.6Z"></path><path class="cls-3" d="M105.52,208.66h1.75v8.37h-4.6v-4.19h-6.68v4.19h-4.6v-8.37h1.19c.53-.87.84-3.61.92-8.22l.09-7.19h11.94v15.41ZM96.82,208.66h4.1v-11.22h-3.03l-.03,3.03c-.02,3.72-.37,6.45-1.04,8.2Z"></path><path class="cls-3" d="M108.73,212.84v-19.6h4.6v7.3h3.65v-7.3h4.6v19.6h-4.6v-8.11h-3.65v8.11h-4.6Z"></path><path class="cls-3" d="M132.01,212.84l-.39-1.9h-4.13l-.42,1.9h-4.66l5.97-19.6h2.38l5.94,19.6h-4.69ZM129.57,201.65l-1.31,5.7h2.58l-1.28-5.7Z"></path><path class="cls-3" d="M144.09,193.25h5.88v19.6h-4.6v-5.94h-1.1l-2.43,5.94h-4.81l3-7.1c-.85-.61-1.52-1.42-2-2.41-.49-.99-.73-2.08-.73-3.27,0-2.14.6-3.81,1.8-5.02,1.2-1.21,2.87-1.81,5-1.81ZM145.37,202.78v-5.4h-1.31c-1.39,0-2.08.9-2.08,2.7s.69,2.7,2.08,2.7h1.31Z"></path><path class="cls-3" d="M45.62,238.72v-19.6h5.88c2.16,0,3.83.58,5.02,1.75s1.78,2.81,1.78,4.93-.6,3.74-1.8,4.91c-1.2,1.18-2.87,1.77-5,1.77h-1.28v6.24h-4.6ZM50.22,228.36h1.31c1.38,0,2.08-.85,2.08-2.55s-.69-2.55-2.08-2.55h-1.31v5.11Z"></path><path class="cls-3" d="M66.37,238.72l-.39-1.9h-4.13l-.42,1.9h-4.66l5.97-19.6h2.38l5.94,19.6h-4.69ZM63.94,227.53l-1.31,5.7h2.58l-1.28-5.7Z"></path><path class="cls-3" d="M71.89,238.72v-19.6h10.9v4.13h-6.29v3.71h2.26c1.7,0,3.06.52,4.07,1.57,1.01,1.05,1.51,2.46,1.51,4.22s-.52,3.22-1.56,4.32c-1.04,1.1-2.38,1.65-4.02,1.65h-6.86ZM76.5,234.86h1.6c.55,0,.98-.18,1.28-.55s.45-.89.45-1.56-.15-1.19-.45-1.56c-.3-.37-.72-.55-1.28-.55h-1.6v4.22Z"></path><path class="cls-3" d="M85.17,228.87c0-3.42.54-5.96,1.63-7.62,1.09-1.65,2.75-2.48,4.99-2.48s3.96.82,5.05,2.46c1.09,1.64,1.63,4.18,1.63,7.6,0,6.83-2.23,10.24-6.68,10.24-2.24,0-3.9-.84-4.99-2.51s-1.63-4.24-1.63-7.71ZM93.81,228.92c0-2.22-.15-3.76-.45-4.62-.3-.86-.82-1.29-1.57-1.29s-1.27.42-1.54,1.25c-.28.83-.42,2.37-.42,4.6s.14,3.79.43,4.66.8,1.31,1.53,1.31,1.28-.44,1.57-1.31.45-2.41.45-4.6Z"></path><path class="cls-3" d="M102.8,238.72v-15.41h-3.77v-4.19h12.14v4.19h-3.77v15.41h-4.6Z"></path><path class="cls-3" d="M119.16,238.72l-.39-1.9h-4.13l-.42,1.9h-4.66l5.97-19.6h2.38l5.94,19.6h-4.69ZM116.73,227.53l-1.31,5.7h2.58l-1.28-5.7Z"></path></g></g></g></g></svg> 