<?xml version="1.0" encoding="UTF-8"?> <svg xmlns="http://www.w3.org/2000/svg" id="_Слой_2" data-name="Слой 2" viewBox="0 0 740.26 686.45"><defs><style> .cls-1, .cls-2 { stroke: #000; stroke-linecap: round; stroke-linejoin: round; stroke-width: 3.51px; } .cls-2 { fill: #fff; } </style></defs><g id="_Слой_1-2" data-name="Слой 1"><g><path class="cls-1" d="M1.75,570.75V215.29c0-62.87,66.06-113.73,121.82-114.07l59.94-.37.07-23.88c.13-41.42,33.9-75.16,75.9-75.17l228.58-.05c41.47,0,75.48,32.57,76.19,73.84l.44,25.32,51.49.29c64.43.36,115.08,52.19,122.31,116.28l-.03,352.27c-8.22,63.84-60.12,114.94-125.37,114.94l-485.83-.03c-65.94,0-116.46-51.31-125.52-113.92ZM532.37,77.01l.33,23.48,11.46-.02v-22.14c.02-30.01-23.53-56.38-54.64-56.38l-231.49.02c-29.2,0-52.74,24-54.16,52.2-.48,9.4-.19,16.36-.19,26.27l11.56.07.06-21.88c.07-25.82,19.75-45.26,45.69-45.26l227.11.07c24.58,0,43.96,19.37,44.3,43.57ZM512.53,77.63c0-13.76-11.04-24.08-24.47-24.08l-228.56.02c-14.14,0-24.26,11.62-24.18,24.88l.13,22.48h277.1s-.01-23.31-.01-23.31ZM609.17,665.11c60.94,0,109.33-48.48,109.31-109l-.12-327.61c-.02-60.55-49.58-107.73-109.44-107.73H131.39c-58.91,0-109.24,46.31-109.23,106.27l.02,331.93c0,60.22,50.71,106.2,109.62,106.19l477.38-.06Z"></path><path class="cls-2" d="M609.17,665.11l-477.38.06c-58.91,0-109.61-45.97-109.62-106.19l-.02-331.93c0-59.96,50.32-106.27,109.23-106.27h477.54c59.86,0,109.41,47.18,109.44,107.72l.12,327.61c.02,60.52-48.37,108.99-109.31,109ZM441.23,576.49l.05-112.47,112.56-.07-.05-141.91-112.53-.08-.04-112.43h-141.93s-.15,112.53-.15,112.53l-112.5.07v141.89s112.57.12,112.57.12l.04,112.4,141.98-.05Z"></path><path class="cls-2" d="M532.37,77.01c-.34-24.2-19.72-43.56-44.3-43.57l-227.11-.07c-25.94,0-45.62,19.43-45.69,45.26l-.06,21.88-11.56-.07c0-9.9-.28-16.86.19-26.27,1.43-28.2,24.97-52.2,54.16-52.2l231.49-.02c31.12,0,54.66,26.37,54.65,56.38v22.14s-11.47.02-11.47.02l-.33-23.48Z"></path><path class="cls-1" d="M441.23,576.49l-141.98.05-.04-112.4-112.57-.12v-141.89s112.5-.07,112.5-.07l.15-112.52h141.93s.04,112.43.04,112.43l112.53.08.05,141.91-112.56.07-.05,112.47ZM420.93,556.32l.07-112.35,112.49-.11-.05-101.92-112.47-.03-.04-112.49h-101.77s-.05,112.48-.05,112.48l-112.51.06-.07,101.83,112.58.12.04,112.5,101.78-.08Z"></path><polygon class="cls-2" points="420.93 556.32 319.15 556.4 319.11 443.9 206.52 443.78 206.59 341.95 319.1 341.89 319.16 229.41 420.93 229.42 420.97 341.91 533.44 341.94 533.49 443.86 421 443.97 420.93 556.32"></polygon></g></g></svg> 