<?xml version="1.0" encoding="UTF-8"?> <svg xmlns="http://www.w3.org/2000/svg" id="_Слой_2" data-name="Слой 2" viewBox="0 0 631.39 631.63"><defs><style> .cls-1 { fill: #fff; } </style></defs><g id="_Слой_1-2" data-name="Слой 1"><g><path class="cls-1" d="M316.19,158.09C316.19,70.78,245.41,0,158.09,0S0,70.78,0,158.09s70.78,158.09,158.09,158.09,158.09-70.78,158.09-158.09ZM589.8,6.53L6.41,589.92l35.25,35.25L625.06,41.78l-35.25-35.25ZM631.39,473.53c0-87.31-70.78-158.09-158.09-158.09s-158.09,70.78-158.09,158.09,70.78,158.09,158.09,158.09,158.09-70.78,158.09-158.09Z"></path><path d="M316.19,158.09c0,87.31-70.78,158.09-158.09,158.09S0,245.41,0,158.09,70.78,0,158.09,0s158.09,70.78,158.09,158.09ZM266.28,158.1c0-59.73-48.42-108.15-108.15-108.15s-108.15,48.42-108.15,108.15,48.42,108.15,108.15,108.15,108.15-48.42,108.15-108.15Z"></path><path d="M631.39,473.53c0,87.31-70.78,158.09-158.09,158.09s-158.09-70.78-158.09-158.09,70.78-158.09,158.09-158.09,158.09,70.78,158.09,158.09ZM581.42,473.51c0-59.73-48.42-108.16-108.16-108.16s-108.16,48.42-108.16,108.16,48.42,108.16,108.16,108.16,108.16-48.42,108.16-108.16Z"></path><rect x="-96.79" y="290.92" width="825.05" height="49.85" transform="translate(-130.87 315.77) rotate(-45)"></rect><circle class="cls-1" cx="158.13" cy="158.1" r="108.15"></circle><circle class="cls-1" cx="473.26" cy="473.51" r="108.16"></circle></g></g></svg> 