<?xml version="1.0" encoding="UTF-8"?> <svg xmlns="http://www.w3.org/2000/svg" width="206" height="76" viewBox="0 0 206 76" fill="none"><g filter="url(#filter0_dd_2106_239)"><rect x="1.32037" y="1.32031" width="203" height="73" rx="36.5" fill="#EFB23F"></rect><path d="M42.6835 43.8172C42.6835 46.744 41.8979 48.993 40.3267 50.5642C38.7554 52.1047 36.4756 52.8749 33.4872 52.8749C28.1881 52.8749 25.0148 50.1945 23.9674 44.8339L30.1136 42.8467C30.5142 45.1265 31.5925 46.2664 33.3485 46.2664C35.043 46.2664 35.8902 45.2344 35.8902 43.1702C35.8902 42.0919 35.6284 41.2601 35.1046 40.6747C34.5809 40.0893 33.8415 39.7967 32.8864 39.7967H30.2985V34.0663H32.8864C34.889 34.0663 35.8902 33.0034 35.8902 30.8776C35.8902 28.8751 35.0892 27.8738 33.4872 27.8738C31.8235 27.8738 30.7914 29.0137 30.3909 31.2935L24.2446 29.3064C25.2921 23.9457 28.4192 21.2654 33.6258 21.2654C36.5526 21.2654 38.7862 22.0356 40.3267 23.576C41.8979 25.0856 42.6835 27.273 42.6835 30.1382C42.6835 33.4347 41.4974 35.6683 39.1251 36.839C41.4974 38.1022 42.6835 40.4282 42.6835 43.8172ZM63.5991 45.8043H66.3256V58.8363H59.1627V52.3203H48.7648V58.8363H41.6018V45.8043H43.4503C44.2822 44.4487 44.7597 40.1818 44.8829 33.0034L45.0216 21.8199H63.5991V45.8043ZM50.0588 45.8043H56.4361V28.3359H51.7224L51.6762 33.0496C51.6454 38.8416 51.1063 43.0932 50.0588 45.8043ZM64.8862 36.9777C64.8862 31.6478 65.7334 27.7043 67.4279 25.1472C69.1224 22.5593 71.7103 21.2654 75.1916 21.2654C78.7346 21.2654 81.3533 22.5439 83.0478 25.101C84.7423 27.6581 85.5895 31.6016 85.5895 36.9315C85.5895 47.5604 82.1235 52.8749 75.1916 52.8749C71.7103 52.8749 69.1224 51.5809 67.4279 48.993C65.7334 46.3743 64.8862 42.3692 64.8862 36.9777ZM78.3341 37.0701C78.3341 33.6196 78.103 31.2319 77.6409 29.9071C77.1788 28.5516 76.3624 27.8738 75.1916 27.8738C74.0209 27.8738 73.2199 28.5208 72.7886 29.8147C72.3572 31.1087 72.1416 33.4963 72.1416 36.9777C72.1416 40.459 72.3572 42.8775 72.7886 44.2331C73.2507 45.5887 74.0517 46.2664 75.1916 46.2664C76.3624 46.2664 77.1788 45.5887 77.6409 44.2331C78.103 42.8775 78.3341 40.4899 78.3341 37.0701ZM85.8379 52.3203V21.8199H94.988C98.3461 21.8199 100.949 22.7288 102.798 24.5465C104.646 26.3642 105.571 28.9213 105.571 32.2178C105.571 35.4835 104.631 38.0406 102.752 39.8891C100.903 41.7068 98.3153 42.6156 94.988 42.6156H93.0009V52.3203H85.8379ZM93.0009 36.1921H95.0342C97.1908 36.1921 98.2691 34.8673 98.2691 32.2178C98.2691 29.5682 97.1908 28.2435 95.0342 28.2435H93.0009V36.1921ZM104.718 36.9777C104.718 31.6478 105.565 27.7043 107.259 25.1472C108.954 22.5593 111.542 21.2654 115.023 21.2654C118.566 21.2654 121.185 22.5439 122.879 25.101C124.574 27.6581 125.421 31.6016 125.421 36.9315C125.421 47.5604 121.955 52.8749 115.023 52.8749C111.542 52.8749 108.954 51.5809 107.259 48.993C105.565 46.3743 104.718 42.3692 104.718 36.9777ZM118.165 37.0701C118.165 33.6196 117.934 31.2319 117.472 29.9071C117.01 28.5516 116.194 27.8738 115.023 27.8738C113.852 27.8738 113.051 28.5208 112.62 29.8147C112.189 31.1087 111.973 33.4963 111.973 36.9777C111.973 40.459 112.189 42.8775 112.62 44.2331C113.082 45.5887 113.883 46.2664 115.023 46.2664C116.194 46.2664 117.01 45.5887 117.472 44.2331C117.934 42.8775 118.165 40.4899 118.165 37.0701ZM145.032 43.6323C145.032 46.1586 144.17 48.2382 142.445 49.871C140.719 51.5039 138.547 52.3203 135.929 52.3203H125.669V21.8199H134.08C137.038 21.8199 139.364 22.5901 141.058 24.1306C142.783 25.671 143.646 27.7968 143.646 30.5079C143.646 33.0958 142.814 35.0984 141.151 36.5156C143.738 38.0868 145.032 40.459 145.032 43.6323ZM133.988 27.6889H132.37V34.0201H133.941C135.882 34.0201 136.853 32.9726 136.853 30.8776C136.853 28.7518 135.898 27.6889 133.988 27.6889ZM138.239 43.0778C138.239 40.7979 137.176 39.658 135.05 39.658H132.37V46.4513H135.05C137.176 46.4513 138.239 45.3268 138.239 43.0778ZM144.885 52.3203V21.8199H152.048V31.5246H154.036C157.363 31.5246 159.951 32.4488 161.799 34.2973C163.679 36.115 164.618 38.6567 164.618 41.9224C164.618 45.219 163.694 47.7761 161.846 49.5938C159.997 51.4115 157.394 52.3203 154.036 52.3203H144.885ZM152.048 45.8967H154.082C156.238 45.8967 157.317 44.572 157.317 41.9224C157.317 39.2729 156.238 37.9482 154.082 37.9482H152.048V45.8967ZM164.643 52.3203V21.8199H180.078V28.2435H171.806V33.4193H177.906V39.427H171.806V45.8505H180.54V52.3203H164.643Z" fill="black"></path></g><defs><filter id="filter0_dd_2106_239" x="1.00136e-05" y="-5.10216e-05" width="205.641" height="75.6407" filterUnits="userSpaceOnUse" color-interpolation-filters="sRGB"><feFlood flood-opacity="0" result="BackgroundImageFix"></feFlood><feColorMatrix in="SourceAlpha" type="matrix" values="0 0 0 0 0 0 0 0 0 0 0 0 0 0 0 0 0 0 127 0" result="hardAlpha"></feColorMatrix><feMorphology radius="0.660182" operator="dilate" in="SourceAlpha" result="effect1_dropShadow_2106_239"></feMorphology><feOffset></feOffset><feGaussianBlur stdDeviation="0.330091"></feGaussianBlur><feColorMatrix type="matrix" values="0 0 0 0 0.0352941 0 0 0 0 0.117647 0 0 0 0 0.258824 0 0 0 0.13 0"></feColorMatrix><feBlend mode="normal" in2="BackgroundImageFix" result="effect1_dropShadow_2106_239"></feBlend><feColorMatrix in="SourceAlpha" type="matrix" values="0 0 0 0 0 0 0 0 0 0 0 0 0 0 0 0 0 0 127 0" result="hardAlpha"></feColorMatrix><feOffset dy="0.660182"></feOffset><feGaussianBlur stdDeviation="0.330091"></feGaussianBlur><feColorMatrix type="matrix" values="0 0 0 0 0.0352941 0 0 0 0 0.117647 0 0 0 0 0.258824 0 0 0 0.25 0"></feColorMatrix><feBlend mode="normal" in2="effect1_dropShadow_2106_239" result="effect2_dropShadow_2106_239"></feBlend><feBlend mode="normal" in="SourceGraphic" in2="effect2_dropShadow_2106_239" result="shape"></feBlend></filter></defs></svg> 