<?xml version="1.0" encoding="UTF-8"?> <svg xmlns="http://www.w3.org/2000/svg" width="369" height="76" viewBox="0 0 369 76" fill="none"><g filter="url(#filter0_dd_2096_233)"><rect x="1.32037" y="1.32031" width="366" height="73" rx="36.5" fill="#CBD13F"></rect><path d="M26.8788 21.8199H45.0866V52.3203H37.9236V28.3359H33.6258L33.5334 33.0496C33.441 38.4719 33.2253 42.554 32.8864 45.296C32.5475 47.9147 31.8081 49.794 30.6682 50.9339C29.5591 52.043 27.8184 52.5976 25.4462 52.5976C24.7992 52.5976 24.0906 52.5206 23.3204 52.3665V46.2664H24.0136C24.7838 46.2664 25.3383 45.9584 25.6772 45.3422C26.0161 44.726 26.2626 43.5091 26.4166 41.6914C26.6015 39.4116 26.7093 36.5156 26.7401 33.0034L26.8788 21.8199ZM58.6182 21.8199H66.0123L59.0804 44.6952C58.1869 47.6836 57.0932 49.794 55.7993 51.0264C54.5361 52.2279 52.7954 52.8287 50.5772 52.8287C49.4065 52.8287 48.2666 52.6746 47.1575 52.3665V46.2664C48.3282 46.3281 48.9444 46.3589 49.006 46.3589C50.3307 46.3589 51.2858 45.8351 51.8712 44.7876L43.9226 21.8199H51.5939L55.2909 34.2973L58.6182 21.8199ZM76.504 21.8199H83.667V52.3203H76.504V41.7838C75.21 42.1227 73.9931 42.2922 72.8532 42.2922C70.1112 42.2922 67.9546 41.4757 66.3834 39.8429C64.843 38.1792 64.0728 35.8686 64.0728 32.911V21.8199H71.2357V32.3102C71.2357 34.5592 72.237 35.6837 74.2396 35.6837C74.9482 35.6837 75.703 35.5451 76.504 35.2678V21.8199ZM84.7548 52.3203V21.8199H91.9177V45.8043H96.7701V21.8199H103.933V45.8043H108.785V21.8199H115.948V52.3203H84.7548ZM133.372 21.8199H137.069V52.3203H129.906V38.5027L120.802 52.3203H117.059V21.8199H124.268V35.4065L133.372 21.8199ZM154.483 21.8199H158.18V52.3203H151.017V38.5027L141.913 52.3203H138.17V21.8199H145.379V35.4065L154.483 21.8199ZM141.636 12.2077V10.2667H146.858V12.2539C146.858 13.1781 147.351 13.6403 148.337 13.6403C149.261 13.6403 149.723 13.1781 149.723 12.2539V10.2667H154.992V12.2077C154.992 14.2718 154.406 15.8739 153.236 17.0138C152.096 18.1229 150.463 18.6774 148.337 18.6774C146.211 18.6774 144.563 18.1229 143.392 17.0138C142.221 15.8739 141.636 14.2718 141.636 12.2077ZM175.465 52.8749C168.718 52.8749 165.345 47.6066 165.345 37.0701C165.345 26.5336 168.718 21.2654 175.465 21.2654C178.146 21.2654 180.241 22.0048 181.75 23.4836C183.26 24.9624 184.277 27.3038 184.8 30.5079L178.515 32.1254C178.269 30.6157 177.915 29.5374 177.452 28.8905C176.99 28.2127 176.359 27.8738 175.558 27.8738C174.479 27.8738 173.709 28.567 173.247 29.9534C172.816 31.3089 172.6 33.6812 172.6 37.0701C172.6 40.459 172.816 42.8467 173.247 44.2331C173.709 45.5887 174.479 46.2664 175.558 46.2664C176.359 46.2664 176.99 45.943 177.452 45.296C177.915 44.6182 178.269 43.5245 178.515 42.0149L184.8 43.6323C184.277 46.8364 183.26 49.1778 181.75 50.6567C180.241 52.1355 178.146 52.8749 175.465 52.8749ZM183.974 36.9777C183.974 31.6478 184.821 27.7043 186.516 25.1472C188.21 22.5593 190.798 21.2654 194.28 21.2654C197.823 21.2654 200.441 22.5439 202.136 25.101C203.83 27.6581 204.678 31.6016 204.678 36.9315C204.678 47.5604 201.212 52.8749 194.28 52.8749C190.798 52.8749 188.21 51.5809 186.516 48.993C184.821 46.3743 183.974 42.3692 183.974 36.9777ZM197.422 37.0701C197.422 33.6196 197.191 31.2319 196.729 29.9071C196.267 28.5516 195.45 27.8738 194.28 27.8738C193.109 27.8738 192.308 28.5208 191.877 29.8147C191.445 31.1087 191.23 33.4963 191.23 36.9777C191.23 40.459 191.445 42.8775 191.877 44.2331C192.339 45.5887 193.14 46.2664 194.28 46.2664C195.45 46.2664 196.267 45.5887 196.729 44.2331C197.191 42.8775 197.422 40.4899 197.422 37.0701ZM209.139 52.3203V28.3359H203.27V21.8199H222.171V28.3359H216.302V52.3203H209.139ZM221.931 52.3203V21.8199H231.081C234.439 21.8199 237.042 22.7288 238.891 24.5465C240.739 26.3642 241.664 28.9213 241.664 32.2178C241.664 35.4835 240.724 38.0406 238.845 39.8891C236.996 41.7068 234.408 42.6156 231.081 42.6156H229.094V52.3203H221.931ZM229.094 36.1921H231.127C233.284 36.1921 234.362 34.8673 234.362 32.2178C234.362 29.5682 233.284 28.2435 231.127 28.2435H229.094V36.1921ZM253.488 21.8199H260.882L253.95 44.6952C253.057 47.6836 251.963 49.794 250.669 51.0264C249.406 52.2279 247.665 52.8287 245.447 52.8287C244.276 52.8287 243.136 52.6746 242.027 52.3665V46.2664C243.198 46.3281 243.814 46.3589 243.876 46.3589C245.2 46.3589 246.155 45.8351 246.741 44.7876L238.792 21.8199H246.464L250.161 34.2973L253.488 21.8199ZM278.452 45.8043H281.179V58.8363H274.016V52.3203H263.618V58.8363H256.455V45.8043H258.303C259.135 44.4487 259.613 40.1818 259.736 33.0034L259.875 21.8199H278.452V45.8043ZM264.912 45.8043H271.289V28.3359H266.575L266.529 33.0496C266.498 38.8416 265.959 43.0932 264.912 45.8043ZM281.114 52.3203V21.8199H288.277V33.1882H293.961V21.8199H301.124V52.3203H293.961V39.7042H288.277V52.3203H281.114ZM318.538 21.8199H322.235V52.3203H315.072V38.5027L305.969 52.3203H302.225V21.8199H309.435V35.4065L318.538 21.8199ZM344.965 52.3203H337.108L330.5 37.8095V52.3203H323.337V21.8199H330.5V34.8057L336.646 21.8199H344.502L337.57 36.2845L344.965 52.3203Z" fill="black"></path></g><defs><filter id="filter0_dd_2096_233" x="1.00136e-05" y="-5.10216e-05" width="368.641" height="75.6407" filterUnits="userSpaceOnUse" color-interpolation-filters="sRGB"><feFlood flood-opacity="0" result="BackgroundImageFix"></feFlood><feColorMatrix in="SourceAlpha" type="matrix" values="0 0 0 0 0 0 0 0 0 0 0 0 0 0 0 0 0 0 127 0" result="hardAlpha"></feColorMatrix><feMorphology radius="0.660182" operator="dilate" in="SourceAlpha" result="effect1_dropShadow_2096_233"></feMorphology><feOffset></feOffset><feGaussianBlur stdDeviation="0.330091"></feGaussianBlur><feColorMatrix type="matrix" values="0 0 0 0 0.0352941 0 0 0 0 0.117647 0 0 0 0 0.258824 0 0 0 0.13 0"></feColorMatrix><feBlend mode="normal" in2="BackgroundImageFix" result="effect1_dropShadow_2096_233"></feBlend><feColorMatrix in="SourceAlpha" type="matrix" values="0 0 0 0 0 0 0 0 0 0 0 0 0 0 0 0 0 0 127 0" result="hardAlpha"></feColorMatrix><feOffset dy="0.660182"></feOffset><feGaussianBlur stdDeviation="0.330091"></feGaussianBlur><feColorMatrix type="matrix" values="0 0 0 0 0.0352941 0 0 0 0 0.117647 0 0 0 0 0.258824 0 0 0 0.25 0"></feColorMatrix><feBlend mode="normal" in2="effect1_dropShadow_2096_233" result="effect2_dropShadow_2096_233"></feBlend><feBlend mode="normal" in="SourceGraphic" in2="effect2_dropShadow_2096_233" result="shape"></feBlend></filter></defs></svg> 