<?xml version="1.0" encoding="UTF-8"?> <svg xmlns="http://www.w3.org/2000/svg" width="257" height="76" viewBox="0 0 257 76" fill="none"><g filter="url(#filter0_dd_2090_201)"><rect x="1.32036" y="1.32031" width="254" height="73" rx="36.5" fill="#CBD13F"></rect><path d="M42.6835 43.8172C42.6835 46.744 41.8979 48.993 40.3266 50.5642C38.7554 52.1047 36.4756 52.8749 33.4872 52.8749C28.1881 52.8749 25.0148 50.1945 23.9673 44.8339L30.1136 42.8467C30.5141 45.1265 31.5924 46.2664 33.3485 46.2664C35.043 46.2664 35.8902 45.2344 35.8902 43.1702C35.8902 42.0919 35.6283 41.2601 35.1046 40.6747C34.5809 40.0893 33.8415 39.7967 32.8864 39.7967H30.2985V34.0663H32.8864C34.8889 34.0663 35.8902 33.0034 35.8902 30.8776C35.8902 28.8751 35.0892 27.8738 33.4872 27.8738C31.8235 27.8738 30.7914 29.0137 30.3909 31.2935L24.2446 29.3064C25.2921 23.9457 28.4192 21.2654 33.6258 21.2654C36.5526 21.2654 38.7862 22.0356 40.3266 23.576C41.8979 25.0856 42.6835 27.273 42.6835 30.1382C42.6835 33.4347 41.4974 35.6683 39.1251 36.839C41.4974 38.1022 42.6835 40.4282 42.6835 43.8172ZM42.7571 52.3203V21.8199H49.9201V33.1882H55.6043V21.8199H62.7673V52.3203H55.6043V39.7042H49.9201V52.3203H42.7571ZM76.6697 52.3203L76.0689 49.3627H69.6454L68.9984 52.3203H61.743L71.0317 21.8199H74.7288L83.9713 52.3203H76.6697ZM72.8803 34.8981L70.8469 43.771H74.8674L72.8803 34.8981ZM82.9496 52.3203V21.8199H90.1125V33.1882H95.7967V21.8199H102.96V52.3203H95.7967V39.7042H90.1125V52.3203H82.9496ZM120.374 21.8199H124.071V52.3203H116.908V38.5027L107.804 52.3203H104.061V21.8199H111.27V35.4065L120.374 21.8199ZM135.386 21.8199H144.536V52.3203H137.373V43.0778H135.663L131.874 52.3203H124.387L129.055 41.2755C127.73 40.3204 126.682 39.0727 125.912 37.5322C125.173 35.9918 124.803 34.2974 124.803 32.4488C124.803 29.1215 125.727 26.5182 127.576 24.6389C129.455 22.7596 132.059 21.8199 135.386 21.8199ZM137.373 36.6542V28.2435H135.34C133.183 28.2435 132.105 29.6453 132.105 32.4488C132.105 35.2524 133.183 36.6542 135.34 36.6542H137.373ZM161.836 52.8749C155.089 52.8749 151.716 47.6066 151.716 37.0701C151.716 26.5336 155.089 21.2654 161.836 21.2654C164.516 21.2654 166.611 22.0048 168.121 23.4836C169.631 24.9624 170.647 27.3038 171.171 30.5079L164.886 32.1254C164.64 30.6157 164.285 29.5374 163.823 28.8905C163.361 28.2127 162.73 27.8738 161.929 27.8738C160.85 27.8738 160.08 28.567 159.618 29.9534C159.187 31.3089 158.971 33.6812 158.971 37.0701C158.971 40.459 159.187 42.8467 159.618 44.2331C160.08 45.5887 160.85 46.2664 161.929 46.2664C162.73 46.2664 163.361 45.943 163.823 45.296C164.285 44.6182 164.64 43.5245 164.886 42.0149L171.171 43.6323C170.647 46.8364 169.631 49.1778 168.121 50.6567C166.611 52.1355 164.516 52.8749 161.836 52.8749ZM187.536 21.8199H191.233V52.3203H184.07V38.5027L174.966 52.3203H171.223V21.8199H178.432V35.4065L187.536 21.8199ZM194.183 21.8199H212.391V52.3203H205.228V28.3359H200.93L200.838 33.0496C200.745 38.4719 200.53 42.554 200.191 45.296C199.852 47.9147 199.113 49.794 197.973 50.9339C196.864 52.043 195.123 52.5976 192.751 52.5976C192.104 52.5976 191.395 52.5206 190.625 52.3665V46.2664H191.318C192.088 46.2664 192.643 45.9584 192.982 45.3422C193.321 44.726 193.567 43.5091 193.721 41.6914C193.906 39.4116 194.014 36.5156 194.045 33.0034L194.183 21.8199ZM226.292 52.3203L225.692 49.3627H219.268L218.621 52.3203H211.366L220.654 21.8199H224.351L233.594 52.3203H226.292ZM222.503 34.8981L220.47 43.771H224.49L222.503 34.8981Z" fill="black"></path></g><defs><filter id="filter0_dd_2090_201" x="-5.24521e-06" y="-5.10216e-05" width="256.641" height="75.6407" filterUnits="userSpaceOnUse" color-interpolation-filters="sRGB"><feFlood flood-opacity="0" result="BackgroundImageFix"></feFlood><feColorMatrix in="SourceAlpha" type="matrix" values="0 0 0 0 0 0 0 0 0 0 0 0 0 0 0 0 0 0 127 0" result="hardAlpha"></feColorMatrix><feMorphology radius="0.660182" operator="dilate" in="SourceAlpha" result="effect1_dropShadow_2090_201"></feMorphology><feOffset></feOffset><feGaussianBlur stdDeviation="0.330091"></feGaussianBlur><feColorMatrix type="matrix" values="0 0 0 0 0.0352941 0 0 0 0 0.117647 0 0 0 0 0.258824 0 0 0 0.13 0"></feColorMatrix><feBlend mode="normal" in2="BackgroundImageFix" result="effect1_dropShadow_2090_201"></feBlend><feColorMatrix in="SourceAlpha" type="matrix" values="0 0 0 0 0 0 0 0 0 0 0 0 0 0 0 0 0 0 127 0" result="hardAlpha"></feColorMatrix><feOffset dy="0.660182"></feOffset><feGaussianBlur stdDeviation="0.330091"></feGaussianBlur><feColorMatrix type="matrix" values="0 0 0 0 0.0352941 0 0 0 0 0.117647 0 0 0 0 0.258824 0 0 0 0.25 0"></feColorMatrix><feBlend mode="normal" in2="effect1_dropShadow_2090_201" result="effect2_dropShadow_2090_201"></feBlend><feBlend mode="normal" in="SourceGraphic" in2="effect2_dropShadow_2090_201" result="shape"></feBlend></filter></defs></svg> 