<?xml version="1.0" encoding="UTF-8"?> <svg xmlns="http://www.w3.org/2000/svg" id="_Слой_2" data-name="Слой 2" viewBox="0 0 3076.72 541"><defs><style> .cls-1 { fill: #141414; } .cls-2 { fill: #ed1c29; } </style></defs><g id="Layer_1" data-name="Layer 1"><g><g><polygon class="cls-2" points="887.75 541 951.68 379.56 887.75 219.32 1016.07 219.32 1080 379.56 1016.34 541 887.75 541"></polygon><path d="M452.11,455.88v70.8h-38.8v-234.37h36.29v14.05s12.09-12.57,12.09-12.57c79.47-33.36,78.48,115.89,54.02,154.83-10.52,16.74-33.19,24.58-51.38,15.86-5-2.4-7.28-7.02-12.23-8.6ZM466.77,325.8c-2.74.64-7.48,5.1-8.97,7.46-8.37,13.28-7.09,67.47-2.57,83,6.11,20.98,25.85,18.54,31.31-1.26,4.67-16.92,5.46-67.19-3.6-81.99-3.48-5.69-9.42-8.79-16.18-7.22Z"></path><path d="M650.05,392.77h-73.29c1.56,18.08,6.66,44.96,31.36,38.28,9.31-2.52,11.97-10.62,18.53-15.63,1.84,0,24.7,19.01,24.68,20.89-17.63,38.07-77.09,43.03-99.63,7.38-25-39.56-24.02-150.47,39.52-154.54,61.16-3.92,64.21,58.08,58.82,103.62ZM614.67,363.72v-18.31c0-1.41-2.93-10.71-3.77-12.65-2.13-4.95-5.21-8.5-10.84-9.36-22.1-3.39-22.85,25-23.3,40.33h37.91Z"></path><path d="M709.1,426.43c6.55,6.35,18.62,4.89,23.32-2.91,1.9-3.15,3.51-13.45,6.01-14.19l33.19,7.48c-3.91,37.92-31.64,58.24-69.51,48.7-52.01-13.11-51.61-116.8-28.74-152.61,21.08-33.02,75.31-32.29,92.19,4.85,1.68,3.69,7.38,18.36,5.54,21.04-1.63,2.37-27.87,7.14-32.67,8.66-3.68-1.09-3.4-22.8-20.16-21.24-8.76.82-11.69,6.2-14.01,13.79-5,16.31-5.02,61.54.27,77.78.83,2.53,2.72,6.87,4.56,8.66Z"></path><polygon points="891.77 291.64 891.77 326.73 854.53 326.73 854.53 467.1 811.97 467.1 811.97 326.73 774.73 326.73 774.73 291.64 891.77 291.64"></polygon><polygon class="cls-2" points="192.25 0 128.32 161.44 192.25 321.68 63.93 321.68 0 161.44 63.66 0 192.25 0"></polygon><g><path d="M393.59,250.87v70.8h-38.8V87.31h36.29v14.05s12.09-12.57,12.09-12.57c79.47-33.36,78.48,115.89,54.02,154.83-10.52,16.74-33.19,24.58-51.38,15.86-5-2.4-7.28-7.02-12.23-8.6ZM408.25,120.8c-2.74.64-7.48,5.1-8.97,7.46-8.37,13.28-7.09,67.47-2.57,83,6.11,20.98,25.85,18.54,31.31-1.26,4.67-16.92,5.46-67.19-3.6-81.99-3.48-5.69-9.42-8.79-16.18-7.22Z"></path><path d="M347.48,263.19h-43.53l-7.76-29.01-58.13-.7-6.66,29.7h-44.85L256.41,30.14c5.07-.36,21.05-2.55,23.58,1.58l67.49,231.46ZM288.12,196.25l-20.45-84.02-20.45,84.02h40.89Z"></path><path d="M592.53,87.31v35.35h-35.65c-.14,0-2.02,1.83-2.02,1.96v138.14h-41.7V124.63c0-1.43-3.28-1.88-4.64-2.03-10.43-1.19-22.57.88-33.03,1.38v-35.35l117.04-1.31Z"></path></g></g><rect class="cls-1" x="1191.27" width="6.65" height="538.18"></rect><g><path class="cls-1" d="M1704.61,150.01c-70.45,0-118.58,40.37-118.58,112.76s44.93,113.05,118.58,113.05,119.43-40.68,119.43-113.05-45.22-112.76-119.43-112.76M1704.61,338.23c-22.03,0-32.47-24.96-32.47-75.46s10.44-76.4,32.47-76.4,33.06,25.57,33.06,76.4-10.73,75.46-33.06,75.46"></path><polygon class="cls-1" points="2764.54 248.9 2817.01 248.9 2833.82 154.64 2764.25 154.64 2764.54 248.9"></polygon><path class="cls-1" d="M2631.36,338.23c-25.23,0-37.98-33.88-37.98-75.46s16.53-75.47,41.45-75.47c20.44,0,27.82,24.82,29.81,37.5h64.99v-51.37c-24.92-16.32-57.1-23.71-104.94-23.71-84.94,0-117.7,50.52-117.7,113.05s32.76,112.43,117.7,112.43c74.37,0,103.11-39.8,110.39-82.5h-68.88c-3.28,22.13-11.81,45.53-34.85,45.53"></path><path class="cls-1" d="M2009.74,237.2l-49.87-11.4c-23.77-5.55-37.67-8.01-37.67-19.73s13.9-20,37.67-20c25.4,0,41.62,14.87,55.94,35.97h44.36v-49.84c-17.38-13.24-66.38-22.49-100.3-22.49-65.23,0-105.24,26.5-105.24,66.85s23.47,61.97,75.09,72.69l30.15,5.86c31.02,6.17,45.51,11.4,45.51,23.12s-14.78,18.77-45.51,18.77c-27.73,0-46.14-12.81-58.83-35.96h-44.96v47.36c19.73,12.63,50.74,26.19,103.79,26.19,70.45,0,117.99-25.87,117.99-70.54,0-34.51-22.02-56.36-68.12-66.85"></path><path class="cls-1" d="M2100.89,227.88h37.62c1.96-18.6,16.86-38.02,36.3-36.59h.02l.56,118.29c0,12.63-11.88,24.02-24.92,24.02h-.89v36.67h127.86v-36.67h-.88c-13.04,0-24.92-11.39-24.92-24.02l-.58-118.29c17.69.94,33.04,16.02,33.61,33.27l.11,3.31h37.59v-73.24h-221.49v73.24Z"></path><path class="cls-1" d="M2356.07,191.3h7.54c10.42,0,18.26,8.01,18.26,18.79v99.5c0,12.63-11.89,24.02-24.95,24.02h-.86v36.66h127.84v-36.66h-.85c-13.05,0-24.95-11.39-24.95-24.02v-99.5c0-10.78,7.26-18.79,17.69-18.79h8.12v-36.66h-127.84v36.66Z"></path><path class="cls-1" d="M1551.16,324.37l-55.07-63.14c33.91-15.11,52.18-32.36,52.18-55.77,0-35.74-34.79-50.82-65.81-50.82h-169.59v36.66c13.05,0,24.64,11.39,24.64,24.02v94.26c0,12.63-11.59,24.02-24.64,24.02v36.66h127.9v-36.66h-1.2c-13.06,0-24.94-11.39-24.94-24.02v-22.49l13.33-3.7,43.19,49.91c20.01,23.1,49.29,38.69,77.71,38.69,4.72,0,10.75-.3,18.6-1.54v-36.84c-8.85,0-14.75-7.36-16.29-9.24M1414.62,268.31l-.29-50.83c0-20.01,16.81-30.49,32.47-30.49,13.33,0,25.79,7.7,25.79,23.71,0,25.27-40.58,48.66-57.97,57.61"></path><path class="cls-1" d="M3008.6,237.2l-49.87-11.4c-23.77-5.55-37.69-8.01-37.69-19.73s13.92-20,37.69-20c25.4,0,41.63,14.87,55.94,35.97h44.36v-49.84c-17.38-13.24-66.38-22.49-100.3-22.49-65.23,0-105.24,26.5-105.24,66.85s23.47,61.97,75.09,72.69l30.15,5.86c31.02,6.17,45.51,11.4,45.51,23.12s-14.78,18.77-45.51,18.77c-27.73,0-46.14-12.81-58.83-35.96h-44.96v47.36c19.73,12.63,50.74,26.19,103.79,26.19,70.45,0,117.99-25.87,117.99-70.54,0-34.51-22.02-56.36-68.12-66.85"></path></g></g></g></svg> 