<?xml version="1.0" encoding="UTF-8"?> <svg xmlns="http://www.w3.org/2000/svg" width="303" height="76" viewBox="0 0 303 76" fill="none"><g filter="url(#filter0_dd_2096_231)"><rect x="1.32037" y="1.32031" width="300" height="73" rx="36.5" fill="#76BEE9"></rect><path d="M45.8722 45.8043H48.5987V58.8363H41.4358V52.3203H31.0379V58.8363H23.8749V45.8043H25.7234C26.5553 44.4487 27.0328 40.1818 27.156 33.0034L27.2947 21.8199H45.8722V45.8043ZM32.3319 45.8043H38.7092V28.3359H33.9955L33.9493 33.0496C33.9185 38.8416 33.3793 43.0932 32.3319 45.8043ZM48.5337 52.3203V21.8199H63.9688V28.2435H55.6967V33.4193H61.7968V39.427H55.6967V45.8505H64.4309V52.3203H48.5337ZM65.1775 52.3203V21.8199H72.3405V33.1882H78.0247V21.8199H85.1877V52.3203H78.0247V39.7042H72.3405V52.3203H65.1775ZM86.2892 52.3203V21.8199H93.4522V31.5246H95.4393C98.7666 31.5246 101.355 32.4488 103.203 34.2973C105.082 36.115 106.022 38.6567 106.022 41.9224C106.022 45.219 105.098 47.7761 103.249 49.5938C101.401 51.4115 98.7974 52.3203 95.4393 52.3203H86.2892ZM93.4522 45.8967H95.4855C97.6421 45.8967 98.7204 44.572 98.7204 41.9224C98.7204 39.2729 97.6421 37.9482 95.4855 37.9482H93.4522V45.8967ZM133.623 52.3203H125.766L119.158 37.8095V52.3203H111.995V21.8199H119.158V34.8057L125.304 21.8199H133.16L126.229 36.2845L133.623 52.3203ZM130.423 36.9777C130.423 31.6478 131.271 27.7043 132.965 25.1472C134.66 22.5593 137.247 21.2654 140.729 21.2654C144.272 21.2654 146.891 22.5439 148.585 25.101C150.279 27.6581 151.127 31.6016 151.127 36.9315C151.127 47.5604 147.661 52.8749 140.729 52.8749C137.247 52.8749 134.66 51.5809 132.965 48.993C131.271 46.3743 130.423 42.3692 130.423 36.9777ZM143.871 37.0701C143.871 33.6196 143.64 31.2319 143.178 29.9071C142.716 28.5516 141.9 27.8738 140.729 27.8738C139.558 27.8738 138.757 28.5208 138.326 29.8147C137.894 31.1087 137.679 33.4963 137.679 36.9777C137.679 40.459 137.894 42.8775 138.326 44.2331C138.788 45.5887 139.589 46.2664 140.729 46.2664C141.9 46.2664 142.716 45.5887 143.178 44.2331C143.64 42.8775 143.871 40.4899 143.871 37.0701ZM170.6 21.8199H174.297V52.3203H167.134V40.8596L164.084 46.3127H161.588L158.538 40.8596V52.3203H151.375V21.8199H155.072L162.836 36.1921L170.6 21.8199ZM175.42 52.3203V21.8199H195.014V52.3203H187.851V28.3359H182.583V52.3203H175.42ZM208.927 52.3203L208.326 49.3627H201.902L201.255 52.3203H194L203.289 21.8199H206.986L216.228 52.3203H208.927ZM205.137 34.8981L203.104 43.771H207.124L205.137 34.8981ZM215.206 52.3203V21.8199H222.369V33.1882H228.054V21.8199H235.217V52.3203H228.054V39.7042H222.369V52.3203H215.206ZM252.631 21.8199H256.328V52.3203H249.165V38.5027L240.061 52.3203H236.318V21.8199H243.527V35.4065L252.631 21.8199ZM273.743 21.8199H277.44V52.3203H270.277V38.5027L261.173 52.3203H257.43V21.8199H264.639V35.4065L273.743 21.8199Z" fill="black"></path></g><defs><filter id="filter0_dd_2096_231" x="1.00136e-05" y="-5.10216e-05" width="302.641" height="75.6407" filterUnits="userSpaceOnUse" color-interpolation-filters="sRGB"><feFlood flood-opacity="0" result="BackgroundImageFix"></feFlood><feColorMatrix in="SourceAlpha" type="matrix" values="0 0 0 0 0 0 0 0 0 0 0 0 0 0 0 0 0 0 127 0" result="hardAlpha"></feColorMatrix><feMorphology radius="0.660182" operator="dilate" in="SourceAlpha" result="effect1_dropShadow_2096_231"></feMorphology><feOffset></feOffset><feGaussianBlur stdDeviation="0.330091"></feGaussianBlur><feColorMatrix type="matrix" values="0 0 0 0 0.0352941 0 0 0 0 0.117647 0 0 0 0 0.258824 0 0 0 0.13 0"></feColorMatrix><feBlend mode="normal" in2="BackgroundImageFix" result="effect1_dropShadow_2096_231"></feBlend><feColorMatrix in="SourceAlpha" type="matrix" values="0 0 0 0 0 0 0 0 0 0 0 0 0 0 0 0 0 0 127 0" result="hardAlpha"></feColorMatrix><feOffset dy="0.660182"></feOffset><feGaussianBlur stdDeviation="0.330091"></feGaussianBlur><feColorMatrix type="matrix" values="0 0 0 0 0.0352941 0 0 0 0 0.117647 0 0 0 0 0.258824 0 0 0 0.25 0"></feColorMatrix><feBlend mode="normal" in2="effect1_dropShadow_2096_231" result="effect2_dropShadow_2096_231"></feBlend><feBlend mode="normal" in="SourceGraphic" in2="effect2_dropShadow_2096_231" result="shape"></feBlend></filter></defs></svg> 