<?xml version="1.0" encoding="UTF-8"?> <svg xmlns="http://www.w3.org/2000/svg" width="247" height="76" viewBox="0 0 247 76" fill="none"><g filter="url(#filter0_dd_2096_223)"><rect x="1.32037" y="1.32031" width="244" height="73" rx="36.5" fill="white"></rect><path d="M25.0302 52.3203V21.8199H44.6244V52.3203H37.4615V28.3359H32.1932V52.3203H25.0302ZM44.8577 36.9777C44.8577 31.6478 45.7049 27.7043 47.3994 25.1472C49.0938 22.5593 51.6817 21.2654 55.1631 21.2654C58.7061 21.2654 61.3248 22.5439 63.0193 25.101C64.7137 27.6581 65.561 31.6016 65.561 36.9315C65.561 47.5604 62.095 52.8749 55.1631 52.8749C51.6817 52.8749 49.0938 51.5809 47.3994 48.993C45.7049 46.3743 44.8577 42.3692 44.8577 36.9777ZM58.3056 37.0701C58.3056 33.6196 58.0745 31.2319 57.6124 29.9071C57.1503 28.5516 56.3338 27.8738 55.1631 27.8738C53.9924 27.8738 53.1914 28.5208 52.76 29.8147C52.3287 31.1087 52.1131 33.4963 52.1131 36.9777C52.1131 40.459 52.3287 42.8775 52.76 44.2331C53.2222 45.5887 54.0232 46.2664 55.1631 46.2664C56.3338 46.2664 57.1503 45.5887 57.6124 44.2331C58.0745 42.8775 58.3056 40.4899 58.3056 37.0701ZM86.1549 45.8043H88.8814V58.8363H81.7185V52.3203H71.3206V58.8363H64.1576V45.8043H66.0061C66.838 44.4487 67.3155 40.1818 67.4387 33.0034L67.5774 21.8199H86.1549V45.8043ZM72.6145 45.8043H78.9919V28.3359H74.2782L74.232 33.0496C74.2012 38.8416 73.662 43.0932 72.6145 45.8043ZM88.8164 52.3203V21.8199H108.411V52.3203H101.248V28.3359H95.9794V52.3203H88.8164ZM125.835 21.8199H129.532V52.3203H122.369V38.5027L113.265 52.3203H109.522V21.8199H116.731V35.4065L125.835 21.8199ZM130.634 52.3203V21.8199H137.797V45.8043H142.649V21.8199H149.812V45.8043H154.664V21.8199H161.827V52.3203H130.634ZM179.25 21.8199H182.947V52.3203H175.784V38.5027L166.681 52.3203H162.937V21.8199H170.147V35.4065L179.25 21.8199ZM193.291 52.8749C186.544 52.8749 183.171 47.6066 183.171 37.0701C183.171 26.5336 186.544 21.2654 193.291 21.2654C195.972 21.2654 198.067 22.0048 199.576 23.4836C201.086 24.9624 202.103 27.3038 202.626 30.5079L196.342 32.1254C196.095 30.6157 195.741 29.5374 195.279 28.8905C194.817 28.2127 194.185 27.8738 193.384 27.8738C192.306 27.8738 191.535 28.567 191.073 29.9534C190.642 31.3089 190.426 33.6812 190.426 37.0701C190.426 40.459 190.642 42.8467 191.073 44.2331C191.535 45.5887 192.306 46.2664 193.384 46.2664C194.185 46.2664 194.817 45.943 195.279 45.296C195.741 44.6182 196.095 43.5245 196.342 42.0149L202.626 43.6323C202.103 46.8364 201.086 49.1778 199.576 50.6567C198.067 52.1355 195.972 52.8749 193.291 52.8749ZM202.678 52.3203V21.8199H209.841V31.5246H211.829C215.156 31.5246 217.744 32.4488 219.592 34.2973C221.472 36.115 222.411 38.6567 222.411 41.9224C222.411 45.219 221.487 47.7761 219.639 49.5938C217.79 51.4115 215.187 52.3203 211.829 52.3203H202.678ZM209.841 45.8967H211.875C214.031 45.8967 215.11 44.572 215.11 41.9224C215.11 39.2729 214.031 37.9482 211.875 37.9482H209.841V45.8967Z" fill="black"></path></g><defs><filter id="filter0_dd_2096_223" x="1.00136e-05" y="-5.10216e-05" width="246.641" height="75.6407" filterUnits="userSpaceOnUse" color-interpolation-filters="sRGB"><feFlood flood-opacity="0" result="BackgroundImageFix"></feFlood><feColorMatrix in="SourceAlpha" type="matrix" values="0 0 0 0 0 0 0 0 0 0 0 0 0 0 0 0 0 0 127 0" result="hardAlpha"></feColorMatrix><feMorphology radius="0.660182" operator="dilate" in="SourceAlpha" result="effect1_dropShadow_2096_223"></feMorphology><feOffset></feOffset><feGaussianBlur stdDeviation="0.330091"></feGaussianBlur><feColorMatrix type="matrix" values="0 0 0 0 0.0352941 0 0 0 0 0.117647 0 0 0 0 0.258824 0 0 0 0.13 0"></feColorMatrix><feBlend mode="normal" in2="BackgroundImageFix" result="effect1_dropShadow_2096_223"></feBlend><feColorMatrix in="SourceAlpha" type="matrix" values="0 0 0 0 0 0 0 0 0 0 0 0 0 0 0 0 0 0 127 0" result="hardAlpha"></feColorMatrix><feOffset dy="0.660182"></feOffset><feGaussianBlur stdDeviation="0.330091"></feGaussianBlur><feColorMatrix type="matrix" values="0 0 0 0 0.0352941 0 0 0 0 0.117647 0 0 0 0 0.258824 0 0 0 0.25 0"></feColorMatrix><feBlend mode="normal" in2="effect1_dropShadow_2096_223" result="effect2_dropShadow_2096_223"></feBlend><feBlend mode="normal" in="SourceGraphic" in2="effect2_dropShadow_2096_223" result="shape"></feBlend></filter></defs></svg> 