<?xml version="1.0" encoding="UTF-8"?> <svg xmlns="http://www.w3.org/2000/svg" width="154" height="76" viewBox="0 0 154 76" fill="none"><g filter="url(#filter0_dd_2081_190)"><rect x="1.32037" y="1.32031" width="151" height="73" rx="36.5" fill="#CBD13F"></rect><path d="M37.8312 52.3203L37.2304 49.3627H30.8068L30.1599 52.3203H22.9045L32.1932 21.8199H35.8902L45.1328 52.3203H37.8312ZM34.0417 34.8981L32.0084 43.771H36.0289L34.0417 34.8981ZM65.7386 52.3203H57.8824L51.274 37.8095V52.3203H44.111V21.8199H51.274V34.8057L57.4203 21.8199H65.2765L58.3446 36.2845L65.7386 52.3203ZM80.1999 58.8363V52.3203H65.0422V21.8199H72.2051V45.8043H77.4734V21.8199H84.6364V45.8043H87.3629V58.8363H80.1999ZM103.64 21.8199H107.337V52.3203H100.174V38.5027L91.0704 52.3203H87.3272V21.8199H94.5363V35.4065L103.64 21.8199ZM124.752 21.8199H128.449V52.3203H121.286V38.5027L112.182 52.3203H108.439V21.8199H115.648V35.4065L124.752 21.8199Z" fill="black"></path></g><defs><filter id="filter0_dd_2081_190" x="1.00136e-05" y="-5.10216e-05" width="153.641" height="75.6407" filterUnits="userSpaceOnUse" color-interpolation-filters="sRGB"><feFlood flood-opacity="0" result="BackgroundImageFix"></feFlood><feColorMatrix in="SourceAlpha" type="matrix" values="0 0 0 0 0 0 0 0 0 0 0 0 0 0 0 0 0 0 127 0" result="hardAlpha"></feColorMatrix><feMorphology radius="0.660182" operator="dilate" in="SourceAlpha" result="effect1_dropShadow_2081_190"></feMorphology><feOffset></feOffset><feGaussianBlur stdDeviation="0.330091"></feGaussianBlur><feColorMatrix type="matrix" values="0 0 0 0 0.0352941 0 0 0 0 0.117647 0 0 0 0 0.258824 0 0 0 0.13 0"></feColorMatrix><feBlend mode="normal" in2="BackgroundImageFix" result="effect1_dropShadow_2081_190"></feBlend><feColorMatrix in="SourceAlpha" type="matrix" values="0 0 0 0 0 0 0 0 0 0 0 0 0 0 0 0 0 0 127 0" result="hardAlpha"></feColorMatrix><feOffset dy="0.660182"></feOffset><feGaussianBlur stdDeviation="0.330091"></feGaussianBlur><feColorMatrix type="matrix" values="0 0 0 0 0.0352941 0 0 0 0 0.117647 0 0 0 0 0.258824 0 0 0 0.25 0"></feColorMatrix><feBlend mode="normal" in2="effect1_dropShadow_2081_190" result="effect2_dropShadow_2081_190"></feBlend><feBlend mode="normal" in="SourceGraphic" in2="effect2_dropShadow_2081_190" result="shape"></feBlend></filter></defs></svg> 