<?xml version="1.0" encoding="UTF-8"?> <svg xmlns="http://www.w3.org/2000/svg" id="_Слой_2" data-name="Слой 2" viewBox="0 0 550.12 764.04"><defs><style> .cls-1 { fill: #fff; } </style></defs><g id="_Слой_1-2" data-name="Слой 1"><g><g><path class="cls-1" d="M537.47,752.22l-288.62-41.09c-.54-.08-1.08-.11-1.62-.11-.08,0-.16,0-.24,0-3.22-3.98-6.43-7.97-9.6-11.92-89.43-111.84-153.93-213.23-191.7-301.33-28.99-67.63-31.57-103.45-31.79-109.94-.02-.68-.11-1.36-.25-2.03l-1.38-6.41c-3.82-17.8,6.95-35.43,24.53-40.14,2.93-.78,5.92-1.18,8.89-1.18,5.18,0,10.19,1.18,14.9,3.5,1.6.79,3.34,1.19,5.08,1.19,1.61,0,3.23-.34,4.74-1.02,3.13-1.42,5.47-4.16,6.37-7.48,3.16-11.71,12.41-20.95,24.13-24.09,2.9-.77,5.88-1.17,8.84-1.17,3.62,0,7.21.59,10.67,1.75,1.19.4,2.43.59,3.65.59,2.79,0,5.53-1.01,7.67-2.93,3.08-2.75,4.44-6.95,3.58-10.99l-31.24-145.21c-1.85-8.57-.24-17.34,4.52-24.7,4.76-7.36,12.09-12.44,20.66-14.28l4.57-.97c2.29-.49,4.6-.74,6.89-.74,14.61,0,27.61,9.81,31.59,23.85l46.28,162.95c1.4,4.95,5.92,8.36,11.06,8.36h0c5.14,0,9.66-3.42,11.06-8.37l41.9-148.33c3.98-14.08,16.91-23.92,31.45-23.92,2.58,0,5.18.31,7.73.92,8.53,2.03,15.75,7.26,20.35,14.73,4.59,7.46,6,16.27,3.97,24.8l-50.81,213.04c-.76,3.21-.12,6.59,1.79,9.29,1.9,2.7,4.87,4.45,8.15,4.81,3.59.39,7.14,1.09,10.29,2.03,1.08.32,2.18.47,3.27.47,3.49,0,6.86-1.59,9.08-4.44,9.05-11.63,32.51-40.56,54.86-58.02,9.94-7.78,20.92-11.71,32.66-11.71,13.5,0,23.93,5.26,25.72,6.22l-109.55,184.45c-1.59,2.68-2.03,5.88-1.21,8.88,29.79,109.72,84.39,193.6,124.95,244.63,40.95,51.53,76.31,81.09,82.53,86.13-.11-.02-.22-.04-.33-.05Z"></path><path d="M140.71,23c9.5,0,17.94,6.37,20.53,15.49l46.28,162.95c2.81,9.89,11.84,16.72,22.12,16.72h.02c10.29,0,19.32-6.85,22.12-16.75l41.9-148.33c2.62-9.3,10.82-15.54,20.38-15.54,1.68,0,3.39.2,5.08.61,5.61,1.33,10.17,4.64,13.2,9.56,2.98,4.85,3.9,10.57,2.58,16.1l-50.81,213.05c-1.53,6.42-.23,13.19,3.57,18.58,3.8,5.39,9.73,8.9,16.29,9.62,3.68.4,6.54,1.1,8.28,1.62,2.16.64,4.35.95,6.53.95,6.98,0,13.72-3.18,18.15-8.87,8.79-11.29,31.53-39.35,52.87-56.03,7.97-6.24,16.33-9.27,25.56-9.27,3.14,0,6.07.36,8.68.89l-102.4,172.41c-3.18,5.35-4.05,11.76-2.42,17.77,30.3,111.61,85.81,196.89,127.05,248.78,21.26,26.76,40.87,47.56,55.93,62.29l-249.25-35.48c-2.21-2.75-4.4-5.47-6.57-8.17-48.64-60.83-90.42-119.42-124.18-174.14-27.29-44.24-49.48-86.14-65.94-124.56-28.78-67.13-30.74-102.05-30.87-105.81-.05-1.36-.21-2.72-.5-4.05l-1.38-6.4c-2.54-11.81,4.61-23.5,16.26-26.62,1.96-.52,3.95-.79,5.92-.79,3.4,0,6.7.78,9.81,2.31,3.2,1.58,6.68,2.37,10.17,2.37,3.23,0,6.46-.68,9.47-2.04,6.27-2.83,10.94-8.32,12.73-14.96,2.1-7.77,8.23-13.89,15.97-15.97,1.95-.52,3.93-.78,5.89-.78,2.38,0,4.74.39,7.03,1.15,2.39.8,4.85,1.19,7.29,1.19,5.58,0,11.06-2.03,15.34-5.86,6.16-5.51,8.89-13.9,7.15-21.98l-31.24-145.22c-1.21-5.64-.2-11.18,2.94-16.04,3.13-4.85,7.77-8.06,13.38-9.27l4.59-.98s.04,0,.05-.01c1.46-.32,2.96-.48,4.44-.48M140.71,0c-3.07,0-6.18.32-9.29.99l-4.59.98c-11.57,2.49-21.48,9.34-27.9,19.28-6.43,9.95-8.59,21.8-6.1,33.36l31.24,145.21c-4.63-1.55-9.45-2.34-14.33-2.34-3.93,0-7.89.51-11.81,1.56-16.25,4.36-28.14,16.97-32.25,32.2-6.29-3.1-13.09-4.68-19.98-4.68-3.95,0-7.93.52-11.87,1.57-23.51,6.3-37.91,29.88-32.8,53.67l1.38,6.41c.52,15.2,11.38,149.66,226.01,418.08,3.2,3.99,6.44,8.02,9.72,12.08.8.98,1.74,1.8,2.76,2.44.79.5,1.63.87,2.51,1.15h-.02s.06.01.06.01c1.11.36,2.27.56,3.43.56.12,0,.24-.01.36-.02l288.62,41.09c.99.28,2,.42,3,.43h.04s0,0,0,0h0c3.35,0,6.66-1.49,8.87-4.34,3.81-4.89,2.92-11.94-1.96-15.75-1.49-1.15-147.76-116.92-204.37-325.45l109.7-184.7c1.53-2.58,1.96-5.66,1.21-8.56-.76-2.9-2.64-5.38-5.23-6.88-.89-.52-13.95-7.91-31.73-7.91-11.88,0-25.87,3.3-39.74,14.16-23.04,18.01-46.63,46.89-56.85,60.02-3.31-.98-7.47-1.9-12.3-2.43l50.81-213.05c2.74-11.51.84-23.41-5.36-33.49-6.2-10.08-15.95-17.15-27.47-19.89-3.48-.83-6.97-1.23-10.4-1.23-19.41,0-37.01,12.79-42.52,32.29l-41.9,148.33-46.28-162.95C177.88,12.87,160.1,0,140.71,0h0Z"></path></g><g><path class="cls-1" d="M329.65,416.87l.57-.96c-.15.67-.25,1.35-.28,2.04-.1-.36-.19-.72-.29-1.08ZM27.28,349.17c-10.42-32.18-12.74-51.64-13.25-59.04l4.59,21.32c2.4,11.15,10.17,20.15,20.22,24.51-.06,0-.12,0-.18,0-3.01,0-5.96,1.18-8.15,3.38-2.6,2.61-3.76,6.26-3.22,9.83ZM86.71,309.93c.72-4.27.62-8.69-.32-13.07l-1.87-8.69c2.8,6.79,7.7,12.46,13.81,16.27-.58-.09-1.15-.13-1.73-.13-1.62,0-3.24.34-4.75,1.03-2.16.98-3.94,2.6-5.13,4.59ZM322.45,297.71c-.5-.27-1.72-.88-3.59-1.59,2.31-.01,4.56-.73,6.46-2.04-1.45,1.89-2.4,3.17-2.78,3.67-.03-.02-.06-.03-.09-.05ZM288.55,293.3c2.88-1.52,5.04-4.23,5.82-7.5l.65-2.72c.16,2.04.86,4.03,2.06,5.74,1.22,1.73,2.87,3.07,4.76,3.9-1.14-.06-2.31-.09-3.53-.09-3.21,0-6.47.23-9.76.68ZM77.69,258.98c-2.77-6.76-7.59-12.45-13.98-16.35-.04-.03-.08-.05-.12-.07.69.13,1.39.19,2.09.19,1.62,0,3.23-.34,4.74-1.02,2.18-.98,3.97-2.61,5.16-4.62-.75,4.29-.71,8.79.27,13.31l1.84,8.57ZM436.13,236.52c.55-2.38.33-4.91-.67-7.2-.93-2.12-2.46-3.87-4.36-5.08,5.4,1.56,9.05,3.43,9.99,3.93l-4.96,8.35ZM220.07,201.53c2.09,3.14,5.65,5.13,9.57,5.13h0c3.93,0,7.49-2,9.58-5.15l-9.56,33.83-9.6-33.81ZM141.67,229.59c-2.79-6.63-7.56-12.21-13.86-16.05-1.38-.84-2.8-1.58-4.26-2.22.17,0,.34.01.52.01,2.79,0,5.53-1.02,7.67-2.93,2.18-1.95,3.5-4.62,3.77-7.45l6.16,28.64Z"></path><path d="M140.7,0c-3.07,0-6.18.32-9.28.99l-4.59.99c-11.57,2.49-21.48,9.34-27.9,19.28-6.42,9.94-8.59,21.79-6.1,33.36l31.24,145.2c-4.63-1.55-9.46-2.34-14.33-2.34-3.93,0-7.89.51-11.81,1.56-16.25,4.36-28.14,16.97-32.24,32.2-6.29-3.1-13.09-4.68-19.98-4.68-3.95,0-7.94.52-11.87,1.58-23.51,6.3-37.91,29.87-32.8,53.66l1.38,6.41c.53,15.43,11.71,153.69,235.73,430.16,2.22,2.74,5.46,4.16,8.73,4.16,2.48,0,4.98-.82,7.06-2.51,4.82-3.9,5.56-10.97,1.66-15.79-14.99-18.5-28.94-36.33-42.05-53.57C103.8,506.27,57.86,405.71,38.65,347.46c3,.98,6.12,1.57,9.3,1.91,1.55.16,3.09.41,4.67.41,2.83,0,5.69-.27,8.56-.82,12.14-2.36,22.58-9.33,29.4-19.65,2.78-4.21,4.77-8.76,6.02-13.49,6.18,3.06,13.01,4.86,20.12,4.86,2.83,0,5.7-.27,8.56-.82,12.14-2.36,22.58-9.33,29.39-19.65,6.81-10.31,9.14-22.65,6.54-34.74l-.93-4.3-5.95-27.65h0c-.04-.19-.13-.35-.17-.53L114.78,49.9c-1.23-5.71-.16-11.55,3-16.46,3.17-4.9,8.06-8.28,13.77-9.51l4.59-.99c1.53-.33,3.06-.48,4.57-.48,9.58,0,18.35,6.34,21.06,15.89l57.11,201.07c1.37,4.83,5.78,8.16,10.8,8.16h0c5.02,0,9.43-3.34,10.79-8.18l52.67-186.47c2.72-9.62,11.41-15.93,20.98-15.93,1.69,0,3.41.2,5.13.61,5.68,1.35,10.49,4.84,13.55,9.81,3.06,4.97,4,10.84,2.65,16.52l-52.28,219.19c-2.88.52-5.84,1.15-8.93,2.03-2.13.61-4.24,1.34-6.36,2.1-39.39,14.1-76.89,53.9-111.55,118.53-2.93,5.46-.88,12.27,4.59,15.2,1.68.9,3.48,1.32,5.25,1.32,3.11,0,6.14-1.3,8.3-3.65.62-.68,1.19-1.41,1.65-2.25,41.38-77.15,79.04-102.06,103.35-109.37,7.19-2.16,13.52-2.91,18.84-2.91,11.61,0,18.4,3.56,18.72,3.73,1.76,1,3.68,1.49,5.58,1.49,3.47,0,6.86-1.6,9.05-4.57.3-.41,30.33-41,57.8-62.49,9.18-7.18,18.44-9.33,26.26-9.33,3.38,0,6.49.4,9.21.98l-105.22,177.16c-1.54,2.59-1.97,5.68-1.2,8.59,26.36,100.01,71.83,178.89,114.08,235.64,50.28,67.53,95.99,103.68,99.44,106.36,2.05,1.59,4.47,2.36,6.87,2.36,3.35,0,6.66-1.49,8.87-4.34,3.8-4.89,2.92-11.94-1.97-15.75-1.49-1.15-147.75-116.92-204.37-325.46l109.7-184.7c1.53-2.58,1.96-5.66,1.21-8.56-.75-2.9-2.64-5.38-5.23-6.88-.89-.52-13.95-7.91-31.73-7.91-11.88,0-25.87,3.3-39.74,14.15-23.04,18.02-46.62,46.89-56.84,60.02-3.32-.98-7.48-1.9-12.31-2.43l50.81-213.05c2.74-11.51.84-23.41-5.36-33.49-6.2-10.08-15.95-17.15-27.47-19.89-3.48-.83-6.97-1.23-10.4-1.23-19.41,0-37.01,12.79-42.52,32.29l-41.9,148.33-46.28-162.94C177.87,12.87,160.09,0,140.7,0h0ZM116.68,298.22c-10.68,0-20.4-7.5-22.72-18.28l-6.87-31.95c-2.6-12.08,4.71-24.05,16.65-27.25,2.01-.54,4.04-.8,6.05-.8,4.2,0,8.33,1.16,12.02,3.42,5.47,3.34,9.22,8.63,10.57,14.89l6.87,31.95c1.32,6.13.14,12.4-3.32,17.64-3.46,5.24-8.76,8.78-14.93,9.98-1.45.28-2.9.41-4.33.41h0ZM52.56,327.32c-10.7,0-20.39-7.5-22.71-18.28l-6.87-31.95c-2.6-12.08,4.72-24.06,16.65-27.26,2.01-.54,4.04-.8,6.05-.8,4.2,0,8.33,1.16,12.02,3.42,5.47,3.34,9.22,8.63,10.57,14.89l6.87,31.95c1.32,6.14.15,12.4-3.31,17.64-3.46,5.24-8.76,8.78-14.93,9.98-1.46.28-2.91.42-4.35.42h0Z"></path></g></g></g></svg> 