<?xml version="1.0" encoding="UTF-8"?> <svg xmlns="http://www.w3.org/2000/svg" id="_Слой_2" data-name="Слой 2" viewBox="0 0 909.75 544.97"><defs><style> .cls-1 { fill: #fff; } </style></defs><g id="_Слой_1-2" data-name="Слой 1"><g><path d="M460.3,0l435.3,138.04c7.89,2.5,12.66,7.45,13.89,14.35,1.25,7.02-1.9,15.33-9.33,19l-161.55,79.93-.24,194.46c-.02,17.62-12.46,30.68-24.38,41.85-63.93,50.2-216.14,60.77-293.93,56.48-65.55-3.61-172.92-14.86-224.8-57.56-13-10.7-23.6-25.31-23.62-42.82l-.13-192.4-40.09-19.68v152.83c21.85,20.56,25.06,68.23,26.04,95.82.27,7.61-3.15,14.42-8.01,17.94-7.43,5.39-15.77,1.58-22.49-.85-8.91,6.53-19.95,6.89-27.99-1.49-5.91,4.09-13.61,7.16-20.79,3.86-6.44-2.96-10.88-10.2-10.6-18.69.97-29.33,4.26-78.03,27.97-98.37l.1-168.8L7.47,170.07l-7.47-8.56v-12.42l9-9.41L449.64,0h10.66ZM168,209.89l287.09,142.09,389.05-192.84L455.2,36.44,65.54,159.09l50.38,24.93,313.78-63.67c10.67-2.16,19.07,4.96,20.97,14.02,1.66,7.93-2.89,18.56-13.11,20.64l-269.57,54.88ZM693.3,458.09c3.21-3.95,9.67-9.58,9.66-14.95l-.12-174.02-237.61,117.53c-6.19,2.95-11.73,3.39-18.19,1.14l-239.96-118.68-.05,175.38c1.31,6.51,9.09,12.33,13.53,16.77,32.9,22.12,85.64,34.55,125.07,40.16,73.27,10.41,146.53,10.45,219.8-.22,39.45-5.74,96.33-18.88,127.87-43.11Z"></path><path class="cls-1" d="M168,209.89l269.57-54.88c10.22-2.08,14.77-12.71,13.11-20.64-1.89-9.07-10.3-16.19-20.97-14.02l-313.78,63.67-50.38-24.93L455.2,36.44l388.94,122.7-389.05,192.84L168,209.89Z"></path><path class="cls-1" d="M693.3,458.09c-31.54,24.23-88.42,37.37-127.87,43.11-73.27,10.67-146.53,10.64-219.8.22-39.43-5.6-92.17-18.03-125.07-40.16-4.44-4.44-12.21-10.26-13.53-16.77l.05-175.38,239.96,118.68c6.46,2.25,12.01,1.81,18.19-1.14l237.61-117.53.12,174.02c0,5.37-6.45,10.99-9.66,14.95Z"></path></g></g></svg> 