<?xml version="1.0" encoding="UTF-8"?> <svg xmlns="http://www.w3.org/2000/svg" id="_Слой_2" data-name="Слой 2" viewBox="0 0 741.95 738.28"><defs><style> .cls-1, .cls-2 { stroke: #000; stroke-linecap: round; stroke-linejoin: round; stroke-width: 10px; } .cls-2 { fill: #fff; } </style></defs><g id="_Слой_1-2" data-name="Слой 1"><g><path class="cls-1" d="M577.7,733.1l-402.51.05c-15.07-.59-25.78-11.08-26.45-26.1l-12.04-270.21-37.52,272.06c-1.93,14-12.61,24.24-26.85,24.22l-41.01-.05c-14.28-.02-27.16-12.16-26.28-27.49L30.71,255.58c2.09-36.72,17.72-74.24,47.59-95.47l84.39-59.99c-1.58-7.27,0-13.98,5.44-18.85L243.77,13.55c6.04-5.41,13.51-8.55,21.99-8.55h222.19c9.76,0,17.81,3.96,24.24,10.67l57.87,60.43c5.46,5.7,6.96,13.09,3.82,21.14l89.08,62.36c30.19,21.13,46.18,59.02,48.3,95.97l25.63,446.98c.95,16.56-9.36,30.46-26.49,30.54l-39.46.19c-12.76.06-25.7-8.1-27.61-21.93l-36-260.56-3.34,254.86c-.19,14.5-10.25,27.44-26.29,27.45ZM498.11,20.11c-3.1-2.22-6.48-3.38-10.27-3.38h-221.98c-2.98,0-5.74.96-8.38,2.72l113.82,129.46L498.11,20.11ZM357.35,150.99L247.61,25.92l-71.18,63.62c-1.39,1.24-2.89,4.58-2.61,6.13s2.6,4.18,4.46,5.02c46.97,21.11,126.36,49.76,179.08,50.32ZM559.88,95.13c4.24-3.01,5.09-7.41,1.97-10.66l-54.58-56.97-121.41,123.38c18.59.12,34.26-3.03,51.13-7.2,43.09-10.65,83.87-26.75,122.89-48.54ZM145.76,355.45l9.65,230.88c56.84-21.49,101.95-65.66,112.12-126.01.89-2.67,3.66-5.2,6.95-5.2l197.35.1c22.84,52.98,64.57,111.65,121.93,131.09l2.71-222.88c.17-14.35.59-26.74,3.64-40.48,8.46-34.32,17.89-67.35,29.3-100.84,7.11-19.4,14.35-37.28,23.08-56.25l-87.69-60.27c-33.38,18.89-67.44,33.32-104.11,44.17l.02,189.89c-.02,4.71-2.49,7.67-6.96,7.18-2.53-.28-4.65-3.45-4.79-7.21v-186.42c-51.02,13.9-102.17,13.61-152.94.87l-.03,188.08c-1.25,3.49-4.4,5.3-7.61,4.58-2.23-.5-3.84-3.85-4.11-7.08l.02-188.65c-39.65-10.36-76.94-23.92-114.12-41.44l-80.7,56.18c8.78,19.07,16,36.93,23.13,56.36,11.81,35.08,22.05,69.59,30.2,105.73,2.01,8.89,2.52,17.16,2.96,27.6ZM132.73,374.77c2.64-19.47.81-35.94-3.39-53.82-12.97-50.21-26.59-99.75-49.44-147.28-22.01,22.57-35.66,50.16-37.42,81.1l-23.42,410.09h74.3s39.37-290.1,39.37-290.1ZM648.72,664.97l74.21-.12-23.4-411.34c-3.06-30.47-15.11-57.53-37.58-79.75-22.78,48.1-36.58,97.5-49.57,148.37-4.49,18.35-5.49,35.46-2.89,54.59l39.22,288.26ZM592.81,664.88l.79-66.1c-26.79-8.83-49.36-23.61-69.44-43.34-25.86-25.61-45.1-55.78-60.15-88.59l-185.7.03c-13.37,65.02-62.03,109.56-122.45,131.91l2.9,66.13,434.05-.03ZM73.02,721.45c7.28,0,13.41-6.15,14.28-12.45l4.45-32.26-73.33-.16-1.68,29.39c-.46,7.99,6.45,15.47,14.61,15.47h41.68ZM577.63,721.48c9.42,0,14.68-8.31,14.66-15.47l-.07-29.4H159.29s1.38,31.84,1.38,31.84c.34,7.92,7.79,13.07,15.87,13.07l401.09-.04ZM710.05,721.47c8.68,0,15.76-7.31,15.22-15.59l-1.9-29.31-73.01.09,4.09,31c1.03,7.8,7.12,13.81,15.29,13.81h40.3Z"></path><path class="cls-2" d="M145.76,355.45c-.44-10.44-.95-18.71-2.96-27.6-8.15-36.14-18.39-70.65-30.2-105.73-7.13-19.43-14.35-37.28-23.13-56.36l80.7-56.18c37.18,17.51,74.47,31.08,114.12,41.44l-.02,188.65c.27,3.23,1.88,6.58,4.11,7.08,3.2.72,6.36-1.09,7.61-4.58l.03-188.08c50.78,12.74,101.93,13.03,152.95-.87v186.42c.14,3.76,2.25,6.93,4.78,7.21,4.47.49,6.94-2.47,6.96-7.18l-.02-189.89c36.67-10.85,70.73-25.28,104.11-44.17l87.69,60.27c-8.73,18.97-15.97,36.85-23.08,56.25-11.41,33.49-20.84,66.52-29.3,100.84-3.06,13.74-3.47,26.13-3.64,40.48l-2.71,222.88c-57.36-19.44-99.09-78.11-121.93-131.09l-197.35-.1c-3.29,0-6.06,2.52-6.95,5.2-10.17,60.35-55.27,104.52-112.12,126.01l-9.65-230.88Z"></path><path class="cls-2" d="M592.81,664.88l-434.05.03-2.9-66.13c60.42-22.35,109.08-66.89,122.45-131.91l185.7-.03c15.05,32.8,34.29,62.97,60.15,88.59,20.08,19.73,42.65,34.51,69.44,43.34l-.79,66.1Z"></path><path class="cls-2" d="M132.73,374.77l-39.37,290.11H19.07s23.42-410.11,23.42-410.11c1.77-30.94,15.41-58.53,37.42-81.1,22.85,47.53,36.46,97.07,49.44,147.28,4.2,17.88,6.04,34.34,3.39,53.82Z"></path><path class="cls-2" d="M648.72,664.97l-39.22-288.26c-2.6-19.13-1.6-36.24,2.89-54.59,12.99-50.88,26.79-100.27,49.57-148.37,22.46,22.23,34.52,49.28,37.58,79.75l23.4,411.34-74.21.12Z"></path><path class="cls-2" d="M577.63,721.48l-401.09.04c-8.08,0-15.53-5.14-15.87-13.07l-1.38-31.83h432.94s.07,29.39.07,29.39c.02,7.16-5.24,15.47-14.66,15.47Z"></path><path class="cls-2" d="M498.11,20.11l-126.82,128.81L257.47,19.45c2.65-1.76,5.4-2.72,8.38-2.72h221.98c3.79,0,7.17,1.16,10.27,3.38Z"></path><path class="cls-2" d="M357.35,150.99c-52.72-.55-132.1-29.2-179.08-50.32-1.86-.84-4.17-3.47-4.46-5.02s1.22-4.89,2.61-6.13l71.18-63.62,109.74,125.08Z"></path><path class="cls-2" d="M559.88,95.13c-39.02,21.79-79.8,37.9-122.89,48.54-16.88,4.17-32.54,7.32-51.13,7.2l121.41-123.38,54.58,56.97c3.12,3.25,2.27,7.65-1.97,10.66Z"></path><path class="cls-2" d="M73.02,721.45H31.34c-8.16-.01-15.06-7.49-14.61-15.48l1.68-29.39,73.33.16-4.45,32.26c-.87,6.3-7,12.45-14.28,12.45Z"></path><path class="cls-2" d="M710.05,721.47h-40.3c-8.17,0-14.26-6.01-15.29-13.81l-4.09-31,73.01-.09,1.9,29.31c.54,8.27-6.54,15.59-15.22,15.59Z"></path></g></g></svg> 