<?xml version="1.0" encoding="UTF-8"?> <svg xmlns="http://www.w3.org/2000/svg" id="_Слой_2" data-name="Слой 2" viewBox="0 0 900.19 898.67"><defs><style> .cls-1 { fill: #fff; } </style></defs><g id="Layer_1" data-name="Layer 1"><g><path d="M437.81.34l18.75-.34c264.92,5.01,467,228.49,441.45,493.54-20.01,207.64-181.94,374.55-388.64,401.36C262.98,926.86,31.77,752.05,3.14,504.41-27.58,238.68,170.46,7.12,437.81.34ZM552.01,59.05c-54.66-14.03-109.44-16.38-165.2-7.72-10.12,1.57-25.8,3.84-35.2,6.8-1.11.35-2.41.35-2.59,1.9l101.41,64.03,101.58-65.01ZM181.24,339.82l104.04,33.04,142.27-100.78,1.51-3.49-.56-105.54c-43.4-30.43-88.4-58.54-133.2-86.84-3.73-.6-35.41,15.65-40.96,18.66-30.25,16.37-59.17,37.26-84.34,60.66-3.99,3.71-25.64,24.73-25.99,28.03l37.23,156.26ZM718.79,339.81l37.25-156.22c-14.84-17.9-33.31-34.99-51.55-49.52-29.87-23.79-64.08-44.63-99.91-58.04l-133.07,87,.02,108,143.23,101.82,104.03-33.05ZM111.01,228.04c-2.39-.55-1.62.44-2.22,1.31-2.97,4.27-6.29,10.37-8.94,15.02-30.37,53.33-48.19,115.43-52.82,176.67l90.83-73.72-26.85-119.27ZM853.01,421.04c-3.36-53.62-18.06-106.11-41.13-154.36-1.27-2.66-19.93-39.61-21.85-37.64l-27.87,118.32,90.85,73.68ZM584.82,403.23l-134.45-94.08-134.36,94.43,50.11,158.36,167.96-.33,50.75-158.38ZM273.78,414.28l-107.03-34.04-119.21,96.82c-.92,2.07-.6,4.3-.51,6.47.51,12.41,3.98,30.16,6.3,42.7,8.09,43.67,23.31,87.4,47.12,124.88,54.07,7.55,108.67,10.62,162.89,17l64.66-88.63-54.21-165.2ZM636.22,667.83l162.12-15.97c2.17-.64,7.38-10.51,8.86-13.14,22.43-40.05,38.05-91.73,43.7-137.3.53-4.24,2.84-21.93,1.63-24.38l-119.21-96.84-105.77,33.88-55.33,166.34,64,87.42ZM364.23,604.26l-67.06,89.1,66.34,149.7c40.11,9.18,81.92,11.49,123.01,7.98,17.22-1.47,34.54-4.24,51.49-7.51l64.84-149.23-.95-3.61-66.58-86.43c-57.13.81-113.94-.13-171.08.01ZM308.01,827.04l-50.59-115.9-124.4-12.09c45.86,57.24,105.74,102.77,174.99,127.99ZM767.02,699.05l-124.76,12.22-50.24,115.76c69.71-23.76,129.34-71.05,175-127.98Z"></path><path class="cls-1" d="M181.24,339.82l-37.23-156.26c.35-3.3,22-24.32,25.99-28.03,25.18-23.4,54.09-44.29,84.34-60.66,5.55-3,37.23-19.26,40.96-18.66,44.8,28.3,89.8,56.41,133.2,86.84l.56,105.54-1.51,3.49-142.27,100.78-104.04-33.04Z"></path><path class="cls-1" d="M718.79,339.81l-104.03,33.05-143.23-101.82-.02-108,133.07-87c35.84,13.41,70.04,34.25,99.91,58.04,18.24,14.53,36.71,31.62,51.55,49.52l-37.25,156.22Z"></path><path class="cls-1" d="M273.78,414.28l54.21,165.2-64.66,88.63c-54.22-6.38-108.82-9.46-162.89-17-23.8-37.49-39.02-81.22-47.12-124.88-2.32-12.54-5.8-30.29-6.3-42.7-.09-2.17-.41-4.4.51-6.47l119.21-96.82,107.03,34.04Z"></path><path class="cls-1" d="M364.23,604.26c57.15-.14,113.96.8,171.08-.01l66.58,86.43.95,3.61-64.84,149.23c-16.94,3.27-34.27,6.04-51.49,7.51-41.09,3.51-82.9,1.19-123.01-7.98l-66.34-149.7,67.06-89.1Z"></path><path class="cls-1" d="M636.22,667.83l-64-87.42,55.33-166.34,105.77-33.88,119.21,96.84c1.21,2.45-1.11,20.15-1.63,24.38-5.65,45.57-21.27,97.25-43.7,137.3-1.48,2.64-6.68,12.51-8.86,13.14l-162.12,15.97Z"></path><polygon class="cls-1" points="584.82 403.23 534.07 561.61 366.11 561.94 316.01 403.58 450.37 309.15 584.82 403.23"></polygon><path class="cls-1" d="M767.02,699.05c-45.66,56.93-105.29,104.22-175,127.98l50.24-115.76,124.76-12.22Z"></path><path class="cls-1" d="M308.01,827.04c-69.25-25.22-129.13-70.75-174.99-127.99l124.4,12.09,50.59,115.9Z"></path><path class="cls-1" d="M552.01,59.05l-101.58,65.01-101.41-64.03c.17-1.55,1.47-1.55,2.59-1.9,9.4-2.96,25.08-5.23,35.2-6.8,55.76-8.65,110.54-6.31,165.2,7.72Z"></path><path class="cls-1" d="M111.01,228.04l26.85,119.27-90.83,73.72c4.64-61.24,22.45-123.33,52.82-176.67,2.65-4.65,5.97-10.75,8.94-15.02.6-.87-.17-1.85,2.22-1.31Z"></path><path class="cls-1" d="M853.01,421.04l-90.85-73.68,27.87-118.32c1.92-1.97,20.58,34.98,21.85,37.64,23.07,48.25,37.77,100.74,41.13,154.36Z"></path></g></g></svg> 