<?xml version="1.0" encoding="UTF-8"?> <svg xmlns="http://www.w3.org/2000/svg" width="123" height="123" viewBox="0 0 123 123" fill="none"><path d="M111.199 60.6251L119.693 37.7068C120.416 35.7572 119.423 33.5896 117.47 32.866L37.7079 3.30396C35.7572 2.58435 33.5926 3.57828 32.87 5.5279L3.30693 85.2932C2.58435 87.2428 3.57719 89.4104 5.52977 90.134L85.2951 119.697C87.2447 120.42 89.4133 119.424 90.1359 117.474L111.205 60.6273" fill="white"></path><path d="M116.934 33.813C118.415 34.362 119.174 36.0149 118.624 37.4993L89.1841 116.933C88.6339 118.417 86.9821 119.173 85.5007 118.624L6.06719 89.1841C4.58572 88.635 3.82676 86.9821 4.37583 85.5007L33.8159 6.06719C34.3631 4.58166 36.016 3.82269 37.5004 4.37286L116.934 33.813ZM117.547 32.8305L37.6754 3.2279C35.7228 2.50422 33.5542 3.50002 32.8305 5.4526L3.2279 85.3246C2.50423 87.2772 3.50003 89.4458 5.45261 90.1695L85.3246 119.772C87.2772 120.496 89.4458 119.5 90.1695 117.547L119.772 37.6754C120.496 35.7228 119.5 33.5542 117.547 32.8305Z" fill="#151515"></path><path d="M24.8494 47.918L54.3549 13.1706L37.4928 6.92109C36.7877 6.65973 36.0039 7.01964 35.7425 7.72482L6.91627 85.502C6.65491 86.2072 7.01482 86.991 7.72 87.2523L24.5791 93.5008L24.8494 47.918Z" fill="#E73439"></path><path d="M98.4198 29.5022L98.1525 75.0861L68.648 109.83L85.5072 116.079C86.2124 116.34 86.9961 115.98 87.2575 115.275L116.083 37.501C116.344 36.7958 115.984 36.012 115.279 35.7506L98.4198 29.5022Z" fill="#E73439"></path><path d="M55.8807 49.2249C53.2668 53.6953 48.7177 61.4686 47.1057 64.2176C45.6114 66.7674 44.1316 68.6959 41.3433 69.8091L49.0054 72.6489C49.0054 72.6489 47.2618 69.9066 50.2148 64.8577C53.2535 59.6686 57.8344 51.7823 59.3895 49.1774C61.4963 45.6481 64.2787 44.8056 64.2787 44.8056L56.7202 42.0043C56.7202 42.0043 58.5093 44.7331 55.8807 49.2249Z" fill="#151515"></path><path d="M86.4988 56.7749C86.9205 55.6371 86.6151 52.8786 82.2626 51.2654C83.9068 57.3037 78.4654 60.2105 78.4654 60.2105C82.3735 60.0313 85.7682 58.7552 86.5007 56.779" fill="#151515"></path><path d="M66.7719 65.1743C66.7719 65.1743 68.7149 71.8524 69.8487 75.7673C71.3486 80.94 75.1211 82.5909 75.1211 82.5909L69.5816 64.5947L66.7719 65.1743Z" fill="#151515"></path><path d="M78.6087 80.6821L74.2377 65.98C82.3056 65.8428 87.5626 64.2157 89.8954 60.231C92.5218 55.7451 90.69 51.6221 86.8233 49.1072C85.46 48.2211 83.7982 47.4401 82.222 46.8559L49.117 34.5864L45.4655 40.8289L46.7011 41.2868C49.2255 42.2224 50.3342 44.9957 49.0791 47.1456L39.6861 63.1965C38.4269 65.3482 35.0479 66.4548 32.5235 65.5192L31.2879 65.0613L27.6364 71.3038L53.9059 81.0399L57.5574 74.7974L56.0877 74.2527C53.5633 73.3171 52.3983 70.523 53.6564 68.3742L55.8981 64.5444L58.8466 64.8722L62.236 76.4674C63.8044 81.8374 67.6823 86.6041 73.1815 88.6423C75.9904 89.6833 77.8974 89.6117 77.8974 89.6117L81.3972 83.6331C80.1053 83.1543 79.0103 82.1081 78.6135 80.6872M57.7631 61.34L62.7711 52.665C64.7658 49.2559 69.0641 48.6787 72.0952 49.8021C74.6759 50.7586 76.3224 52.9628 74.7282 55.6913C72.2109 59.9919 62.0233 61.0655 57.7631 61.34ZM78.1802 86.2117C78.1802 86.2117 77.1812 86.3706 75.0597 85.5843C69.7353 83.6109 67.8082 79.6177 66.2113 75.2886L62.666 63.1504C64.6419 62.929 66.88 62.5824 69.0422 62.0493C73.9103 60.8441 76.9926 59.0378 78.4638 56.5232C79.7707 54.288 79.5356 52.3946 79.1083 51.2017C78.4294 49.3055 76.7989 47.7947 74.5145 46.948C72.4375 46.1782 70.107 46.0559 67.9503 46.6012C65.4338 47.2355 63.3552 48.7702 62.0972 50.919L62.0928 50.9308L52.4921 67.6057C50.4883 71.2574 52.0703 74.3813 55.7651 75.7507L54.6966 77.5789L32.9131 69.5053L33.9687 67.7027C37.4996 68.5868 41.6769 67.0178 43.4258 64.0264L52.8177 47.9785C53.7715 46.3505 53.9486 44.3908 53.3092 42.5969C52.8124 41.2097 51.8747 40.0298 50.6433 39.2061L51.7754 37.2701L82.8685 48.794C86.3559 50.0865 89.0067 52.2451 89.7851 54.4275C90.249 55.7216 90.064 57.0482 89.2255 58.4831C87.5085 61.4155 83.222 62.8429 75.7314 62.9682L72.3671 63.0255L77.6914 80.9386C78.0179 82.0942 78.9495 83.1269 79.6949 83.6525L78.1891 86.215L78.1802 86.2117Z" fill="#151515"></path><path fill-rule="evenodd" clip-rule="evenodd" d="M32.8305 5.4526C33.5542 3.50002 35.7228 2.50422 37.6754 3.2279L117.547 32.8305C119.5 33.5542 120.496 35.7228 119.772 37.6754L90.1695 117.547C89.4458 119.5 87.2772 120.496 85.3246 119.772L5.45261 90.1695C3.50003 89.4458 2.50423 87.2772 3.2279 85.3246L32.8305 5.4526ZM38.7149 0.423326L118.587 30.026C122.088 31.3237 123.874 35.2134 122.577 38.7148L92.974 118.587C91.6763 122.088 87.7867 123.874 84.2852 122.577L4.41316 92.974C0.911663 91.6763 -0.874421 87.7867 0.423325 84.2851L30.026 4.41315C31.3237 0.911653 35.2134 -0.87442 38.7149 0.423326Z" fill="white"></path></svg> 