<?xml version="1.0" encoding="UTF-8"?> <svg xmlns="http://www.w3.org/2000/svg" width="221" height="76" viewBox="0 0 221 76" fill="none"><g filter="url(#filter0_dd_2090_199)"><rect x="1.32036" y="1.32031" width="218" height="73" rx="36.5" fill="#BE96BF"></rect><path d="M25.0302 52.3203V21.8199H41.9903V28.2435H32.1932V34.0201H35.7054C38.3549 34.0201 40.4653 34.8365 42.0365 36.4693C43.6077 38.1022 44.3934 40.2896 44.3934 43.0316C44.3934 45.8043 43.5769 48.0533 41.9441 49.7786C40.342 51.4731 38.2625 52.3203 35.7054 52.3203H25.0302ZM32.1932 46.3127H34.6887C35.5513 46.3127 36.2137 46.0354 36.6758 45.4808C37.138 44.8955 37.369 44.079 37.369 43.0316C37.369 41.9841 37.138 41.183 36.6758 40.6285C36.2137 40.0431 35.5513 39.7505 34.6887 39.7505H32.1932V46.3127ZM44.2464 52.3203V21.8199H59.6815V28.2435H51.4094V33.4193H57.5095V39.427H51.4094V45.8505H60.1436V52.3203H44.2464ZM69.501 52.8749C62.7539 52.8749 59.3804 47.6066 59.3804 37.0701C59.3804 26.5336 62.7539 21.2654 69.501 21.2654C72.1813 21.2654 74.2763 22.0048 75.7859 23.4836C77.2955 24.9624 78.3122 27.3038 78.8359 30.5079L72.551 32.1254C72.3045 30.6157 71.9502 29.5374 71.4881 28.8905C71.026 28.2127 70.3944 27.8738 69.5934 27.8738C68.5151 27.8738 67.7449 28.567 67.2827 29.9534C66.8514 31.3089 66.6358 33.6812 66.6358 37.0701C66.6358 40.459 66.8514 42.8467 67.2827 44.2331C67.7449 45.5887 68.5151 46.2664 69.5934 46.2664C70.3944 46.2664 71.026 45.943 71.4881 45.296C71.9502 44.6182 72.3045 43.5245 72.551 42.0149L78.8359 43.6323C78.3122 46.8364 77.2955 49.1778 75.7859 50.6567C74.2763 52.1355 72.1813 52.8749 69.501 52.8749ZM78.8879 52.3203V21.8199H98.4821V52.3203H91.3191V28.3359H86.0509V52.3203H78.8879ZM101.442 21.8199H119.65V52.3203H112.487V28.3359H108.189L108.097 33.0496C108.004 38.4719 107.788 42.554 107.45 45.296C107.111 47.9147 106.371 49.794 105.231 50.9339C104.122 52.043 102.382 52.5976 100.009 52.5976C99.3623 52.5976 98.6537 52.5206 97.8835 52.3665V46.2664H98.5767C99.3469 46.2664 99.9015 45.9584 100.24 45.3422C100.579 44.726 100.826 43.5091 100.98 41.6914C101.165 39.4116 101.272 36.5156 101.303 33.0034L101.442 21.8199ZM133.551 52.3203L132.95 49.3627H126.527L125.88 52.3203H118.624L127.913 21.8199H131.61L140.853 52.3203H133.551ZM129.762 34.8981L127.728 43.771H131.749L129.762 34.8981ZM141.923 52.3203V28.3359H136.054V21.8199H154.955V28.3359H149.086V52.3203H141.923ZM154.715 52.3203V21.8199H161.878V33.1882H167.562V21.8199H174.725V52.3203H167.562V39.7042H161.878V52.3203H154.715ZM174.948 36.9777C174.948 31.6478 175.796 27.7043 177.49 25.1472C179.184 22.5593 181.772 21.2654 185.254 21.2654C188.797 21.2654 191.415 22.5439 193.11 25.101C194.804 27.6581 195.652 31.6016 195.652 36.9315C195.652 47.5604 192.186 52.8749 185.254 52.8749C181.772 52.8749 179.184 51.5809 177.49 48.993C175.796 46.3743 174.948 42.3692 174.948 36.9777ZM188.396 37.0701C188.396 33.6196 188.165 31.2319 187.703 29.9071C187.241 28.5516 186.424 27.8738 185.254 27.8738C184.083 27.8738 183.282 28.5208 182.851 29.8147C182.419 31.1087 182.204 33.4963 182.204 36.9777C182.204 40.459 182.419 42.8775 182.851 44.2331C183.313 45.5887 184.114 46.2664 185.254 46.2664C186.424 46.2664 187.241 45.5887 187.703 44.2331C188.165 42.8775 188.396 40.4899 188.396 37.0701Z" fill="black"></path></g><defs><filter id="filter0_dd_2090_199" x="-5.24521e-06" y="-5.10216e-05" width="220.641" height="75.6407" filterUnits="userSpaceOnUse" color-interpolation-filters="sRGB"><feFlood flood-opacity="0" result="BackgroundImageFix"></feFlood><feColorMatrix in="SourceAlpha" type="matrix" values="0 0 0 0 0 0 0 0 0 0 0 0 0 0 0 0 0 0 127 0" result="hardAlpha"></feColorMatrix><feMorphology radius="0.660182" operator="dilate" in="SourceAlpha" result="effect1_dropShadow_2090_199"></feMorphology><feOffset></feOffset><feGaussianBlur stdDeviation="0.330091"></feGaussianBlur><feColorMatrix type="matrix" values="0 0 0 0 0.0352941 0 0 0 0 0.117647 0 0 0 0 0.258824 0 0 0 0.13 0"></feColorMatrix><feBlend mode="normal" in2="BackgroundImageFix" result="effect1_dropShadow_2090_199"></feBlend><feColorMatrix in="SourceAlpha" type="matrix" values="0 0 0 0 0 0 0 0 0 0 0 0 0 0 0 0 0 0 127 0" result="hardAlpha"></feColorMatrix><feOffset dy="0.660182"></feOffset><feGaussianBlur stdDeviation="0.330091"></feGaussianBlur><feColorMatrix type="matrix" values="0 0 0 0 0.0352941 0 0 0 0 0.117647 0 0 0 0 0.258824 0 0 0 0.25 0"></feColorMatrix><feBlend mode="normal" in2="effect1_dropShadow_2090_199" result="effect2_dropShadow_2090_199"></feBlend><feBlend mode="normal" in="SourceGraphic" in2="effect2_dropShadow_2090_199" result="shape"></feBlend></filter></defs></svg> 