<?xml version="1.0" encoding="UTF-8"?> <svg xmlns="http://www.w3.org/2000/svg" id="_Слой_2" data-name="Слой 2" viewBox="0 0 260.2 280.56"><defs><style> .cls-1 { fill-rule: evenodd; } .cls-1, .cls-2 { fill: #1d1d1b; } .cls-3 { fill: #fff; } .cls-4 { fill: #76bee9; } </style></defs><g id="_Слой_1-2" data-name="Слой 1"><g><path class="cls-3" d="M254.08,239.56c-.84-.83-1.88-1.7-3.13-2.52-1.68-5.85-7.07-10.13-13.46-10.13h-4.96c-.24,0-.48.02-.72.04-.24-.01-.48-.04-.72-.04h-13.09c-.73,0-1.44.07-2.14.18-.64-.15-1.31-.27-2.01-.36,5.26-4.95,10.17-10.4,14.69-16.32,7.53-8.46,12.09-17.96,13.57-28.26,1.35-9.47-.07-19.3-4.11-28.44-4.39-9.92-11.87-18.88-21.05-25.23-8.06-5.57-17-8.97-26.12-9.95.72-4.98,1.15-9.98.93-14.22-.55-10.61-7.96-19.44-17.91-22.11,3.23-2.03,5.77-5.12,7.06-8.91,2.3-6.76.12-14.21-5.4-18.69,4.39-4,6.35-10.15,4.86-16.12-1.83-7.33-8.39-12.45-15.94-12.45-.17,0-.35,0-.52,0-.59.02-1.18.08-1.76.16l.8-1.56c1.61-3.15,2.19-6.67,1.66-10.17-1.25-8.3-8.26-14.33-16.66-14.33-4.06,0-7.84,1.45-10.81,3.94-2.93-2.58-6.76-4.09-10.89-4.09-7.86,0-14.5,5.37-16.14,13.05l-3.61,16.87c-.21.96-.32,1.94-.35,2.92l-.34,10.77c-.01.39,0,.78.02,1.16-4.74,4.09-7.93,9.97-8.44,16.6l-1.3,16.83c-7.97-3.78-16.78-5.86-25.73-5.86-11.71,0-22.6,3.59-31.49,10.39-9.67,7.39-16.63,18.44-20.15,31.95-6.94,26.08-6,51.71,2.73,74.14,5.59,14.37,14.25,27.28,25.44,38.09h-.41c-.4,0-.79.03-1.18.06-.39-.03-.78-.06-1.18-.06h-4.96c-.67,0-1.33.05-1.97.14-.64-.09-1.3-.14-1.97-.14h-4.96c-.4,0-.79.03-1.18.06-.39-.03-.78-.06-1.18-.06h-2.56c-1.07,0-2.13.12-3.15.36-1.02-.23-2.07-.36-3.16-.36h-4.99c-7.73,0-14,6.27-14,14v21.13c0,7.73,6.27,14,14,14h2.59c1.07,0,2.13-.12,3.15-.36,1.02.23,2.07.36,3.16.36h4.96c.4,0,.79-.03,1.18-.06.39.03.78.06,1.18.06h4.96c.67,0,1.33-.05,1.97-.14.64.09,1.3.14,1.97.14h4.96c.4,0,.79-.03,1.18-.06.39.03.78.06,1.18.06h4.96c.67,0,1.33-.05,1.97-.14.64.09,1.3.14,1.97.14h4.96c1.1,0,2.16-.14,3.19-.38,1.81.5,3.73.76,5.71.76,1.88,0,3.83-.25,5.74-.77,1.04.24,2.11.39,3.22.39h7.11c1.17,0,2.31-.11,3.43-.28.88.17,1.78.28,2.69.28h5.03c.91,0,1.79-.09,2.66-.25.86.17,1.75.25,2.66.25h5.06c.15,0,.3,0,.45,0,.15,0,.3,0,.45,0h.2c2.56,2.78,6.22,4.51,10.3,4.51h4.96c4.07,0,7.74-1.74,10.3-4.52.06,0,.11,0,.17,0h4.96c1.1,0,2.17-.13,3.19-.37,1.81.49,3.72.75,5.71.75,1.88,0,3.81-.24,5.72-.76,1.04.25,2.13.38,3.25.38h4.96c.67,0,1.33-.05,1.97-.14.64.09,1.3.14,1.97.14h4.96c.4,0,.79-.03,1.18-.06.39.03.78.06,1.18.06h4.96c.67,0,1.33-.05,1.97-.14.64.09,1.3.14,1.97.14h4.96c1.1,0,2.16-.14,3.19-.38,1.81.5,3.73.76,5.71.76,2.54,0,5.18-.45,7.71-1.42,2.51.98,5.14,1.42,7.66,1.42s4.92-.42,6.88-1.08c1.37.45,2.83.7,4.36.7h4.96c.94,0,1.86-.1,2.75-.27.89.18,1.81.27,2.75.27h6.34c7.62,0,12.49-3.21,15.23-5.91,2.78-2.74,6.1-7.61,6.1-15.29s-3.33-12.53-6.12-15.28Z"></path><g><g><path class="cls-4" d="M217.74,201.49c35.91-39.55-25.66-95.47-61.32-55.52-24.4,30.64-47.18,14.33-45.12-.05,21.98-55.33-63.68-87-79.06-27.68-30.78,115.53,116.72,174.23,185.5,83.25Z"></path><g><g><path class="cls-1" d="M132.68,53.06l17.79-34.79c.27-.53.37-1.12.28-1.71h0c-.43-2.84-4.32-3.31-5.41-.65l-10.37,25.24c-.06.15-.11.31-.14.47l-2.15,11.43h0Z"></path><path class="cls-1" d="M119.8,44.05l8.82-26.77c.16-.5.17-1.03.01-1.53h0c-.77-2.45-4.3-2.29-4.83.23l-3.61,16.87c-.03.14-.05.29-.05.43l-.34,10.77h0Z"></path><path class="cls-1" d="M138.51,57.4l24.52-16.93c.39-.27.84-.42,1.31-.43h0c2.58-.08,3.5,3.37,1.22,4.59l-15.82,8.44c-.09.05-.18.09-.27.13l-10.95,4.2h0Z"></path><path class="cls-1" d="M138.69,70.36l25.5-5.47c.86-.19,1.77.02,2.46.56h0c2.25,1.75,1.02,5.36-1.83,5.37l-15.15.04-10.98-.5h0Z"></path></g><path class="cls-2" d="M168.31,95.4c-2.31-.17-4.51.47-6.32,1.66-.44-1.11-1.06-2.15-1.87-3.08-1.9-2.2-4.55-3.53-7.45-3.74-2.62-.19-5.1.57-7.09,1.99-1.54-3.65-5.03-6.34-9.25-6.64-2.05-.15-4.05.29-5.83,1.22l1.64-22.81c.41-5.74-3.92-10.74-9.66-11.15-5.71-.43-10.71,3.9-11.15,9.6l-4.34,56.14c-5.04-3.63-13.97-9.94-19.42-13.09-4.37-2.52-9.32-2.84-13.95-.9-1.42.6-2.46,1.8-2.84,3.29-.39,1.51-.05,3.08.93,4.29l30.79,38.39c-.34,2.74-.77,5.41-1.24,8.03-6.13,34.11-22.41,58.89-31.09,70.12-3.33,4.31-5.55,6.64-5.63,6.73-.99,1.02-.96,2.65.06,3.65.5.49,1.15.73,1.79.73s1.34-.26,1.85-.78c1.35-1.39,33.09-34.64,39.51-88.94.08-.69-.12-1.38-.55-1.92l-.85-1.06-30.4-37.91c2.2-.85,5.47-1.33,9.05.74,7.5,4.33,22.53,15.39,22.68,15.5.75.56,1.75.66,2.6.27s1.42-1.21,1.5-2.14l4.69-60.74c.22-2.88,2.7-5.06,5.64-4.85,2.9.21,5.09,2.74,4.88,5.64l-2.58,35.83-.08,1.14h0c-.08,1.12.57,2.11,1.53,2.53.11.05.22.1.34.13.16.05.34.08.51.09,1.18.08,2.29-.69,2.65-1.82.06-.18.1-.37.11-.56l.36-4.93c.11-1.53.81-2.92,1.96-3.92,1.16-1,2.65-1.49,4.16-1.38,3.15.23,5.53,2.98,5.31,6.13l-.58,8.12-.02.32-.02.26h0s0,.05,0,.07c-.05,1.21.74,2.28,1.87,2.6.01,0,.02,0,.04,0,.15.04.31.07.48.08h0c.06,0,.13,0,.19,0,.03,0,.06-.02.09-.02.27-.01.53-.06.77-.15.08-.03.15-.07.22-.1.21-.1.42-.22.59-.38.06-.05.11-.11.16-.16.18-.18.34-.38.45-.61.02-.03.03-.07.04-.1.03-.06.05-.12.07-.18.08-.22.14-.44.16-.68l.38-5.25c.23-3.15,2.94-5.54,6.13-5.3,1.53.11,2.92.81,3.92,1.97,1,1.16,1.49,2.64,1.38,4.17l-.67,9.19-.05.72c0,.14,0,.27.01.4,0,.04,0,.08,0,.11.02.12.05.23.08.35.01.05.02.1.03.15.03.1.08.19.12.28.03.06.05.12.08.18.04.07.1.14.15.21.05.07.09.14.14.2.05.06.11.11.17.16.06.06.12.13.19.18.06.05.14.09.2.13.07.05.14.1.21.14.08.04.17.07.25.1.07.03.14.06.22.09.03,0,.07.01.1.02h0c.13.03.27.06.41.07,1.41.11,2.66-.95,2.77-2.37l.51-6.62c.21-2.77,2.62-4.87,5.41-4.66,2.54.18,4.56,2.23,4.69,4.76.7,13.57-10.64,62-35.59,98.79-1.21,1.79-2.45,3.56-3.73,5.29-.85,1.14-.6,2.76.54,3.61.46.34,1,.51,1.53.51.79,0,1.57-.36,2.07-1.05,27.74-37.52,41.19-90.64,40.32-107.41-.26-5.12-4.33-9.27-9.47-9.64Z"></path></g></g><g><path class="cls-2" d="M25.3,240.92h2.56v21.13h-4.96v-9.57l-6.31,9.57h-2.59v-21.13h4.99v9.41l6.31-9.41Z"></path><path class="cls-2" d="M30.23,262.05v-21.13h4.96v7.88h3.94v-7.88h4.96v21.13h-4.96v-8.74h-3.94v8.74h-4.96Z"></path><path class="cls-2" d="M46.46,262.05v-21.13h4.96v7.88h3.94v-7.88h4.96v21.13h-4.96v-8.74h-3.94v8.74h-4.96Z"></path><path class="cls-2" d="M62.09,251.42c0-3.69.59-6.43,1.76-8.21s2.97-2.67,5.38-2.67,4.27.89,5.44,2.66c1.17,1.77,1.76,4.5,1.76,8.2,0,7.36-2.4,11.04-7.2,11.04-2.41,0-4.21-.9-5.38-2.71-1.17-1.8-1.76-4.57-1.76-8.31ZM71.4,251.48c0-2.39-.16-4.05-.48-4.98-.32-.93-.89-1.39-1.7-1.39s-1.37.45-1.67,1.34-.45,2.55-.45,4.96.15,4.09.46,5.03c.31.94.86,1.41,1.65,1.41s1.38-.47,1.7-1.41.48-2.59.48-4.96Z"></path><path class="cls-2" d="M91.6,256.03c0,1.75-.6,3.19-1.79,4.32-1.2,1.13-2.7,1.7-4.51,1.7h-7.11v-21.13h5.83c2.05,0,3.67.53,4.85,1.6s1.78,2.54,1.78,4.42-.58,3.18-1.73,4.16c1.79,1.09,2.69,2.73,2.69,4.93ZM83.95,244.98h-1.12v4.39h1.09c1.34,0,2.02-.73,2.02-2.18s-.66-2.21-1.98-2.21ZM86.9,255.64c0-1.58-.74-2.37-2.21-2.37h-1.86v4.71h1.86c1.47,0,2.21-.78,2.21-2.34Z"></path><path class="cls-2" d="M101.75,262.05l-.42-2.05h-4.45l-.45,2.05h-5.03l6.44-21.13h2.56l6.4,21.13h-5.06ZM99.13,249.98l-1.41,6.15h2.79l-1.38-6.15Z"></path><path class="cls-2" d="M118.21,266.56v-4.51h-10.5v-21.13h4.96v16.62h3.65v-16.62h4.96v16.62h1.89v9.03h-4.96Z"></path><path class="cls-2" d="M136.04,240.92h2.56v21.13h-4.96v-9.57l-6.31,9.57h-2.59v-21.13h4.99v9.41l6.31-9.41Z"></path><path class="cls-2" d="M140.36,251.42c0-3.69.59-6.43,1.76-8.21s2.97-2.67,5.38-2.67,4.27.89,5.44,2.66c1.17,1.77,1.76,4.5,1.76,8.2,0,7.36-2.4,11.04-7.2,11.04-2.41,0-4.21-.9-5.38-2.71-1.17-1.8-1.76-4.57-1.76-8.31ZM149.68,251.48c0-2.39-.16-4.05-.48-4.98-.32-.93-.89-1.39-1.7-1.39s-1.37.45-1.67,1.34-.45,2.55-.45,4.96.15,4.09.46,5.03c.31.94.86,1.41,1.65,1.41s1.38-.47,1.7-1.41.48-2.59.48-4.96Z"></path><path class="cls-2" d="M156.47,262.05v-21.13h4.96v7.88h3.94v-7.88h4.96v21.13h-4.96v-8.74h-3.94v8.74h-4.96Z"></path><path class="cls-2" d="M172.7,262.05v-21.13h4.96v7.88h3.94v-7.88h4.96v21.13h-4.96v-8.74h-3.94v8.74h-4.96Z"></path><path class="cls-2" d="M188.32,251.42c0-3.69.59-6.43,1.76-8.21s2.97-2.67,5.38-2.67,4.27.89,5.44,2.66c1.17,1.77,1.76,4.5,1.76,8.2,0,7.36-2.4,11.04-7.2,11.04-2.41,0-4.21-.9-5.38-2.71-1.17-1.8-1.76-4.57-1.76-8.31ZM197.64,251.48c0-2.39-.16-4.05-.48-4.98-.32-.93-.89-1.39-1.7-1.39s-1.37.45-1.67,1.34-.45,2.55-.45,4.96.15,4.09.46,5.03c.31.94.86,1.41,1.65,1.41s1.38-.47,1.7-1.41.48-2.59.48-4.96Z"></path><path class="cls-2" d="M203.82,251.48c0-7.3,2.34-10.95,7.01-10.95,1.86,0,3.31.51,4.35,1.54,1.05,1.02,1.75,2.65,2.11,4.87l-4.35,1.12c-.17-1.05-.42-1.8-.74-2.26-.32-.46-.76-.69-1.31-.69-.75,0-1.28.48-1.58,1.42-.31.95-.46,2.6-.46,4.95s.15,4,.46,4.95c.31.95.84,1.42,1.58,1.42.55,0,.99-.23,1.31-.69.32-.46.57-1.21.74-2.26l4.35,1.12c-.36,2.22-1.07,3.84-2.11,4.87-1.05,1.02-2.5,1.54-4.35,1.54-4.67,0-7.01-3.65-7.01-10.95Z"></path><path class="cls-2" d="M222.06,262.05v-16.62h-4.07v-4.51h13.09v4.51h-4.07v16.62h-4.96Z"></path><path class="cls-2" d="M232.53,262.05v-21.13h4.96v6.72h1.38c2.31,0,4.1.64,5.39,1.91,1.29,1.27,1.94,3.04,1.94,5.3s-.64,4.05-1.92,5.31c-1.28,1.26-3.08,1.89-5.41,1.89h-6.34ZM237.5,257.6h1.41c1.49,0,2.24-.92,2.24-2.75s-.75-2.75-2.24-2.75h-1.41v5.51Z"></path></g></g></g></g></svg> 