<?xml version="1.0" encoding="UTF-8"?> <svg xmlns="http://www.w3.org/2000/svg" id="_Слой_2" data-name="Слой 2" viewBox="0 0 877.52 796.52"><defs><style> .cls-1 { fill: #fff; } </style></defs><g id="Layer_1" data-name="Layer 1"><g><path d="M231.34.09c60.68-1.59,118.9,17.99,166.66,54.75,15.74,12.11,27.67,26.44,41.04,40.94,9.24-8.49,15.95-19.35,24.97-28.01,79.94-76.7,211.42-89.57,305.44-31.39,93.43,57.82,123.83,169.48,100.6,273.43-42.17,188.63-254.68,341.01-394.98,460.02-11.4,9.67-27.49,32.17-43.53,25.48-6.74-2.81-21.77-19.62-28.52-25.48C259.04,644.97,41.58,495.82,4.87,295.98-23.12,143.65,71.85,4.26,231.34.09ZM231.34,37.09C123.38,42.06,46.89,116.99,37.56,224.31c-13.47,154.99,130.59,295.16,236.98,389,48.42,42.71,98.94,83.12,148.49,124.51,2.59,2.16,14.85,14.22,16.88,13.86,50.25-43.52,102.59-84.67,152.66-128.37,117.18-102.26,274.37-251.36,244.67-423.7-29.96-173.84-249.99-215.98-362.2-88.83-6.42,7.27-23.64,33.89-30.75,36.24-5.98,1.98-12.31.72-16.77-3.69-9.33-9.23-18.48-26.31-27.99-37.01-40.31-45.35-107.67-72.02-168.18-69.23Z"></path><path class="cls-1" d="M231.34,37.09c60.5-2.79,127.87,23.88,168.18,69.23,9.51,10.7,18.66,27.78,27.99,37.01,4.46,4.41,10.79,5.67,16.77,3.69,7.11-2.35,24.33-28.97,30.75-36.24,112.21-127.15,332.24-85.01,362.2,88.83,29.7,172.34-127.49,321.44-244.67,423.7-50.08,43.7-102.42,84.86-152.66,128.37-2.03.36-14.29-11.7-16.88-13.86-49.55-41.39-100.07-81.8-148.49-124.51C168.15,519.47,24.09,379.29,37.56,224.31,46.89,116.99,123.38,42.06,231.34,37.09Z"></path></g></g></svg> 