<?xml version="1.0" encoding="UTF-8"?> <svg xmlns="http://www.w3.org/2000/svg" width="442" height="63" viewBox="0 0 442 63" fill="none"><g clip-path="url(#clip0_2001_425)"><path fill-rule="evenodd" clip-rule="evenodd" d="M359.356 7.71046C359.129 3.24648 360.838 0.937624 364.892 0.221296C369.166 -0.535 373.394 0.685525 374.793 3.07739C376.444 5.90273 376.005 10.2837 373.882 12.1499C372.323 13.521 369.914 14.1328 366.696 13.9791C361.722 13.7393 359.565 11.9008 359.356 7.71046ZM329.648 15.6485C330.182 7.50756 333.054 3.35715 339.197 1.86301C341.403 1.32499 348.037 1.34344 350.912 1.89375C352.995 2.29342 356.18 3.18191 356.496 3.45246C356.555 3.50165 355.874 5.74901 354.984 8.44216L353.364 13.3427L352.271 13.0353C351.667 12.8662 350.111 12.7125 348.807 12.6909C346.616 12.6571 346.377 12.7186 345.601 13.4934C344.898 14.1943 344.741 14.6555 344.634 16.3371L344.508 18.3447H353.784V29.7199H344.585L344.505 46.2446L344.425 62.7694H329.39L329.311 46.2446L329.231 29.7199H325.177L325.386 30.7191C325.5 31.2694 325.668 34.4513 325.76 37.7901L325.926 43.862H299.167L299.173 44.8612C299.188 47.1823 301.149 49.7156 303.923 50.9945C305.285 51.6217 305.902 51.6986 309.446 51.677C313.898 51.6494 317.006 51.0406 320.876 49.4327L323.1 48.5074V59.5751L321.367 60.3437C317.491 62.0592 314.944 62.4527 307.605 62.4558C301.373 62.4589 300.68 62.4066 298.565 61.7395C291.161 59.4091 286.792 54.9758 284.672 47.6373C284.061 45.5283 283.981 44.5845 284.003 39.7085C284.021 35.0385 284.129 33.7903 284.693 31.7151C285.694 28.0259 287.28 25.0499 289.501 22.698C291.787 20.2754 293.822 18.9903 297.172 17.8467C299.317 17.115 300.228 16.992 304.383 16.8752C308.455 16.7583 309.526 16.8321 311.821 17.3824C316.368 18.4677 319.799 20.5706 322.069 23.6634L323.407 25.4834L323.413 23.8355L323.419 22.1877L326.436 20.4168L329.452 18.646L329.648 15.6516V15.6485ZM-0.000105449 62.92V5.12184H11.3652C23.292 5.12184 27.1274 5.36472 31.0948 6.37311C35.4857 7.48911 38.999 9.78874 40.6651 12.6418C41.7973 14.5755 42.4386 17.7852 42.2331 20.4906C41.825 25.9046 39.3426 29.7107 34.9242 31.6906C33.5618 32.3024 33.3931 32.4591 33.9024 32.6405C38.7903 34.3806 41.5672 36.9324 42.6688 40.7046C42.8774 41.424 43.1658 42.0112 43.3101 42.0112C43.4543 42.0112 43.5678 40.554 43.5678 38.7708C43.5678 27.1497 49.3026 19.2578 59.2104 17.2441C63.0827 16.457 69.8577 16.743 73.2022 17.8313C79.115 19.7589 83.1315 24.0169 84.8375 30.1749C85.1934 31.463 85.399 33.8088 85.5156 37.9377L85.6844 43.8558H72.1436C61.1404 43.8558 58.6029 43.9327 58.6029 44.2617C58.6029 45.6759 59.6768 48.0247 60.8765 49.2237C62.8618 51.2128 64.6107 51.7047 69.4956 51.6524C74.3927 51.6002 77.007 50.9761 82.4595 48.5719C82.7571 48.4397 82.8431 49.6234 82.8431 53.9275V59.4521L81.0266 60.2699C77.3998 61.8993 74.8745 62.3574 68.5505 62.5296C63.7823 62.6587 62.2174 62.5911 60.1125 62.1637C51.7297 60.4636 46.1146 55.1972 44.2643 47.2961C43.979 46.0817 43.6537 45.0856 43.5433 45.0856C43.4328 45.0856 43.2702 46.2262 43.1904 47.6219C42.9326 52.0306 41.0487 55.56 37.5078 58.2746C32.3866 62.2037 28.3302 62.8954 10.3526 62.9077L-0.00317383 62.9139L-0.000105449 62.92ZM152.191 62.9999V5.12184H163.621C175.238 5.12799 178.88 5.34012 182.722 6.23784C185.729 6.94187 189.009 8.51287 190.669 10.047C193.516 12.6786 194.913 17.2133 194.25 21.6896C193.566 26.3135 191.23 29.6861 187.453 31.4999C185.858 32.2685 185.603 32.4837 186.1 32.6528C188.147 33.3507 190.687 34.7526 191.85 35.8256C193.21 37.0799 194.701 39.6808 195.041 41.3933C195.305 42.7214 195.646 42.54 195.514 41.1412C195.357 39.481 195.971 33.7381 196.548 31.4661C196.815 30.4208 197.588 28.4041 198.266 26.9898C200.595 22.1323 204.961 18.7598 210.684 17.3917C213.034 16.829 214.059 16.7614 218.162 16.8813C222.224 17.0012 223.28 17.1426 225.397 17.8344C230.042 19.3531 233.602 22.3752 235.507 26.418C237.222 30.0581 237.538 31.7305 237.716 38.0945L237.879 43.8589H224.338C223.068 43.8589 221.914 43.8589 220.862 43.8558C213.191 43.8435 211.095 43.8405 210.801 44.5691C210.69 44.8427 210.834 45.2178 211.034 45.7343C211.107 45.9218 211.187 46.1309 211.264 46.3584C211.933 48.329 213.304 49.8386 215.326 50.8347C217.005 51.6617 217.275 51.6986 221.227 51.6678C226.366 51.6278 229.171 50.9822 234.651 48.575C234.949 48.4428 235.035 49.6264 235.035 53.9305V59.4552L233.218 60.273C229.591 61.9024 227.066 62.3605 220.742 62.5326C214.467 62.7017 211.721 62.3759 208.14 61.0323C205.845 60.1715 202.178 57.6567 200.669 55.9104C199.03 54.0136 196.895 49.7279 196.385 47.3176C196.161 46.26 195.861 45.3961 195.716 45.3961C195.572 45.3961 195.449 46.1217 195.446 47.0101C195.437 50.6594 193.805 54.361 191.028 57.0234C188.883 59.0801 187.113 60.19 184.532 61.0938C180.476 62.5142 179.046 62.6433 165.303 62.8247L152.185 62.9969L152.191 62.9999ZM127.347 14.0375C128.227 11.9223 129.074 9.95168 129.228 9.65654C129.476 9.17694 130.05 9.11852 134.407 9.11852H139.304V17.7268H150.044V29.0866L144.751 29.1696L139.458 29.2526L139.372 38.1683C139.277 48.1323 139.449 49.279 141.158 50.1644C142.379 50.7978 145.211 50.7332 148.049 50.0046C149.369 49.6664 150.565 49.3897 150.706 49.3897C150.848 49.3897 150.964 51.8185 150.964 54.7883V60.1869L149.626 60.7802C148.89 61.1061 147.067 61.6657 145.576 62.0192C141.799 62.9169 134.57 62.7786 131.799 61.7518C128.534 60.5435 126.301 58.1732 125.135 54.6807C124.484 52.7285 124.438 51.9845 124.282 40.9352L124.119 29.2526L121.434 29.1634L118.749 29.0743L118.737 27.6262L118.725 26.1782L117.85 28.1765C117.368 29.2741 116.856 30.1411 116.712 30.1011C116.565 30.0611 114.895 29.4893 113.002 28.8283C106.798 26.664 102.349 26.4826 101.499 28.3549C100.845 29.7906 101.855 30.5592 107.731 33.1048C114.472 36.0254 115.972 36.8555 117.82 38.6786C119.786 40.6185 120.811 42.7952 121.228 45.9095C121.79 50.1122 120.814 54.2903 118.58 57.2232C117.372 58.8127 114.429 60.645 111.588 61.5796C109.314 62.3267 108.547 62.4158 103.205 62.5388C96.7459 62.6864 93.0546 62.2836 89.1394 61.0047L86.9915 60.3037L86.9087 54.2318C86.8626 50.8931 86.9025 48.16 86.9976 48.16C87.0928 48.16 88.5104 48.6242 90.1489 49.1929C94.8926 50.8377 97.6204 51.3573 101.594 51.3727C105.506 51.3881 106.666 51.0437 106.985 49.7679C107.424 48.0185 106.509 47.3575 99.489 44.3447C96.93 43.2471 94.0764 41.8606 93.1467 41.2672C89.5383 38.9553 87.731 36.2191 87.0989 32.124C85.9206 24.4689 90.2593 18.9319 98.768 17.2379C100.762 16.8413 102.41 16.7614 106.132 16.8782C111.275 17.0412 113.131 17.407 118.237 19.267C120.79 20.1986 120.934 20.2969 120.756 21.0102C120.584 21.6958 120.784 21.6158 122.901 20.1309C124.186 19.2332 125.349 18.357 125.49 18.1848C125.632 18.0127 126.466 16.1435 127.347 14.0283V14.0375ZM382.562 18.2617L384.474 13.6901L386.389 9.11852H396.434V17.7268H407.174V29.1019H396.434V38.5556C396.438 47.4621 396.471 48.0677 397.048 49.0177C397.386 49.5711 398.042 50.1737 398.506 50.352C400.537 51.1421 407.787 49.8755 407.787 48.7287C407.787 48.4182 407.843 48.163 407.91 48.163C407.978 48.163 409.668 48.7103 411.669 49.3805C420.184 52.2304 427.566 52.255 427.983 49.4297C428.18 48.12 426.363 46.8749 420.828 44.5261C410.543 40.1574 407.99 37.249 407.956 29.8644C407.941 26.6486 407.99 26.3719 408.938 24.4473C409.515 23.2729 410.524 21.8741 411.335 21.1239C413.096 19.4976 416.474 17.8836 419.389 17.2748C422.319 16.663 429.045 16.66 432.249 17.2687C435.388 17.8651 441.846 20.0602 441.846 20.5306C441.846 20.8288 438.115 29.8306 437.891 30.0734C437.787 30.1841 436.698 29.8736 435.47 29.3817C430.153 27.2512 424.786 26.5041 423.04 27.6478C421.077 28.9359 422.522 30.5684 427.425 32.5944C436.418 36.3144 439.407 38.3835 441.11 42.0788C441.957 43.9204 442 44.2125 442 48.3137C442 52.4149 441.945 52.7346 441.184 54.361C439.561 57.8319 436.707 60.2023 432.488 61.595C430.269 62.3267 429.466 62.4158 424.154 62.5388C417.692 62.6864 414.004 62.2836 410.089 61.0047L407.941 60.3037L404.872 61.3736C401.813 62.4404 401.786 62.4435 396.281 62.4496C391.761 62.4558 390.473 62.3574 389.19 61.9085C385.431 60.5927 383.139 58.1301 381.918 54.0843C381.344 52.1843 381.28 51.0037 381.169 40.5509L381.047 29.0989H375.882L375.803 45.931L375.723 62.7632L368.129 62.8462L360.534 62.9292V18.0342H375.852L375.941 20.4629L376.03 22.8917L379.294 20.5736L382.562 18.2556V18.2617ZM26.6181 21.9909C26.747 19.6974 26.1333 18.4062 24.4825 17.5177C23.7001 17.0965 22.5494 16.9459 19.4074 16.8567L15.3418 16.743V26.9499H18.088C22.0339 26.9499 23.7768 26.5041 25.2711 25.1053C26.4278 24.0231 26.5138 23.8232 26.6181 21.9909ZM178.469 23.6695C179.497 21.2069 178.681 18.6091 176.545 17.5484C175.606 17.0811 174.542 16.9366 171.446 16.8567L167.533 16.7553V26.9499H170.28C175.155 26.9499 177.49 26.0153 178.466 23.6695H178.469ZM254.322 22.9655C256.053 20.8073 259.266 18.9934 262.5 18.3478C263.175 18.2125 265.114 18.0865 266.808 18.068C274.798 17.9819 279.919 21.6312 281.904 28.8283C282.389 30.5869 282.444 32.4499 282.444 46.7796V62.7663L274.85 62.8493L267.256 62.9323L267.246 50.7055C267.24 43.9819 267.105 37.4673 266.946 36.2314C266.36 31.7029 264.936 30.0273 261.677 30.0242C259.526 30.0242 258.495 30.3962 257.207 31.6414C254.841 33.9287 254.368 37.2951 254.368 51.9199V62.92H239.027V18.6491H250.604L251.592 21.416C252.135 22.9378 252.751 24.1829 252.963 24.1829C253.175 24.1829 253.786 23.6357 254.326 22.9624L254.322 22.9655ZM71.1525 32.3362C70.7168 30.7682 68.9095 28.9574 67.3447 28.5209C64.9421 27.8537 62.38 28.3426 60.8397 29.766C59.8854 30.6453 58.9312 32.6498 58.922 33.7903L58.9158 34.6358H65.206C65.6386 34.6358 66.0437 34.6358 66.4242 34.6358C69.9313 34.6419 71.1587 34.6419 71.441 34.1255C71.5913 33.8488 71.4686 33.4183 71.2783 32.7604C71.2415 32.6282 71.1986 32.4868 71.1587 32.3362H71.1525ZM223.541 33.4983C223.2 31.6752 222.23 30.0857 220.939 29.228C218.692 27.74 214.952 27.9952 213.031 29.766C212.077 30.6453 211.123 32.6498 211.114 33.7903L211.107 34.6358H223.755L223.541 33.4983ZM311.747 33.7012C311.747 31.6075 309.719 29.1112 307.519 28.4994C305.663 27.9829 304.288 28.1274 302.521 29.0251C300.713 29.9412 299.704 31.3462 299.311 33.4829L299.099 34.6358H311.747V33.7012ZM27.9221 44.3477C27.9221 41.7007 27.2502 40.5478 25.0716 39.4441C23.4975 38.6479 22.9483 38.5464 19.3368 38.4019L15.3418 38.239V50.0876L19.5731 49.9523C23.338 49.8324 23.9547 49.734 25.1606 49.0669C27.152 47.9663 27.9191 46.6504 27.9191 44.3477H27.9221ZM179.997 42.5123C179.696 41.3133 178.26 39.8223 176.772 39.1613C175.735 38.7001 174.459 38.5157 171.47 38.3958L167.533 38.2359V50.0784L171.599 49.9492C176.257 49.8017 177.981 49.2544 179.199 47.5389C179.951 46.4814 180.353 43.9388 179.997 42.5154V42.5123Z" fill="white"></path></g><defs><clipPath id="clip0_2001_425"><rect width="442" height="63" fill="white"></rect></clipPath></defs></svg> 