<?xml version="1.0" encoding="UTF-8"?> <svg xmlns="http://www.w3.org/2000/svg" id="_Слой_2" data-name="Слой 2" viewBox="0 0 552.09 930.81"><defs><style> .cls-1 { fill: #fff; } </style></defs><g id="Layer_1" data-name="Layer 1"><g><path d="M94.86,0c2.77-.08,4.93.86,7.63.82,123.83-1.83,248.19.32,371.91,1.08,43.09,7.67,76.84,46.33,77.68,90.32l-.05,743.04c-1.58,50.64-42.38,91.72-92.45,95.55l-365.03-.05c-51.06-4.25-93.67-45.19-94.55-97.45L.17,87.33C3.99,37.92,46.06,1.41,94.86,0ZM519.04,124.77v-34.5c0-23.54-25.69-53.58-49.62-56.38-129.34-1.79-259.31-2.02-388.64.12-25.91,5.28-47.74,31.64-47.74,58.26v32.5h486ZM519.04,156.77H33.04v559h486V156.77ZM519.04,748.77H33.04c3.7,50.28-17.08,123.34,44.48,145.02,10.63,3.74,14.51,3.31,24.97,3.94,114.56,6.92,233.92-3.06,349.1,1.09,39.35-1.64,65.12-29.95,67.49-68.51,1.64-26.56-1.31-54.81-.04-81.54Z"></path><rect class="cls-1" x="33.04" y="156.77" width="486" height="559"></rect><path class="cls-1" d="M519.04,748.77c-1.27,26.73,1.68,54.98.04,81.54-2.38,38.55-28.15,66.87-67.49,68.51-115.18-4.14-234.54,5.83-349.1-1.09-10.45-.63-14.34-.2-24.97-3.94-61.56-21.68-40.78-94.74-44.48-145.02h486ZM269.84,765.07c-53.74,5.02-75.26,70.38-33.81,106.21,32.59,28.18,88.07,12.26,99.72-29.3,11.83-42.19-22.98-80.93-65.91-76.91Z"></path><path class="cls-1" d="M519.04,124.77H33.04v-32.5c0-26.63,21.83-52.98,47.74-58.26,129.33-2.14,259.3-1.91,388.64-.12,23.93,2.8,49.62,32.84,49.62,56.38v34.5ZM213.78,63.01c-17.87,4.9-17.21,27.7.85,31.67h122.82c18.89-3.99,17.01-28.08-1-31.82l-122.67.15Z"></path><path d="M269.84,765.07c42.93-4.01,77.74,34.72,65.91,76.91-11.65,41.56-67.13,57.48-99.72,29.3-41.45-35.84-19.93-101.19,33.81-106.21ZM271.8,796.03c-3.69.54-8.24,2.65-11.46,4.55-32,18.85-7.35,66.16,26.92,51.92,35.32-14.67,16.46-61.15-15.47-56.47Z"></path><path d="M213.78,63.01l122.67-.15c18.01,3.74,19.89,27.83,1,31.82h-122.82c-18.06-3.97-18.72-26.77-.85-31.67Z"></path><path class="cls-1" d="M271.8,796.03c31.92-4.68,50.79,41.79,15.47,56.47-34.28,14.24-58.93-33.07-26.92-51.92,3.21-1.89,7.76-4,11.46-4.55Z"></path></g></g></svg> 