<?xml version="1.0" encoding="UTF-8"?> <svg xmlns="http://www.w3.org/2000/svg" width="159" height="76" viewBox="0 0 159 76" fill="none"><g filter="url(#filter0_dd_2106_241)"><rect x="1.32036" y="1.32031" width="156" height="73" rx="36.5" fill="#CBD13F"></rect><path d="M42.6835 43.8172C42.6835 46.744 41.8979 48.993 40.3266 50.5642C38.7554 52.1047 36.4756 52.8749 33.4872 52.8749C28.1881 52.8749 25.0148 50.1945 23.9673 44.8339L30.1136 42.8467C30.5141 45.1265 31.5924 46.2664 33.3485 46.2664C35.043 46.2664 35.8902 45.2344 35.8902 43.1702C35.8902 42.0919 35.6283 41.2601 35.1046 40.6747C34.5809 40.0893 33.8415 39.7967 32.8864 39.7967H30.2985V34.0663H32.8864C34.8889 34.0663 35.8902 33.0034 35.8902 30.8776C35.8902 28.8751 35.0892 27.8738 33.4872 27.8738C31.8235 27.8738 30.7914 29.0137 30.3909 31.2935L24.2446 29.3064C25.2921 23.9457 28.4192 21.2654 33.6258 21.2654C36.5526 21.2654 38.7862 22.0356 40.3266 23.576C41.8979 25.0856 42.6835 27.273 42.6835 30.1382C42.6835 33.4347 41.4974 35.6683 39.1251 36.839C41.4974 38.1022 42.6835 40.4282 42.6835 43.8172ZM55.2422 52.3203L54.6414 49.3627H48.2178L47.5708 52.3203H40.3154L49.6042 21.8199H53.3012L62.5438 52.3203H55.2422ZM51.4527 34.8981L49.4194 43.771H53.4399L51.4527 34.8981ZM61.522 52.3203V21.8199H78.4821V28.2435H68.685V34.0201H72.1972C74.8467 34.0201 76.9571 34.8365 78.5283 36.4693C80.0995 38.1022 80.8852 40.2896 80.8852 43.0316C80.8852 45.8043 80.0687 48.0533 78.4359 49.7786C76.8338 51.4731 74.7543 52.3203 72.1972 52.3203H61.522ZM68.685 46.3127H71.1805C72.0431 46.3127 72.7055 46.0354 73.1676 45.4808C73.6298 44.8955 73.8608 44.079 73.8608 43.0316C73.8608 41.9841 73.6298 41.183 73.1676 40.6285C72.7055 40.0431 72.0431 39.7505 71.1805 39.7505H68.685V46.3127ZM79.8602 36.9777C79.8602 31.6478 80.7074 27.7043 82.4019 25.1472C84.0963 22.5593 86.6843 21.2654 90.1656 21.2654C93.7086 21.2654 96.3273 22.5439 98.0218 25.101C99.7162 27.6581 100.563 31.6016 100.563 36.9315C100.563 47.5604 97.0975 52.8749 90.1656 52.8749C86.6843 52.8749 84.0963 51.5809 82.4019 48.993C80.7074 46.3743 79.8602 42.3692 79.8602 36.9777ZM93.3081 37.0701C93.3081 33.6196 93.077 31.2319 92.6149 29.9071C92.1528 28.5516 91.3363 27.8738 90.1656 27.8738C88.9949 27.8738 88.1939 28.5208 87.7626 29.8147C87.3312 31.1087 87.1156 33.4963 87.1156 36.9777C87.1156 40.459 87.3312 42.8775 87.7626 44.2331C88.2247 45.5887 89.0257 46.2664 90.1656 46.2664C91.3363 46.2664 92.1528 45.5887 92.6149 44.2331C93.077 42.8775 93.3081 40.4899 93.3081 37.0701ZM105.025 52.3203V28.3359H99.1558V21.8199H118.057V28.3359H112.188V52.3203H105.025ZM128.181 52.3203L127.58 49.3627H121.156L120.509 52.3203H113.254L122.543 21.8199H126.24L135.482 52.3203H128.181ZM124.391 34.8981L122.358 43.771H126.378L124.391 34.8981Z" fill="black"></path></g><defs><filter id="filter0_dd_2106_241" x="-5.24521e-06" y="-5.10216e-05" width="158.641" height="75.6407" filterUnits="userSpaceOnUse" color-interpolation-filters="sRGB"><feFlood flood-opacity="0" result="BackgroundImageFix"></feFlood><feColorMatrix in="SourceAlpha" type="matrix" values="0 0 0 0 0 0 0 0 0 0 0 0 0 0 0 0 0 0 127 0" result="hardAlpha"></feColorMatrix><feMorphology radius="0.660182" operator="dilate" in="SourceAlpha" result="effect1_dropShadow_2106_241"></feMorphology><feOffset></feOffset><feGaussianBlur stdDeviation="0.330091"></feGaussianBlur><feColorMatrix type="matrix" values="0 0 0 0 0.0352941 0 0 0 0 0.117647 0 0 0 0 0.258824 0 0 0 0.13 0"></feColorMatrix><feBlend mode="normal" in2="BackgroundImageFix" result="effect1_dropShadow_2106_241"></feBlend><feColorMatrix in="SourceAlpha" type="matrix" values="0 0 0 0 0 0 0 0 0 0 0 0 0 0 0 0 0 0 127 0" result="hardAlpha"></feColorMatrix><feOffset dy="0.660182"></feOffset><feGaussianBlur stdDeviation="0.330091"></feGaussianBlur><feColorMatrix type="matrix" values="0 0 0 0 0.0352941 0 0 0 0 0.117647 0 0 0 0 0.258824 0 0 0 0.25 0"></feColorMatrix><feBlend mode="normal" in2="effect1_dropShadow_2106_241" result="effect2_dropShadow_2106_241"></feBlend><feBlend mode="normal" in="SourceGraphic" in2="effect2_dropShadow_2106_241" result="shape"></feBlend></filter></defs></svg> 