<?xml version="1.0" encoding="UTF-8"?> <svg xmlns="http://www.w3.org/2000/svg" width="242" height="76" viewBox="0 0 242 76" fill="none"><g filter="url(#filter0_dd_2083_192)"><rect x="1.32037" y="1.32031" width="239" height="73" rx="36.5" fill="#EFB23F"></rect><path d="M25.0302 52.3203V21.8199H34.1804C37.5385 21.8199 40.1418 22.7288 41.9903 24.5465C43.8388 26.3642 44.7631 28.9213 44.7631 32.2178C44.7631 35.4835 43.8234 38.0406 41.9441 39.8891C40.0956 41.7068 37.5077 42.6156 34.1804 42.6156H32.1932V52.3203H25.0302ZM32.1932 36.1921H34.2266C36.3832 36.1921 37.4615 34.8673 37.4615 32.2178C37.4615 29.5682 36.3832 28.2435 34.2266 28.2435H32.1932V36.1921ZM55.0165 52.3203L54.4158 49.3627H47.9922L47.3452 52.3203H40.0898L49.3786 21.8199H53.0756L62.3181 52.3203H55.0165ZM51.2271 34.8981L49.1937 43.771H53.2142L51.2271 34.8981ZM78.6338 43.8172C78.6338 46.744 77.8481 48.993 76.2769 50.5642C74.7057 52.1047 72.4258 52.8749 69.4374 52.8749C64.1384 52.8749 60.9651 50.1945 59.9176 44.8339L66.0639 42.8467C66.4644 45.1265 67.5427 46.2664 69.2988 46.2664C70.9933 46.2664 71.8405 45.2344 71.8405 43.1702C71.8405 42.0919 71.5786 41.2601 71.0549 40.6747C70.5311 40.0893 69.7917 39.7967 68.8367 39.7967H66.2487V34.0663H68.8367C70.8392 34.0663 71.8405 33.0034 71.8405 30.8776C71.8405 28.8751 71.0395 27.8738 69.4374 27.8738C67.7738 27.8738 66.7417 29.0137 66.3412 31.2935L60.1949 29.3064C61.2424 23.9457 64.3694 21.2654 69.5761 21.2654C72.5029 21.2654 74.7365 22.0356 76.2769 23.576C77.8481 25.0856 78.6338 27.273 78.6338 30.1382C78.6338 33.4347 77.4476 35.6683 75.0754 36.839C77.4476 38.1022 78.6338 40.4282 78.6338 43.8172ZM98.0705 43.6323C98.0705 46.1586 97.2079 48.2382 95.4826 49.871C93.7574 51.5039 91.5854 52.3203 88.9666 52.3203H78.7074V21.8199H87.1181C90.0757 21.8199 92.4018 22.5901 94.0962 24.1306C95.8215 25.671 96.6842 27.7968 96.6842 30.5079C96.6842 33.0958 95.8523 35.0984 94.1887 36.5156C96.7766 38.0868 98.0705 40.459 98.0705 43.6323ZM87.0257 27.6889H85.4083V34.0201H86.9795C88.9204 34.0201 89.8909 32.9726 89.8909 30.8776C89.8909 28.7518 88.9358 27.6889 87.0257 27.6889ZM91.2773 43.0778C91.2773 40.7979 90.2144 39.658 88.0886 39.658H85.4083V46.4513H88.0886C90.2144 46.4513 91.2773 45.3268 91.2773 43.0778ZM114.237 21.8199H117.934V52.3203H110.771V38.5027L101.667 52.3203H97.9236V21.8199H105.133V35.4065L114.237 21.8199ZM138.398 43.6323C138.398 46.1586 137.536 48.2382 135.81 49.871C134.085 51.5039 131.913 52.3203 129.294 52.3203H119.035V21.8199H127.446C130.404 21.8199 132.73 22.5901 134.424 24.1306C136.149 25.671 137.012 27.7968 137.012 30.5079C137.012 33.0958 136.18 35.0984 134.516 36.5156C137.104 38.0868 138.398 40.459 138.398 43.6323ZM127.354 27.6889H125.736V34.0201H127.307C129.248 34.0201 130.219 32.9726 130.219 30.8776C130.219 28.7518 129.264 27.6889 127.354 27.6889ZM131.605 43.0778C131.605 40.7979 130.542 39.658 128.416 39.658H125.736V46.4513H128.416C130.542 46.4513 131.605 45.3268 131.605 43.0778ZM150.736 52.3203L150.136 49.3627H143.712L143.065 52.3203H135.81L145.098 21.8199H148.796L158.038 52.3203H150.736ZM146.947 34.8981L144.914 43.771H148.934L146.947 34.8981ZM173.329 21.8199H177.026V52.3203H169.863V38.5027L160.76 52.3203H157.016V21.8199H164.225V35.4065L173.329 21.8199ZM160.482 12.2077V10.2667H165.704V12.2539C165.704 13.1781 166.197 13.6403 167.183 13.6403C168.107 13.6403 168.569 13.1781 168.569 12.2539V10.2667H173.838V12.2077C173.838 14.2718 173.252 15.8739 172.082 17.0138C170.942 18.1229 169.309 18.6774 167.183 18.6774C165.057 18.6774 163.409 18.1229 162.238 17.0138C161.068 15.8739 160.482 14.2718 160.482 12.2077ZM187.37 52.8749C180.623 52.8749 177.25 47.6066 177.25 37.0701C177.25 26.5336 180.623 21.2654 187.37 21.2654C190.051 21.2654 192.146 22.0048 193.655 23.4836C195.165 24.9624 196.182 27.3038 196.705 30.5079L190.421 32.1254C190.174 30.6157 189.82 29.5374 189.358 28.8905C188.896 28.2127 188.264 27.8738 187.463 27.8738C186.385 27.8738 185.614 28.567 185.152 29.9534C184.721 31.3089 184.505 33.6812 184.505 37.0701C184.505 40.459 184.721 42.8467 185.152 44.2331C185.614 45.5887 186.385 46.2664 187.463 46.2664C188.264 46.2664 188.896 45.943 189.358 45.296C189.82 44.6182 190.174 43.5245 190.421 42.0149L196.705 43.6323C196.182 46.8364 195.165 49.1778 193.655 50.6567C192.146 52.1355 190.051 52.8749 187.37 52.8749ZM206.474 21.8199H215.624V52.3203H208.461V43.0778H206.751L202.962 52.3203H195.475L200.143 41.2755C198.818 40.3204 197.771 39.0727 197 37.5322C196.261 35.9918 195.891 34.2974 195.891 32.4488C195.891 29.1215 196.816 26.5182 198.664 24.6389C200.543 22.7596 203.147 21.8199 206.474 21.8199ZM208.461 36.6542V28.2435H206.428C204.271 28.2435 203.193 29.6453 203.193 32.4488C203.193 35.2524 204.271 36.6542 206.428 36.6542H208.461Z" fill="black"></path></g><defs><filter id="filter0_dd_2083_192" x="1.00136e-05" y="-5.10216e-05" width="241.641" height="75.6407" filterUnits="userSpaceOnUse" color-interpolation-filters="sRGB"><feFlood flood-opacity="0" result="BackgroundImageFix"></feFlood><feColorMatrix in="SourceAlpha" type="matrix" values="0 0 0 0 0 0 0 0 0 0 0 0 0 0 0 0 0 0 127 0" result="hardAlpha"></feColorMatrix><feMorphology radius="0.660182" operator="dilate" in="SourceAlpha" result="effect1_dropShadow_2083_192"></feMorphology><feOffset></feOffset><feGaussianBlur stdDeviation="0.330091"></feGaussianBlur><feColorMatrix type="matrix" values="0 0 0 0 0.0352941 0 0 0 0 0.117647 0 0 0 0 0.258824 0 0 0 0.13 0"></feColorMatrix><feBlend mode="normal" in2="BackgroundImageFix" result="effect1_dropShadow_2083_192"></feBlend><feColorMatrix in="SourceAlpha" type="matrix" values="0 0 0 0 0 0 0 0 0 0 0 0 0 0 0 0 0 0 127 0" result="hardAlpha"></feColorMatrix><feOffset dy="0.660182"></feOffset><feGaussianBlur stdDeviation="0.330091"></feGaussianBlur><feColorMatrix type="matrix" values="0 0 0 0 0.0352941 0 0 0 0 0.117647 0 0 0 0 0.258824 0 0 0 0.25 0"></feColorMatrix><feBlend mode="normal" in2="effect1_dropShadow_2083_192" result="effect2_dropShadow_2083_192"></feBlend><feBlend mode="normal" in="SourceGraphic" in2="effect2_dropShadow_2083_192" result="shape"></feBlend></filter></defs></svg> 