<?xml version="1.0" encoding="UTF-8"?> <svg xmlns="http://www.w3.org/2000/svg" id="_Слой_2" data-name="Слой 2" viewBox="0 0 901.87 815.2"><defs><style> .cls-1, .cls-2 { stroke: #000; stroke-linecap: round; stroke-linejoin: round; stroke-width: 20px; } .cls-2 { fill: #fff; } </style></defs><g id="_Слой_1-2" data-name="Слой 1"><g><path class="cls-1" d="M10,242.19v-18.95c6.27-23.23,23.05-41.57,44.91-46.39,25.81-5.7,49.84,5.51,62.42,25.02,13.91,21.57,12.2,47.3-2.8,67.66l59.58,65,41.27-146.37c-40.51-18.3-52.4-66.97-27.83-101.34,24.2-33.85,73.52-37.92,102.86-8.52,29.67,29.74,26.09,78.45-9.32,103.65l68.91,137.81,85.75-156.95c-39.99-8.88-65.85-44.86-61.51-84.24,4.3-39.11,37.76-68.9,77.44-68.57s72.33,30.21,76.13,69.72c3.77,39.14-22.36,74.16-61.61,83.29l89.66,163.61,76.8-145.56c-35.93-26.54-37.07-76.67-5.9-104.96,30.81-27.95,79.5-21.64,102.15,13.04,22.92,35.1,9.44,82.39-30.91,99.73l35.56,139.68,53.8-59.25c-15.85-21.26-16.31-47.36-2.05-68.52,12.78-18.95,36.72-29.71,61.82-23.85,20.58,4.8,39.27,22.04,43.74,45.75,6.96,36.96-22.56,70.06-60.29,69.3l-90.24,423.52c-2.18,10.24-13.04,18.84-20.2,24.77-37.66,31.16-106.27,48.76-154.41,56.12-84,12.84-168.55,11.57-252.2-3.29-42.37-7.53-101.74-23.89-133.94-52.29-7.28-6.42-15.9-14.96-18.12-25.37l-90.13-423.49c-31.16.68-54.82-20.69-61.32-49.75ZM509.21,87.05c0-32.18-26.09-58.27-58.27-58.27s-58.27,26.09-58.27,58.27,26.09,58.27,58.27,58.27,58.27-26.09,58.27-58.27ZM291.46,126.21c0-26.99-21.88-48.86-48.86-48.86s-48.86,21.88-48.86,48.86,21.88,48.86,48.86,48.86,48.86-21.88,48.86-48.86ZM721.1,126.21c0-26.99-21.88-48.86-48.86-48.86s-48.86,21.88-48.86,48.86,21.88,48.86,48.86,48.86,48.86-21.88,48.86-48.86ZM686.22,644.85c21.78-9.23,40.91-20.81,57.96-37.42l67.78-318.53c-3.45-2.58-6.91-4.47-11.14-6.18l-172.34,188.59c-1.97,2.16-6.89,3.89-9.38,3.43-2.25-.41-5-3.11-7.19-6.08l-160.97-294.05-161.57,295.13c-3.73,5.81-9.93,6.56-15.2,2.35l-173.09-189.39c-4.2,1.8-7.67,3.7-11.16,6.19l68.93,323.89c35.17,34.5,102.07,52.92,149.21,60.21,113.69,17.57,270.86,17.33,378.16-28.13ZM279.07,449.21l59.86-109.43-74.52-148.83c-10.45,2.01-19.54,2.92-31.01,2.88l-44.31,157.23,89.99,98.16ZM718.33,344.99l-38.58-151.03c-10.78-.06-19.83-1.08-30.62-3.6l-82.44,156.41,56.27,102.62,95.37-104.39ZM107.87,233.58c0-21.79-17.66-39.45-39.45-39.45s-39.45,17.66-39.45,39.45,17.66,39.45,39.45,39.45,39.45-17.66,39.45-39.45ZM872.91,233.58c0-21.79-17.66-39.45-39.45-39.45s-39.45,17.66-39.45,39.45,17.66,39.45,39.45,39.45,39.45-17.66,39.45-39.45ZM213.09,740.88c32.16,17.28,65.15,26.47,100.71,33.11,81.41,15.2,163.99,16.15,245.93,4.33,45.88-6.62,102.48-21.69,141.51-46.46,6.59-6.58,18.52-12.19,20.63-21.91l15.52-71.68c-58.26,38.24-127.07,51.93-194.21,59.73-68.83,6.74-136.65,5.96-205.43-1.62-61.37-8.17-119.16-19.96-172.38-53.39,5.56,24.12,8.4,46.9,15.81,69.5,4.25,12.98,19.67,21.81,31.92,28.4Z"></path><path class="cls-2" d="M686.22,644.85c-107.31,45.47-264.47,45.7-378.16,28.13-47.14-7.29-114.04-25.7-149.21-60.21l-68.93-323.89c3.49-2.49,6.96-4.39,11.16-6.19l173.09,189.39c5.27,4.21,11.48,3.46,15.2-2.35l161.57-295.13,160.97,294.05c2.19,2.97,4.94,5.67,7.19,6.08,2.49.46,7.41-1.27,9.38-3.43l172.34-188.59c4.23,1.7,7.69,3.59,11.14,6.18l-67.78,318.53c-17.06,16.62-36.19,28.2-57.96,37.42ZM432.6,629.74c31.66,7.41,62.23-4.43,83.33-28.38,39.16-44.47,39.33-114.19.52-158.95-21.69-25.01-53.39-36.64-85.13-28.62-24.75,6.25-44.35,22.41-57.46,44.41-38.61,64.8-9.11,155.66,58.74,171.55Z"></path><path class="cls-2" d="M213.09,740.88c-12.26-6.59-27.67-15.42-31.92-28.4-7.4-22.6-10.24-45.38-15.81-69.5,53.22,33.43,111.01,45.22,172.38,53.39,68.78,7.58,136.6,8.35,205.43,1.62,67.14-7.8,135.95-21.49,194.21-59.73l-15.52,71.68c-2.1,9.71-14.03,15.33-20.63,21.91-39.02,24.78-95.62,39.85-141.51,46.46-81.94,11.82-164.52,10.87-245.93-4.33-35.56-6.64-68.55-15.82-100.71-33.11Z"></path><path class="cls-2" d="M718.33,344.99l-95.37,104.39-56.27-102.62,82.44-156.41c10.8,2.53,19.84,3.54,30.62,3.6l38.58,151.03Z"></path><path class="cls-2" d="M279.07,449.21l-89.99-98.16,44.31-157.23c11.47.04,20.56-.86,31.01-2.88l74.52,148.83-59.86,109.43Z"></path><circle class="cls-2" cx="450.94" cy="87.05" r="58.27"></circle><circle class="cls-2" cx="672.24" cy="126.21" r="48.86"></circle><circle class="cls-2" cx="242.6" cy="126.21" r="48.86"></circle><circle class="cls-2" cx="68.42" cy="233.58" r="39.45"></circle><circle class="cls-2" cx="833.46" cy="233.58" r="39.45"></circle><path class="cls-1" d="M432.6,629.74c-67.85-15.89-97.34-106.75-58.74-171.55,13.11-22,32.71-38.17,57.46-44.41,31.74-8.01,63.44,3.61,85.13,28.62,38.81,44.76,38.64,114.49-.52,158.95-21.1,23.96-51.67,35.8-83.33,28.38ZM503.13,587.5c31.87-38.08,30.97-95.67-.66-132.6-28.2-32.92-74.83-32.87-103.05,0-32.32,37.64-32.22,96.67.55,134,28.43,32.39,74.89,32.38,103.16-1.4Z"></path><path class="cls-2" d="M503.13,587.5c-28.27,33.78-74.73,33.79-103.16,1.4-32.77-37.33-32.87-96.36-.55-134,28.22-32.86,74.84-32.92,103.05,0,31.63,36.93,32.53,94.52.66,132.6Z"></path></g></g></svg> 