<?xml version="1.0" encoding="UTF-8"?> <svg xmlns="http://www.w3.org/2000/svg" id="_Слой_2" data-name="Слой 2" viewBox="0 0 739.69 761.62"><defs><style> .cls-1, .cls-2 { stroke: #000; stroke-linecap: round; stroke-linejoin: round; stroke-width: 10px; } .cls-2 { fill: #fff; } </style></defs><g id="_Слой_1-2" data-name="Слой 1"><g><path class="cls-2" d="M82.61,756.4l216.29.23h141.04s217.03-.29,217.03-.29c12.26-.02,23.28-11.01,23.28-23.57l.04-413.09,29.43-.44c13.93-.21,24.93-11.01,24.94-25.42l.04-115.24c-.32-13.32-10.16-23.81-23.57-23.84l-70.38-.18c23.48-22.31,34.43-54.5,29.86-86.73-4.36-30.71-26.3-52.46-56.32-59.74-73.89-15.32-138.87,28.49-179.7,86.63-42.97-16.17-88.64-15.85-131.02.28-19.38-27.47-42.32-50.51-70.87-67.39C199.29,8.25,161.17.55,123.82,9.11c-31.37,7.72-53.54,31.73-56.12,64.03-2.42,30.28,9.21,59.14,30.6,81.38l-70.53.27c-13.05.05-22.61,10.95-22.76,23.72l.02,116.85c0,13.87,10.71,23.67,24.17,23.88l29.36.44.03,413.02c0,13.43,10.21,23.68,24.03,23.7Z"></path><path class="cls-1" d="M82.61,756.4c-13.82-.01-24.03-10.27-24.03-23.7l-.03-413.02-29.36-.44c-13.46-.2-24.17-10-24.17-23.88l-.02-116.85c.15-12.77,9.71-23.67,22.76-23.72l70.53-.27c-21.4-22.23-33.02-51.1-30.6-81.38,2.58-32.31,24.75-56.32,56.12-64.03,37.36-8.56,75.48-.86,108.87,18.49,28.55,16.88,51.49,39.92,70.87,67.39,42.38-16.12,88.05-16.45,131.02-.28,40.83-58.14,105.81-101.95,179.7-86.63,30.02,7.28,51.96,29.02,56.32,59.74,4.58,32.23-6.38,64.43-29.86,86.73l70.38.18c13.41.03,23.25,10.52,23.57,23.84l-.04,115.24c0,14.4-11,25.21-24.94,25.42l-29.43.44-.04,413.09c0,12.56-11.02,23.55-23.28,23.57l-217.03.29h-141.04s-216.29-.23-216.29-.23ZM125.42,86.52c4.39-10.01,14.05-15.79,24.4-18.14,53.71-12.2,105.58,16.56,142.79,53.72.83-4.29,1.97-11.97-.13-15.1C257.45,54.96,197.11,10.56,132.02,23.13c-21.25,4.1-38.39,17.58-44.31,38.19-7.46,25.95-1.35,52.81,14.83,74.08,24.41,27.03,37.28,17.97,73.99,18.91-22.49-9.78-64.01-38.38-51.1-67.78ZM562.27,154.31c35.77-.99,51.02,8.04,73.48-18.02,14.43-16.74,20.32-38.02,19.01-59.7-1.67-27.72-20.53-48.32-48.01-53.5-65.19-12.3-125.39,31.74-160.41,83.95-2.28,3.4-.84,11.65-.24,15.74,37.06-38.04,94.09-68.33,147.63-53.29,10.56,2.97,18.71,10.92,21.58,18.74,10.73,29.22-28.97,55.63-53.05,66.09ZM292.75,153.79c1.16-3.05-.05-7.25-2.49-9.95-35.04-38.63-86.36-72.92-140.46-59.06-4.22,1.08-8.85,4.7-10.29,7.59-6.21,12.48,13.43,29.69,24.7,36.74,36.56,22.86,85.99,27.88,128.53,24.67ZM599.73,104.54c1.74-3.57,1.91-9.9.16-12.91-1.58-2.71-6.46-6.3-10.44-7.18-55.72-12.4-111.83,22.16-146.05,67.94,44.81,8.63,135.42-4.88,156.34-47.85ZM429.41,154.52l-.22-45.59c-39.5-15.05-81.33-14.93-119.72.26v45.37s119.94-.03,119.94-.03ZM293.47,170.66H20.95v132.63h272.52v-132.63ZM429.35,171.7h-119.88v568.75h119.88V171.7ZM717.89,170.66h-272.52v132.63h272.52v-132.63ZM293.47,319.37H74.5v421.07h218.97v-421.07ZM663.48,319.37h-218.12v421.07h218.12v-421.07Z"></path><rect class="cls-2" x="74.5" y="319.37" width="218.97" height="421.07"></rect><rect class="cls-2" x="445.37" y="319.37" width="218.12" height="421.07"></rect><rect class="cls-2" x="309.48" y="171.7" width="119.88" height="568.75"></rect><rect class="cls-2" x="20.95" y="170.66" width="272.52" height="132.63"></rect><rect class="cls-2" x="445.37" y="170.66" width="272.52" height="132.63"></rect><path class="cls-2" d="M562.27,154.31c24.08-10.46,63.78-36.87,53.05-66.09-2.87-7.82-11.02-15.77-21.58-18.74-53.53-15.04-110.57,15.25-147.63,53.29-.61-4.08-2.05-12.33.24-15.74,35.02-52.21,95.22-96.25,160.41-83.95,27.48,5.19,46.34,25.78,48.01,53.5,1.31,21.69-4.59,42.96-19.01,59.7-22.47,26.06-37.72,17.03-73.48,18.02Z"></path><path class="cls-2" d="M125.42,86.52c-12.91,29.4,28.62,58,51.1,67.78-36.71-.93-49.58,8.13-73.99-18.91-16.18-21.27-22.29-48.13-14.83-74.08,5.92-20.6,23.06-34.08,44.31-38.19,65.09-12.57,125.43,31.83,160.46,83.87,2.1,3.12.96,10.81.13,15.1-37.22-37.16-89.09-65.92-142.79-53.72-10.34,2.35-20,8.14-24.4,18.14Z"></path><path class="cls-2" d="M599.73,104.54c-20.92,42.96-111.52,56.47-156.34,47.85,34.23-45.78,90.34-80.34,146.05-67.94,3.98.89,8.87,4.47,10.44,7.18,1.75,3.01,1.58,9.35-.16,12.91Z"></path><path class="cls-2" d="M292.75,153.79c-42.54,3.21-91.97-1.81-128.53-24.67-11.27-7.05-30.92-24.26-24.7-36.74,1.44-2.89,6.07-6.51,10.29-7.59,54.09-13.86,105.42,20.43,140.46,59.06,2.44,2.69,3.65,6.9,2.49,9.95Z"></path><path class="cls-2" d="M429.41,154.52l-119.93.03v-45.37c38.39-15.19,80.21-15.3,119.71-.26l.22,45.59Z"></path></g></g></svg> 