<?xml version="1.0" encoding="UTF-8"?> <svg xmlns="http://www.w3.org/2000/svg" width="238" height="76" viewBox="0 0 238 76" fill="none"><g filter="url(#filter0_dd_2096_235)"><rect x="1.32037" y="1.32031" width="235" height="73" rx="36.5" fill="#EFB23F"></rect><path d="M29.5591 52.3203V28.3359H23.6901V21.8199H42.5911V28.3359H36.7221V52.3203H29.5591ZM42.351 52.3203V21.8199H49.514V31.5246H51.5011C54.8284 31.5246 57.4163 32.4488 59.2648 34.2973C61.1442 36.115 62.0838 38.6567 62.0838 41.9224C62.0838 45.219 61.1596 47.7761 59.3111 49.5938C57.4626 51.4115 54.8592 52.3203 51.5011 52.3203H42.351ZM49.514 45.8967H51.5473C53.7039 45.8967 54.7822 44.572 54.7822 41.9224C54.7822 39.2729 53.7039 37.9482 51.5473 37.9482H49.514V45.8967ZM63.9785 52.3203V21.8199H71.1415V52.3203H63.9785ZM81.0523 21.8199H99.2602V52.3203H92.0972V28.3359H87.7994L87.707 33.0496C87.6145 38.4719 87.3989 42.554 87.06 45.296C86.7211 47.9147 85.9817 49.794 84.8418 50.9339C83.7327 52.043 81.992 52.5976 79.6197 52.5976C78.9728 52.5976 78.2642 52.5206 77.494 52.3665V46.2664H78.1872C78.9574 46.2664 79.5119 45.9584 79.8508 45.3422C80.1897 44.726 80.4362 43.5091 80.5902 41.6914C80.7751 39.4116 80.8829 36.5156 80.9137 33.0034L81.0523 21.8199ZM112.792 21.8199H120.186L113.254 44.6952C112.36 47.6836 111.267 49.794 109.973 51.0264C108.71 52.2279 106.969 52.8287 104.751 52.8287C103.58 52.8287 102.44 52.6746 101.331 52.3665V46.2664C102.502 46.3281 103.118 46.3589 103.18 46.3589C104.504 46.3589 105.459 45.8351 106.045 44.7876L98.0962 21.8199H105.767L109.464 34.2973L112.792 21.8199ZM130.678 21.8199H137.841V52.3203H130.678V41.7838C129.384 42.1227 128.167 42.2922 127.027 42.2922C124.285 42.2922 122.128 41.4757 120.557 39.8429C119.017 38.1792 118.246 35.8686 118.246 32.911V21.8199H125.409V32.3102C125.409 34.5592 126.411 35.6837 128.413 35.6837C129.122 35.6837 129.877 35.5451 130.678 35.2678V21.8199ZM138.928 52.3203V21.8199H146.091V45.8043H150.944V21.8199H158.107V45.8043H162.959V21.8199H170.122V52.3203H138.928ZM187.545 21.8199H191.242V52.3203H184.079V38.5027L174.975 52.3203H171.232V21.8199H178.441V35.4065L187.545 21.8199ZM208.657 21.8199H212.354V52.3203H205.191V38.5027L196.087 52.3203H192.344V21.8199H199.553V35.4065L208.657 21.8199ZM195.81 12.2077V10.2667H201.032V12.2539C201.032 13.1781 201.525 13.6403 202.511 13.6403C203.435 13.6403 203.897 13.1781 203.897 12.2539V10.2667H209.165V12.2077C209.165 14.2718 208.58 15.8739 207.409 17.0138C206.269 18.1229 204.636 18.6774 202.511 18.6774C200.385 18.6774 198.737 18.1229 197.566 17.0138C196.395 15.8739 195.81 14.2718 195.81 12.2077Z" fill="black"></path></g><defs><filter id="filter0_dd_2096_235" x="1.00136e-05" y="-5.10216e-05" width="237.641" height="75.6407" filterUnits="userSpaceOnUse" color-interpolation-filters="sRGB"><feFlood flood-opacity="0" result="BackgroundImageFix"></feFlood><feColorMatrix in="SourceAlpha" type="matrix" values="0 0 0 0 0 0 0 0 0 0 0 0 0 0 0 0 0 0 127 0" result="hardAlpha"></feColorMatrix><feMorphology radius="0.660182" operator="dilate" in="SourceAlpha" result="effect1_dropShadow_2096_235"></feMorphology><feOffset></feOffset><feGaussianBlur stdDeviation="0.330091"></feGaussianBlur><feColorMatrix type="matrix" values="0 0 0 0 0.0352941 0 0 0 0 0.117647 0 0 0 0 0.258824 0 0 0 0.13 0"></feColorMatrix><feBlend mode="normal" in2="BackgroundImageFix" result="effect1_dropShadow_2096_235"></feBlend><feColorMatrix in="SourceAlpha" type="matrix" values="0 0 0 0 0 0 0 0 0 0 0 0 0 0 0 0 0 0 127 0" result="hardAlpha"></feColorMatrix><feOffset dy="0.660182"></feOffset><feGaussianBlur stdDeviation="0.330091"></feGaussianBlur><feColorMatrix type="matrix" values="0 0 0 0 0.0352941 0 0 0 0 0.117647 0 0 0 0 0.258824 0 0 0 0.25 0"></feColorMatrix><feBlend mode="normal" in2="effect1_dropShadow_2096_235" result="effect2_dropShadow_2096_235"></feBlend><feBlend mode="normal" in="SourceGraphic" in2="effect2_dropShadow_2096_235" result="shape"></feBlend></filter></defs></svg> 