<?xml version="1.0" encoding="UTF-8"?> <svg xmlns="http://www.w3.org/2000/svg" width="389" height="76" viewBox="0 0 389 76" fill="none"><g filter="url(#filter0_dd_2078_212)"><rect x="1.32037" y="1.32031" width="386" height="73" rx="36.5" fill="#ED1C29"></rect><path d="M40.188 58.8363V52.3203H25.0302V21.8199H32.1932V45.8043H37.4615V21.8199H44.6244V45.8043H47.351V58.8363H40.188ZM47.3152 52.3203V21.8199H62.7503V28.2435H54.4782V33.4193H60.5783V39.427H54.4782V45.8505H63.2124V52.3203H47.3152ZM63.959 52.3203V21.8199H71.122V33.1882H76.8062V21.8199H83.9692V52.3203H76.8062V39.7042H71.122V52.3203H63.959ZM85.0707 52.3203V21.8199H92.2337V33.1882H97.9178V21.8199H105.081V52.3203H97.9178V39.7042H92.2337V52.3203H85.0707ZM105.304 36.9777C105.304 31.6478 106.152 27.7043 107.846 25.1472C109.54 22.5593 112.128 21.2654 115.61 21.2654C119.153 21.2654 121.771 22.5439 123.466 25.101C125.16 27.6581 126.008 31.6016 126.008 36.9315C126.008 47.5604 122.542 52.8749 115.61 52.8749C112.128 52.8749 109.54 51.5809 107.846 48.993C106.152 46.3743 105.304 42.3692 105.304 36.9777ZM118.752 37.0701C118.752 33.6196 118.521 31.2319 118.059 29.9071C117.597 28.5516 116.78 27.8738 115.61 27.8738C114.439 27.8738 113.638 28.5208 113.207 29.8147C112.775 31.1087 112.56 33.4963 112.56 36.9777C112.56 40.459 112.775 42.8775 113.207 44.2331C113.669 45.5887 114.47 46.2664 115.61 46.2664C116.78 46.2664 117.597 45.5887 118.059 44.2331C118.521 42.8775 118.752 40.4899 118.752 37.0701ZM135.499 52.8749C128.751 52.8749 125.378 47.6066 125.378 37.0701C125.378 26.5336 128.751 21.2654 135.499 21.2654C138.179 21.2654 140.274 22.0048 141.783 23.4836C143.293 24.9624 144.31 27.3038 144.833 30.5079L138.549 32.1254C138.302 30.6157 137.948 29.5374 137.486 28.8905C137.024 28.2127 136.392 27.8738 135.591 27.8738C134.513 27.8738 133.742 28.567 133.28 29.9534C132.849 31.3089 132.633 33.6812 132.633 37.0701C132.633 40.459 132.849 42.8467 133.28 44.2331C133.742 45.5887 134.513 46.2664 135.591 46.2664C136.392 46.2664 137.024 45.943 137.486 45.296C137.948 44.6182 138.302 43.5245 138.549 42.0149L144.833 43.6323C144.31 46.8364 143.293 49.1778 141.783 50.6567C140.274 52.1355 138.179 52.8749 135.499 52.8749ZM149.414 52.3203V28.3359H143.545V21.8199H162.446V28.3359H156.577V52.3203H149.414ZM178.519 21.8199H182.216V52.3203H175.053V38.5027L165.949 52.3203H162.206V21.8199H169.415V35.4065L178.519 21.8199ZM211.886 52.3203H204.03L197.422 37.8095V52.3203H190.259V21.8199H197.422V34.8057L203.568 21.8199H211.424L204.492 36.2845L211.886 52.3203ZM208.687 36.9777C208.687 31.6478 209.534 27.7043 211.229 25.1472C212.923 22.5593 215.511 21.2654 218.993 21.2654C222.536 21.2654 225.154 22.5439 226.849 25.101C228.543 27.6581 229.39 31.6016 229.39 36.9315C229.39 47.5604 225.925 52.8749 218.993 52.8749C215.511 52.8749 212.923 51.5809 211.229 48.993C209.534 46.3743 208.687 42.3692 208.687 36.9777ZM222.135 37.0701C222.135 33.6196 221.904 31.2319 221.442 29.9071C220.98 28.5516 220.163 27.8738 218.993 27.8738C217.822 27.8738 217.021 28.5208 216.59 29.8147C216.158 31.1087 215.943 33.4963 215.943 36.9777C215.943 40.459 216.158 42.8775 216.59 44.2331C217.052 45.5887 217.853 46.2664 218.993 46.2664C220.163 46.2664 220.98 45.5887 221.442 44.2331C221.904 42.8775 222.135 40.4899 222.135 37.0701ZM248.863 21.8199H252.56V52.3203H245.397V40.8596L242.347 46.3127H239.852L236.802 40.8596V52.3203H229.639V21.8199H233.336L241.1 36.1921L248.863 21.8199ZM253.684 52.3203V21.8199H273.278V52.3203H266.115V28.3359H260.847V52.3203H253.684ZM287.19 52.3203L286.59 49.3627H280.166L279.519 52.3203H272.264L281.552 21.8199H285.249L294.492 52.3203H287.19ZM283.401 34.8981L281.368 43.771H285.388L283.401 34.8981ZM293.47 52.3203V21.8199H300.633V33.1882H306.317V21.8199H313.48V52.3203H306.317V39.7042H300.633V52.3203H293.47ZM330.895 21.8199H334.592V52.3203H327.429V38.5027L318.325 52.3203H314.582V21.8199H321.791V35.4065L330.895 21.8199ZM352.007 21.8199H355.704V52.3203H348.541V38.5027L339.437 52.3203H335.693V21.8199H342.903V35.4065L352.007 21.8199Z" fill="white"></path></g><defs><filter id="filter0_dd_2078_212" x="1.00136e-05" y="-5.10216e-05" width="388.641" height="75.6407" filterUnits="userSpaceOnUse" color-interpolation-filters="sRGB"><feFlood flood-opacity="0" result="BackgroundImageFix"></feFlood><feColorMatrix in="SourceAlpha" type="matrix" values="0 0 0 0 0 0 0 0 0 0 0 0 0 0 0 0 0 0 127 0" result="hardAlpha"></feColorMatrix><feMorphology radius="0.660182" operator="dilate" in="SourceAlpha" result="effect1_dropShadow_2078_212"></feMorphology><feOffset></feOffset><feGaussianBlur stdDeviation="0.330091"></feGaussianBlur><feColorMatrix type="matrix" values="0 0 0 0 0.0352941 0 0 0 0 0.117647 0 0 0 0 0.258824 0 0 0 0.13 0"></feColorMatrix><feBlend mode="normal" in2="BackgroundImageFix" result="effect1_dropShadow_2078_212"></feBlend><feColorMatrix in="SourceAlpha" type="matrix" values="0 0 0 0 0 0 0 0 0 0 0 0 0 0 0 0 0 0 127 0" result="hardAlpha"></feColorMatrix><feOffset dy="0.660182"></feOffset><feGaussianBlur stdDeviation="0.330091"></feGaussianBlur><feColorMatrix type="matrix" values="0 0 0 0 0.0352941 0 0 0 0 0.117647 0 0 0 0 0.258824 0 0 0 0.25 0"></feColorMatrix><feBlend mode="normal" in2="effect1_dropShadow_2078_212" result="effect2_dropShadow_2078_212"></feBlend><feBlend mode="normal" in="SourceGraphic" in2="effect2_dropShadow_2078_212" result="shape"></feBlend></filter></defs></svg> 