<?xml version="1.0" encoding="UTF-8"?> <svg xmlns="http://www.w3.org/2000/svg" id="_Слой_2" data-name="Слой 2" viewBox="0 0 756.36 864.09"><defs><style> .cls-1 { fill: #fff; } </style></defs><g id="_Слой_1-2" data-name="Слой 1"><g><path d="M563.05,864.09H193.79c-8.65-3.78-13.71-10.04-13.7-20.26l.06-104.63c0-10.87,7.54-19.01,18.51-19.06l30.22-.11c27.3-19.31,51.85-41.25,70.86-68.79,18.75-27.17,36-67.74,13.18-96.99l-34.27-36.77c-20.21-21.68-37.66-44.21-53.86-68.91-52.66-15.44-98.08-44.87-134.6-85.27C23.28,289.26,1.94,193.99.04,96.33c-.14-7.29-.1-13.5,4.91-19.03,3.7-4.08,10.27-5.36,16.96-5.35l122.4.13V18.33c0-8.29,5.58-18.3,15.92-18.3L595.08,0c9.55,0,16.96,7.99,17,16.71l.25,55.37,121.25-.13c6.98,0,13.55.65,18.03,5.59,3.9,4.3,4.86,10.61,4.74,17.1-1.76,93.91-20.83,185.61-82.14,259.35-37.68,45.32-86.63,78.17-142.69,94.7-16.18,25.16-33.54,47.26-53.49,68.68l-35.01,37.61c-21.93,29.22-4.7,69.69,13.95,96.48,19.1,27.43,43.58,49.57,70.89,68.6l30.49.13c9.58.04,17.74,7.82,17.76,17.7l.2,104.25c.02,10.61-4.11,17.68-13.28,21.95ZM469.01,719.96c-22.08-22.14-39.95-42.01-53.76-67.36-9.96-18.39-17.01-37.55-18.65-58.39-2.3-26.55,7.27-50.09,24.96-69.26l42.29-45.82c57.91-62.74,88.36-148.95,101.46-232.59,8.4-53.65,10.94-106.49,10.83-160.62l-.11-49.88H180.52s.46,91.57.46,91.57c.21,41.48,4.54,81.31,10.68,122.37,14.41,86.74,42.27,161.89,100.49,228.43,14.02,16.03,27.55,30.63,42.28,45.82,20.08,20.71,29.32,47.64,24.8,76.78-7.04,47.58-37.94,85.83-71.84,119.1l181.63-.14ZM197.75,399.25c-19.37-45.18-31.93-87.74-39.87-133.91-9.13-52.24-12.41-103.74-13.38-157.31l-108.03-.04c1.24,38.72,5.98,75.39,16.29,112.01,9.89,34.3,23.88,65.17,44.26,94.38,26.11,35.61,58.62,66.1,100.73,84.87ZM659.22,314.54c20.79-29.94,34.63-60.71,44.47-95.01,10.19-36.73,15.25-73.76,15.95-111.51h-107.57c-.98,53.47-4.19,104.77-13.34,156.88-7.82,46.55-20.8,89.29-39.8,134.36,42-19.18,73.95-48.85,100.28-84.72ZM540.15,756.08H216.12v72.04h324.03v-72.04Z"></path><path class="cls-1" d="M469.01,719.96l-181.63.14c33.91-33.27,64.8-71.51,71.84-119.1,4.52-29.14-4.72-56.06-24.8-76.78-14.72-15.19-28.25-29.79-42.28-45.82-58.21-66.54-86.07-141.69-100.49-228.43-6.14-41.06-10.48-80.89-10.68-122.37l-.46-91.58h395.52s.11,49.89.11,49.89c.12,54.13-2.43,106.97-10.83,160.62-13.1,83.64-43.55,169.85-101.46,232.59l-42.29,45.82c-17.69,19.17-27.27,42.7-24.96,69.26,1.64,20.84,8.69,40,18.65,58.39,13.81,25.35,31.68,45.22,53.76,67.36Z"></path><path class="cls-1" d="M197.75,399.25c-42.11-18.77-74.62-49.26-100.73-84.87-20.38-29.2-34.37-60.08-44.26-94.38-10.31-36.62-15.05-73.28-16.29-112.01l108.03.04c.97,53.57,4.25,105.07,13.38,157.31,7.94,46.17,20.51,88.72,39.87,133.91Z"></path><path class="cls-1" d="M659.22,314.54c-26.33,35.87-58.28,65.54-100.28,84.72,19-45.07,31.98-87.81,39.8-134.36,9.14-52.11,12.36-103.41,13.34-156.88h107.57c-.7,37.75-5.76,74.79-15.95,111.52-9.84,34.3-23.68,65.07-44.47,95.01Z"></path><rect class="cls-1" x="216.12" y="756.08" width="324.03" height="72.04"></rect></g></g></svg> 